%TF.GenerationSoftware,KiCad,Pcbnew,10.0.4*%
%TF.CreationDate,2026-07-11T23:02:05+05:00*%
%TF.ProjectId,OPEN_THIS_PROJECT__n01__COMBINATION,4f50454e-5f54-4484-9953-5f50524f4a45,rev?*%
%TF.SameCoordinates,Original*%
%TF.FileFunction,Soldermask,Bot*%
%TF.FilePolarity,Negative*%
%FSLAX46Y46*%
G04 Gerber Fmt 4.6, Leading zero omitted, Abs format (unit mm)*
G04 Created by KiCad (PCBNEW 10.0.4) date 2026-07-11 23:02:05*
%MOMM*%
%LPD*%
G01*
G04 APERTURE LIST*
%ADD10R,1.700000X1.700000*%
%ADD11C,1.700000*%
%ADD12R,1.800000X1.800000*%
%ADD13C,1.800000*%
%ADD14C,1.600000*%
G04 APERTURE END LIST*
D10*
%TO.C,C001_I2C_HEADER*%
X129540000Y-12700000D03*
D11*
X129540000Y-15240000D03*
X129540000Y-17780000D03*
X129540000Y-20320000D03*
%TD*%
D12*
%TO.C,C001_LED_INDICATOR*%
X142240000Y-13970000D03*
D13*
X144780000Y-13970000D03*
%TD*%
D12*
%TO.C,C001_POWER_LED*%
X157480000Y-13970000D03*
D13*
X160020000Y-13970000D03*
%TD*%
D14*
%TO.C,C001_C_100NF_FLASH*%
X44450000Y-123190000D03*
X46950000Y-123190000D03*
%TD*%
%TO.C,C001_DECOUPLING_CAPACITOR_ESP*%
X58420000Y-123190000D03*
X60920000Y-123190000D03*
%TD*%
%TO.C,C001_DECOUPLING_CAPACITOR_MAIN*%
X72390000Y-123190000D03*
X74890000Y-123190000D03*
%TD*%
%TO.C,C001_RESET_CAPACITOR*%
X86360000Y-123190000D03*
X88860000Y-123190000D03*
%TD*%
%TO.C,C001_RES_USB_CC1*%
X99060000Y-123190000D03*
X106680000Y-123190000D03*
%TD*%
%TO.C,C001_RES_USB_CC2*%
X118110000Y-123190000D03*
X125730000Y-123190000D03*
%TD*%
%TO.C,C001_R_10K_PULLUP_BOOT*%
X137160000Y-123190000D03*
X144780000Y-123190000D03*
%TD*%
%TO.C,C001_R_10K_PULLUP_EN*%
X156210000Y-123190000D03*
X163830000Y-123190000D03*
%TD*%
%TO.C,C001_R_10K_PULLUP_FLASH_HOLD*%
X11430000Y-152400000D03*
X19050000Y-152400000D03*
%TD*%
%TO.C,C001_R_10K_PULLUP_FLASH_WP*%
X30480000Y-152400000D03*
X38100000Y-152400000D03*
%TD*%
%TO.C,C001_R_10K_PULLUP_RTC*%
X49530000Y-152400000D03*
X57150000Y-152400000D03*
%TD*%
%TO.C,C001_R_10K_PULLUP_SD_CD*%
X68580000Y-152400000D03*
X76200000Y-152400000D03*
%TD*%
%TO.C,C001_R_220_PWR*%
X87630000Y-152400000D03*
X95250000Y-152400000D03*
%TD*%
%TO.C,C001_R_220_STATUS*%
X106680000Y-152400000D03*
X114300000Y-152400000D03*
%TD*%
%TO.C,C001_SCL_PULLUP*%
X125730000Y-152400000D03*
X133350000Y-152400000D03*
%TD*%
%TO.C,C001_SDA_PULLUP*%
X144780000Y-152400000D03*
X152400000Y-152400000D03*
%TD*%
M02*
