%TF.GenerationSoftware,KiCad,Pcbnew,10.0.4*%
%TF.CreationDate,2026-07-11T23:02:05+05:00*%
%TF.ProjectId,OPEN_THIS_PROJECT__n01__COMBINATION,4f50454e-5f54-4484-9953-5f50524f4a45,rev?*%
%TF.SameCoordinates,Original*%
%TF.FileFunction,Copper,L2,Bot*%
%TF.FilePolarity,Positive*%
%FSLAX46Y46*%
G04 Gerber Fmt 4.6, Leading zero omitted, Abs format (unit mm)*
G04 Created by KiCad (PCBNEW 10.0.4) date 2026-07-11 23:02:05*
%MOMM*%
%LPD*%
G01*
G04 APERTURE LIST*
%TA.AperFunction,HeatsinkPad*%
%ADD10C,0.600000*%
%TD*%
%TA.AperFunction,ComponentPad*%
%ADD11R,1.700000X1.700000*%
%TD*%
%TA.AperFunction,ComponentPad*%
%ADD12C,1.700000*%
%TD*%
%TA.AperFunction,ComponentPad*%
%ADD13R,1.800000X1.800000*%
%TD*%
%TA.AperFunction,ComponentPad*%
%ADD14C,1.800000*%
%TD*%
%TA.AperFunction,ComponentPad*%
%ADD15C,1.600000*%
%TD*%
%TA.AperFunction,ViaPad*%
%ADD16C,0.800000*%
%TD*%
%TA.AperFunction,Conductor*%
%ADD17C,0.250000*%
%TD*%
G04 APERTURE END LIST*
D10*
%TO.P,C001_ESP32_WROOM,39*%
%TO.N,N/C*%
X61295000Y-69447500D03*
X61295000Y-70972500D03*
X62057500Y-68685000D03*
X62057500Y-70210000D03*
X62057500Y-71735000D03*
X62820000Y-69447500D03*
X62820000Y-70972500D03*
X63582500Y-68685000D03*
X63582500Y-70210000D03*
X63582500Y-71735000D03*
X64345000Y-69447500D03*
X64345000Y-70972500D03*
%TD*%
D11*
%TO.P,C001_I2C_HEADER,1*%
%TO.N,NET_C001_3V3*%
X129540000Y-12700000D03*
D12*
%TO.P,C001_I2C_HEADER,2*%
%TO.N,NET_C001_GND*%
X129540000Y-15240000D03*
%TO.P,C001_I2C_HEADER,3*%
%TO.N,NET_C001_I2C_SDA*%
X129540000Y-17780000D03*
%TO.P,C001_I2C_HEADER,4*%
%TO.N,NET_C001_I2C_SCL*%
X129540000Y-20320000D03*
%TD*%
D13*
%TO.P,C001_LED_INDICATOR,1*%
%TO.N,NET_C001_GND*%
X142240000Y-13970000D03*
D14*
%TO.P,C001_LED_INDICATOR,2*%
%TO.N,NET_C001_LED_STATUS_A*%
X144780000Y-13970000D03*
%TD*%
D13*
%TO.P,C001_POWER_LED,1*%
%TO.N,NET_C001_GND*%
X157480000Y-13970000D03*
D14*
%TO.P,C001_POWER_LED,2*%
%TO.N,NET_C001_PWR_LED_A*%
X160020000Y-13970000D03*
%TD*%
D15*
%TO.P,C001_C_100NF_FLASH,1*%
%TO.N,NET_C001_3V3*%
X44450000Y-123190000D03*
%TO.P,C001_C_100NF_FLASH,2*%
%TO.N,NET_C001_GND*%
X46950000Y-123190000D03*
%TD*%
%TO.P,C001_DECOUPLING_CAPACITOR_ESP,1*%
%TO.N,NET_C001_3V3*%
X58420000Y-123190000D03*
%TO.P,C001_DECOUPLING_CAPACITOR_ESP,2*%
%TO.N,NET_C001_GND*%
X60920000Y-123190000D03*
%TD*%
%TO.P,C001_DECOUPLING_CAPACITOR_MAIN,1*%
%TO.N,NET_C001_3V3*%
X72390000Y-123190000D03*
%TO.P,C001_DECOUPLING_CAPACITOR_MAIN,2*%
%TO.N,NET_C001_GND*%
X74890000Y-123190000D03*
%TD*%
%TO.P,C001_RESET_CAPACITOR,1*%
%TO.N,NET_C001_ESP_EN*%
X86360000Y-123190000D03*
%TO.P,C001_RESET_CAPACITOR,2*%
%TO.N,NET_C001_GND*%
X88860000Y-123190000D03*
%TD*%
%TO.P,C001_RES_USB_CC1,1*%
%TO.N,NET_C001_USB_CC1*%
X99060000Y-123190000D03*
%TO.P,C001_RES_USB_CC1,2*%
%TO.N,NET_C001_GND*%
X106680000Y-123190000D03*
%TD*%
%TO.P,C001_RES_USB_CC2,1*%
%TO.N,NET_C001_USB_CC2*%
X118110000Y-123190000D03*
%TO.P,C001_RES_USB_CC2,2*%
%TO.N,NET_C001_GND*%
X125730000Y-123190000D03*
%TD*%
%TO.P,C001_R_10K_PULLUP_BOOT,1*%
%TO.N,NET_C001_ESP_BOOT*%
X137160000Y-123190000D03*
%TO.P,C001_R_10K_PULLUP_BOOT,2*%
%TO.N,NET_C001_3V3*%
X144780000Y-123190000D03*
%TD*%
%TO.P,C001_R_10K_PULLUP_EN,1*%
%TO.N,NET_C001_ESP_EN*%
X156210000Y-123190000D03*
%TO.P,C001_R_10K_PULLUP_EN,2*%
%TO.N,NET_C001_3V3*%
X163830000Y-123190000D03*
%TD*%
%TO.P,C001_R_10K_PULLUP_FLASH_HOLD,1*%
%TO.N,NET_C001_FLASH_HOLD*%
X11430000Y-152400000D03*
%TO.P,C001_R_10K_PULLUP_FLASH_HOLD,2*%
%TO.N,NET_C001_3V3*%
X19050000Y-152400000D03*
%TD*%
%TO.P,C001_R_10K_PULLUP_FLASH_WP,1*%
%TO.N,NET_C001_FLASH_WP*%
X30480000Y-152400000D03*
%TO.P,C001_R_10K_PULLUP_FLASH_WP,2*%
%TO.N,NET_C001_3V3*%
X38100000Y-152400000D03*
%TD*%
%TO.P,C001_R_10K_PULLUP_RTC,1*%
%TO.N,NET_C001_RTC_SQW*%
X49530000Y-152400000D03*
%TO.P,C001_R_10K_PULLUP_RTC,2*%
%TO.N,NET_C001_3V3*%
X57150000Y-152400000D03*
%TD*%
%TO.P,C001_R_10K_PULLUP_SD_CD,1*%
%TO.N,NET_C001_SD_CARD_DETECT*%
X68580000Y-152400000D03*
%TO.P,C001_R_10K_PULLUP_SD_CD,2*%
%TO.N,NET_C001_3V3*%
X76200000Y-152400000D03*
%TD*%
%TO.P,C001_R_220_PWR,1*%
%TO.N,NET_C001_3V3*%
X87630000Y-152400000D03*
%TO.P,C001_R_220_PWR,2*%
%TO.N,NET_C001_PWR_LED_A*%
X95250000Y-152400000D03*
%TD*%
%TO.P,C001_R_220_STATUS,1*%
%TO.N,NET_C001_STATUS_LED*%
X106680000Y-152400000D03*
%TO.P,C001_R_220_STATUS,2*%
%TO.N,NET_C001_LED_STATUS_A*%
X114300000Y-152400000D03*
%TD*%
%TO.P,C001_SCL_PULLUP,1*%
%TO.N,NET_C001_I2C_SCL*%
X125730000Y-152400000D03*
%TO.P,C001_SCL_PULLUP,2*%
%TO.N,NET_C001_3V3*%
X133350000Y-152400000D03*
%TD*%
%TO.P,C001_SDA_PULLUP,1*%
%TO.N,NET_C001_I2C_SDA*%
X144780000Y-152400000D03*
%TO.P,C001_SDA_PULLUP,2*%
%TO.N,NET_C001_3V3*%
X152400000Y-152400000D03*
%TD*%
D16*
%TO.N,NET_C001_SPI_MISO*%
X109220000Y-81280000D03*
X110490000Y-72390000D03*
%TO.N,NET_C001_ESP_EN*%
X13970000Y-66040000D03*
%TO.N,NET_C001_3V3*%
X132080000Y-125730000D03*
X58420000Y-129540000D03*
%TO.N,NET_C001_GND*%
X107950000Y-81280000D03*
X69850000Y-62230000D03*
X113030000Y-119380000D03*
X107950000Y-119380000D03*
X21590000Y-130810000D03*
%TO.N,NET_C001_I2C_SDA*%
X113030000Y-69850000D03*
X110490000Y-69850000D03*
%TO.N,NET_C001_ESP_BOOT*%
X133350000Y-82550000D03*
X106680000Y-80010000D03*
%TO.N,NET_C001_FLASH_HOLD*%
X34290000Y-132080000D03*
%TO.N,NET_C001_LED_STATUS_A*%
X130810000Y-148590000D03*
%TO.N,NET_C001_RTC_SQW*%
X15240000Y-135890000D03*
X16510000Y-71120000D03*
%TO.N,NET_C001_SPI_MOSI*%
X33020000Y-134620000D03*
X43180000Y-121920000D03*
X57150000Y-83820000D03*
X107950000Y-63500000D03*
%TO.N,NET_C001_STATUS_LED*%
X113030000Y-124460000D03*
X107950000Y-124460000D03*
X77470000Y-124460000D03*
X76200000Y-121920000D03*
%TD*%
%TO.N,NET_C001_SPI_MISO*%
D17*
X109220000Y-81280000D02*
X110490000Y-81280000D01*
X110490000Y-81280000D02*
X110490000Y-72390000D01*
%TO.N,NET_C001_ESP_EN*%
X156210000Y-123190000D02*
X147320000Y-123190000D01*
X147320000Y-123190000D02*
X147320000Y-121920000D01*
X147320000Y-121920000D02*
X146050000Y-121920000D01*
X146050000Y-121920000D02*
X146050000Y-120650000D01*
X146050000Y-120650000D02*
X15240000Y-120650000D01*
X15240000Y-120650000D02*
X15240000Y-66040000D01*
X15240000Y-66040000D02*
X13970000Y-66040000D01*
X86360000Y-123190000D02*
X86360000Y-120650000D01*
%TO.N,NET_C001_3V3*%
X72390000Y-123190000D02*
X72390000Y-124460000D01*
X72390000Y-124460000D02*
X73660000Y-124460000D01*
X73660000Y-124460000D02*
X73660000Y-125730000D01*
X73660000Y-125730000D02*
X87630000Y-125730000D01*
X87630000Y-125730000D02*
X87630000Y-152400000D01*
X163830000Y-123190000D02*
X158750000Y-123190000D01*
X158750000Y-123190000D02*
X158750000Y-124460000D01*
X158750000Y-124460000D02*
X157480000Y-124460000D01*
X157480000Y-124460000D02*
X157480000Y-125730000D01*
X157480000Y-125730000D02*
X87630000Y-125730000D01*
X144780000Y-123190000D02*
X144780000Y-125730000D01*
X152400000Y-152400000D02*
X152400000Y-125730000D01*
X133350000Y-152400000D02*
X142240000Y-152400000D01*
X142240000Y-152400000D02*
X142240000Y-151130000D01*
X142240000Y-151130000D02*
X143510000Y-151130000D01*
X143510000Y-151130000D02*
X143510000Y-149860000D01*
X143510000Y-149860000D02*
X152400000Y-149860000D01*
X57150000Y-152400000D02*
X66040000Y-152400000D01*
X66040000Y-152400000D02*
X66040000Y-151130000D01*
X66040000Y-151130000D02*
X67310000Y-151130000D01*
X67310000Y-151130000D02*
X67310000Y-149860000D01*
X67310000Y-149860000D02*
X87630000Y-149860000D01*
X58420000Y-129540000D02*
X58420000Y-123190000D01*
X38100000Y-152400000D02*
X46990000Y-152400000D01*
X46990000Y-152400000D02*
X46990000Y-151130000D01*
X46990000Y-151130000D02*
X48260000Y-151130000D01*
X48260000Y-151130000D02*
X48260000Y-149860000D01*
X48260000Y-149860000D02*
X57150000Y-149860000D01*
X57150000Y-149860000D02*
X57150000Y-152400000D01*
X19050000Y-152400000D02*
X27940000Y-152400000D01*
X27940000Y-152400000D02*
X27940000Y-151130000D01*
X27940000Y-151130000D02*
X29210000Y-151130000D01*
X29210000Y-151130000D02*
X29210000Y-149860000D01*
X29210000Y-149860000D02*
X38100000Y-149860000D01*
X38100000Y-149860000D02*
X38100000Y-152400000D01*
X44450000Y-123190000D02*
X44450000Y-124460000D01*
X44450000Y-124460000D02*
X45720000Y-124460000D01*
X45720000Y-124460000D02*
X45720000Y-125730000D01*
X45720000Y-125730000D02*
X58420000Y-125730000D01*
X76200000Y-152400000D02*
X76200000Y-149860000D01*
%TO.N,NET_C001_GND*%
X107950000Y-81280000D02*
X107950000Y-80010000D01*
X107950000Y-80010000D02*
X109220000Y-80010000D01*
X109220000Y-80010000D02*
X109220000Y-71120000D01*
X109220000Y-71120000D02*
X157480000Y-71120000D01*
X157480000Y-71120000D02*
X157480000Y-13970000D01*
X69850000Y-62230000D02*
X109220000Y-62230000D01*
X109220000Y-62230000D02*
X109220000Y-71120000D01*
X113030000Y-119380000D02*
X107950000Y-119380000D01*
X129540000Y-15240000D02*
X142240000Y-15240000D01*
X142240000Y-15240000D02*
X142240000Y-16510000D01*
X142240000Y-16510000D02*
X157480000Y-16510000D01*
X21590000Y-130810000D02*
X59690000Y-130810000D01*
X59690000Y-130810000D02*
X59690000Y-125730000D01*
X59690000Y-125730000D02*
X60960000Y-125730000D01*
X60960000Y-125730000D02*
X60960000Y-123190000D01*
X142240000Y-13970000D02*
X142240000Y-15240000D01*
%TO.N,NET_C001_I2C_SDA*%
X113030000Y-69850000D02*
X110490000Y-69850000D01*
X129540000Y-17780000D02*
X127000000Y-17780000D01*
X127000000Y-17780000D02*
X127000000Y-69850000D01*
X127000000Y-69850000D02*
X113030000Y-69850000D01*
%TO.N,NET_C001_ESP_BOOT*%
X133350000Y-82550000D02*
X106680000Y-82550000D01*
X106680000Y-82550000D02*
X106680000Y-80010000D01*
%TO.N,NET_C001_FLASH_HOLD*%
X11430000Y-152400000D02*
X16510000Y-152400000D01*
X16510000Y-152400000D02*
X16510000Y-151130000D01*
X16510000Y-151130000D02*
X17780000Y-151130000D01*
X17780000Y-151130000D02*
X17780000Y-149860000D01*
X17780000Y-149860000D02*
X27940000Y-149860000D01*
X27940000Y-149860000D02*
X27940000Y-148590000D01*
X27940000Y-148590000D02*
X34290000Y-148590000D01*
X34290000Y-148590000D02*
X34290000Y-132080000D01*
%TO.N,NET_C001_LED_STATUS_A*%
X130810000Y-148590000D02*
X114300000Y-148590000D01*
X114300000Y-148590000D02*
X114300000Y-152400000D01*
%TO.N,NET_C001_RTC_SQW*%
X15240000Y-135890000D02*
X15240000Y-121920000D01*
X15240000Y-121920000D02*
X13970000Y-121920000D01*
X13970000Y-121920000D02*
X13970000Y-71120000D01*
X13970000Y-71120000D02*
X12700000Y-71120000D01*
X12700000Y-71120000D02*
X12700000Y-64770000D01*
X12700000Y-64770000D02*
X16510000Y-64770000D01*
X16510000Y-64770000D02*
X16510000Y-71120000D01*
%TO.N,NET_C001_SPI_MOSI*%
X33020000Y-134620000D02*
X33020000Y-132080000D01*
X33020000Y-132080000D02*
X20320000Y-132080000D01*
X20320000Y-132080000D02*
X20320000Y-129540000D01*
X20320000Y-129540000D02*
X41910000Y-129540000D01*
X41910000Y-129540000D02*
X41910000Y-121920000D01*
X41910000Y-121920000D02*
X43180000Y-121920000D01*
X57150000Y-83820000D02*
X105410000Y-83820000D01*
X105410000Y-83820000D02*
X105410000Y-78740000D01*
X105410000Y-78740000D02*
X107950000Y-78740000D01*
X107950000Y-78740000D02*
X107950000Y-63500000D01*
%TO.N,NET_C001_STATUS_LED*%
X113030000Y-124460000D02*
X107950000Y-124460000D01*
X77470000Y-124460000D02*
X77470000Y-121920000D01*
X77470000Y-121920000D02*
X76200000Y-121920000D01*
%TD*%
M02*
