%TF.GenerationSoftware,KiCad,Pcbnew,10.0.4*%
%TF.CreationDate,2026-07-11T23:02:05+05:00*%
%TF.ProjectId,OPEN_THIS_PROJECT__n01__COMBINATION,4f50454e-5f54-4484-9953-5f50524f4a45,rev?*%
%TF.SameCoordinates,Original*%
%TF.FileFunction,Copper,L1,Top*%
%TF.FilePolarity,Positive*%
%FSLAX46Y46*%
G04 Gerber Fmt 4.6, Leading zero omitted, Abs format (unit mm)*
G04 Created by KiCad (PCBNEW 10.0.4) date 2026-07-11 23:02:05*
%MOMM*%
%LPD*%
G01*
G04 APERTURE LIST*
G04 Aperture macros list*
%AMRoundRect*
0 Rectangle with rounded corners*
0 $1 Rounding radius*
0 $2 $3 $4 $5 $6 $7 $8 $9 X,Y pos of 4 corners*
0 Add a 4 corners polygon primitive as box body*
4,1,4,$2,$3,$4,$5,$6,$7,$8,$9,$2,$3,0*
0 Add four circle primitives for the rounded corners*
1,1,$1+$1,$2,$3*
1,1,$1+$1,$4,$5*
1,1,$1+$1,$6,$7*
1,1,$1+$1,$8,$9*
0 Add four rect primitives between the rounded corners*
20,1,$1+$1,$2,$3,$4,$5,0*
20,1,$1+$1,$4,$5,$6,$7,0*
20,1,$1+$1,$6,$7,$8,$9,0*
20,1,$1+$1,$8,$9,$2,$3,0*%
G04 Aperture macros list end*
%TA.AperFunction,SMDPad,CuDef*%
%ADD10R,1.500000X0.900000*%
%TD*%
%TA.AperFunction,SMDPad,CuDef*%
%ADD11R,0.900000X1.500000*%
%TD*%
%TA.AperFunction,SMDPad,CuDef*%
%ADD12R,1.050000X1.050000*%
%TD*%
%TA.AperFunction,HeatsinkPad*%
%ADD13C,0.600000*%
%TD*%
%TA.AperFunction,HeatsinkPad*%
%ADD14R,4.200000X4.200000*%
%TD*%
%TA.AperFunction,ComponentPad*%
%ADD15R,1.700000X1.700000*%
%TD*%
%TA.AperFunction,ComponentPad*%
%ADD16C,1.700000*%
%TD*%
%TA.AperFunction,ComponentPad*%
%ADD17R,1.800000X1.800000*%
%TD*%
%TA.AperFunction,ComponentPad*%
%ADD18C,1.800000*%
%TD*%
%TA.AperFunction,SMDPad,CuDef*%
%ADD19RoundRect,0.150000X-0.825000X-0.150000X0.825000X-0.150000X0.825000X0.150000X-0.825000X0.150000X0*%
%TD*%
%TA.AperFunction,ComponentPad*%
%ADD20C,1.600000*%
%TD*%
%TA.AperFunction,ViaPad*%
%ADD21C,0.800000*%
%TD*%
%TA.AperFunction,Conductor*%
%ADD22C,0.250000*%
%TD*%
G04 APERTURE END LIST*
D10*
%TO.P,C001_ESP32_WROOM,1*%
%TO.N,NET_C001_GND*%
X54750000Y-62870000D03*
%TO.P,C001_ESP32_WROOM,2*%
%TO.N,NET_C001_3V3*%
X54750000Y-64140000D03*
%TO.P,C001_ESP32_WROOM,3*%
%TO.N,NET_C001_ESP_EN*%
X54750000Y-65410000D03*
%TO.P,C001_ESP32_WROOM,4*%
%TO.N,NET_C001_GPIO_36*%
X54750000Y-66680000D03*
%TO.P,C001_ESP32_WROOM,5*%
%TO.N,NET_C001_GPIO_39*%
X54750000Y-67950000D03*
%TO.P,C001_ESP32_WROOM,6*%
%TO.N,NET_C001_GPIO_34*%
X54750000Y-69220000D03*
%TO.P,C001_ESP32_WROOM,7*%
%TO.N,NET_C001_RTC_SQW*%
X54750000Y-70490000D03*
%TO.P,C001_ESP32_WROOM,8*%
%TO.N,N/C*%
X54750000Y-71760000D03*
%TO.P,C001_ESP32_WROOM,9*%
X54750000Y-73030000D03*
%TO.P,C001_ESP32_WROOM,10*%
%TO.N,NET_C001_GPIO_25*%
X54750000Y-74300000D03*
%TO.P,C001_ESP32_WROOM,11*%
%TO.N,NET_C001_GPIO_26*%
X54750000Y-75570000D03*
%TO.P,C001_ESP32_WROOM,12*%
%TO.N,N/C*%
X54750000Y-76840000D03*
%TO.P,C001_ESP32_WROOM,13*%
%TO.N,NET_C001_GPIO_14*%
X54750000Y-78110000D03*
%TO.P,C001_ESP32_WROOM,14*%
%TO.N,NET_C001_GPIO_12*%
X54750000Y-79380000D03*
D11*
%TO.P,C001_ESP32_WROOM,15*%
%TO.N,N/C*%
X57790000Y-80630000D03*
%TO.P,C001_ESP32_WROOM,16*%
%TO.N,NET_C001_SD_CS*%
X59060000Y-80630000D03*
%TO.P,C001_ESP32_WROOM,17*%
%TO.N,N/C*%
X60330000Y-80630000D03*
%TO.P,C001_ESP32_WROOM,18*%
X61600000Y-80630000D03*
%TO.P,C001_ESP32_WROOM,19*%
X62870000Y-80630000D03*
%TO.P,C001_ESP32_WROOM,20*%
X64140000Y-80630000D03*
%TO.P,C001_ESP32_WROOM,21*%
X65410000Y-80630000D03*
%TO.P,C001_ESP32_WROOM,22*%
X66680000Y-80630000D03*
%TO.P,C001_ESP32_WROOM,23*%
%TO.N,NET_C001_GPIO_15*%
X67950000Y-80630000D03*
%TO.P,C001_ESP32_WROOM,24*%
%TO.N,NET_C001_STATUS_LED*%
X69220000Y-80630000D03*
D10*
%TO.P,C001_ESP32_WROOM,25*%
%TO.N,NET_C001_ESP_BOOT*%
X72250000Y-79380000D03*
%TO.P,C001_ESP32_WROOM,26*%
%TO.N,NET_C001_GPIO_4*%
X72250000Y-78110000D03*
%TO.P,C001_ESP32_WROOM,27*%
%TO.N,NET_C001_GPIO_16*%
X72250000Y-76840000D03*
%TO.P,C001_ESP32_WROOM,28*%
%TO.N,NET_C001_GPIO_17*%
X72250000Y-75570000D03*
%TO.P,C001_ESP32_WROOM,29*%
%TO.N,NET_C001_FLASH_CS*%
X72250000Y-74300000D03*
%TO.P,C001_ESP32_WROOM,30*%
%TO.N,NET_C001_SPI_SCK*%
X72250000Y-73030000D03*
%TO.P,C001_ESP32_WROOM,31*%
%TO.N,NET_C001_SPI_MISO*%
X72250000Y-71760000D03*
%TO.P,C001_ESP32_WROOM,32*%
%TO.N,N/C*%
X72250000Y-70490000D03*
%TO.P,C001_ESP32_WROOM,33*%
%TO.N,NET_C001_I2C_SDA*%
X72250000Y-69220000D03*
%TO.P,C001_ESP32_WROOM,34*%
%TO.N,NET_C001_ESP_RX0*%
X72250000Y-67950000D03*
%TO.P,C001_ESP32_WROOM,35*%
%TO.N,NET_C001_ESP_TX0*%
X72250000Y-66680000D03*
%TO.P,C001_ESP32_WROOM,36*%
%TO.N,NET_C001_I2C_SCL*%
X72250000Y-65410000D03*
%TO.P,C001_ESP32_WROOM,37*%
%TO.N,NET_C001_SPI_MOSI*%
X72250000Y-64140000D03*
%TO.P,C001_ESP32_WROOM,38*%
%TO.N,N/C*%
X72250000Y-62870000D03*
D12*
%TO.P,C001_ESP32_WROOM,39*%
X61295000Y-68685000D03*
D13*
X61295000Y-69447500D03*
D12*
X61295000Y-70210000D03*
D13*
X61295000Y-70972500D03*
D12*
X61295000Y-71735000D03*
D13*
X62057500Y-68685000D03*
X62057500Y-70210000D03*
X62057500Y-71735000D03*
D12*
X62820000Y-68685000D03*
D13*
X62820000Y-69447500D03*
D12*
X62820000Y-70210000D03*
D14*
X62820000Y-70210000D03*
D13*
X62820000Y-70972500D03*
D12*
X62820000Y-71735000D03*
D13*
X63582500Y-68685000D03*
X63582500Y-70210000D03*
X63582500Y-71735000D03*
D12*
X64345000Y-68685000D03*
D13*
X64345000Y-69447500D03*
D12*
X64345000Y-70210000D03*
D13*
X64345000Y-70972500D03*
D12*
X64345000Y-71735000D03*
%TD*%
D15*
%TO.P,C001_I2C_HEADER,1*%
%TO.N,NET_C001_3V3*%
X129540000Y-12700000D03*
D16*
%TO.P,C001_I2C_HEADER,2*%
%TO.N,NET_C001_GND*%
X129540000Y-15240000D03*
%TO.P,C001_I2C_HEADER,3*%
%TO.N,NET_C001_I2C_SDA*%
X129540000Y-17780000D03*
%TO.P,C001_I2C_HEADER,4*%
%TO.N,NET_C001_I2C_SCL*%
X129540000Y-20320000D03*
%TD*%
D17*
%TO.P,C001_LED_INDICATOR,1*%
%TO.N,NET_C001_GND*%
X142240000Y-13970000D03*
D18*
%TO.P,C001_LED_INDICATOR,2*%
%TO.N,NET_C001_LED_STATUS_A*%
X144780000Y-13970000D03*
%TD*%
D17*
%TO.P,C001_POWER_LED,1*%
%TO.N,NET_C001_GND*%
X157480000Y-13970000D03*
D18*
%TO.P,C001_POWER_LED,2*%
%TO.N,NET_C001_PWR_LED_A*%
X160020000Y-13970000D03*
%TD*%
D19*
%TO.P,C001_W25Q64,1*%
%TO.N,NET_C001_FLASH_CS*%
X19115000Y-130175000D03*
%TO.P,C001_W25Q64,2*%
%TO.N,NET_C001_SPI_MISO*%
X19115000Y-131445000D03*
%TO.P,C001_W25Q64,3*%
%TO.N,NET_C001_FLASH_WP*%
X19115000Y-132715000D03*
%TO.P,C001_W25Q64,4*%
%TO.N,NET_C001_GND*%
X19115000Y-133985000D03*
%TO.P,C001_W25Q64,5*%
%TO.N,NET_C001_SPI_MOSI*%
X24065000Y-133985000D03*
%TO.P,C001_W25Q64,6*%
%TO.N,NET_C001_SPI_SCK*%
X24065000Y-132715000D03*
%TO.P,C001_W25Q64,7*%
%TO.N,NET_C001_FLASH_HOLD*%
X24065000Y-131445000D03*
%TO.P,C001_W25Q64,8*%
%TO.N,NET_C001_3V3*%
X24065000Y-130175000D03*
%TD*%
D20*
%TO.P,C001_C_100NF_FLASH,1*%
%TO.N,NET_C001_3V3*%
X44450000Y-123190000D03*
%TO.P,C001_C_100NF_FLASH,2*%
%TO.N,NET_C001_GND*%
X46950000Y-123190000D03*
%TD*%
%TO.P,C001_DECOUPLING_CAPACITOR_ESP,1*%
%TO.N,NET_C001_3V3*%
X58420000Y-123190000D03*
%TO.P,C001_DECOUPLING_CAPACITOR_ESP,2*%
%TO.N,NET_C001_GND*%
X60920000Y-123190000D03*
%TD*%
%TO.P,C001_DECOUPLING_CAPACITOR_MAIN,1*%
%TO.N,NET_C001_3V3*%
X72390000Y-123190000D03*
%TO.P,C001_DECOUPLING_CAPACITOR_MAIN,2*%
%TO.N,NET_C001_GND*%
X74890000Y-123190000D03*
%TD*%
%TO.P,C001_RESET_CAPACITOR,1*%
%TO.N,NET_C001_ESP_EN*%
X86360000Y-123190000D03*
%TO.P,C001_RESET_CAPACITOR,2*%
%TO.N,NET_C001_GND*%
X88860000Y-123190000D03*
%TD*%
%TO.P,C001_RES_USB_CC1,1*%
%TO.N,NET_C001_USB_CC1*%
X99060000Y-123190000D03*
%TO.P,C001_RES_USB_CC1,2*%
%TO.N,NET_C001_GND*%
X106680000Y-123190000D03*
%TD*%
%TO.P,C001_RES_USB_CC2,1*%
%TO.N,NET_C001_USB_CC2*%
X118110000Y-123190000D03*
%TO.P,C001_RES_USB_CC2,2*%
%TO.N,NET_C001_GND*%
X125730000Y-123190000D03*
%TD*%
%TO.P,C001_R_10K_PULLUP_BOOT,1*%
%TO.N,NET_C001_ESP_BOOT*%
X137160000Y-123190000D03*
%TO.P,C001_R_10K_PULLUP_BOOT,2*%
%TO.N,NET_C001_3V3*%
X144780000Y-123190000D03*
%TD*%
%TO.P,C001_R_10K_PULLUP_EN,1*%
%TO.N,NET_C001_ESP_EN*%
X156210000Y-123190000D03*
%TO.P,C001_R_10K_PULLUP_EN,2*%
%TO.N,NET_C001_3V3*%
X163830000Y-123190000D03*
%TD*%
%TO.P,C001_R_10K_PULLUP_FLASH_HOLD,1*%
%TO.N,NET_C001_FLASH_HOLD*%
X11430000Y-152400000D03*
%TO.P,C001_R_10K_PULLUP_FLASH_HOLD,2*%
%TO.N,NET_C001_3V3*%
X19050000Y-152400000D03*
%TD*%
%TO.P,C001_R_10K_PULLUP_FLASH_WP,1*%
%TO.N,NET_C001_FLASH_WP*%
X30480000Y-152400000D03*
%TO.P,C001_R_10K_PULLUP_FLASH_WP,2*%
%TO.N,NET_C001_3V3*%
X38100000Y-152400000D03*
%TD*%
%TO.P,C001_R_10K_PULLUP_RTC,1*%
%TO.N,NET_C001_RTC_SQW*%
X49530000Y-152400000D03*
%TO.P,C001_R_10K_PULLUP_RTC,2*%
%TO.N,NET_C001_3V3*%
X57150000Y-152400000D03*
%TD*%
%TO.P,C001_R_10K_PULLUP_SD_CD,1*%
%TO.N,NET_C001_SD_CARD_DETECT*%
X68580000Y-152400000D03*
%TO.P,C001_R_10K_PULLUP_SD_CD,2*%
%TO.N,NET_C001_3V3*%
X76200000Y-152400000D03*
%TD*%
%TO.P,C001_R_220_PWR,1*%
%TO.N,NET_C001_3V3*%
X87630000Y-152400000D03*
%TO.P,C001_R_220_PWR,2*%
%TO.N,NET_C001_PWR_LED_A*%
X95250000Y-152400000D03*
%TD*%
%TO.P,C001_R_220_STATUS,1*%
%TO.N,NET_C001_STATUS_LED*%
X106680000Y-152400000D03*
%TO.P,C001_R_220_STATUS,2*%
%TO.N,NET_C001_LED_STATUS_A*%
X114300000Y-152400000D03*
%TD*%
%TO.P,C001_SCL_PULLUP,1*%
%TO.N,NET_C001_I2C_SCL*%
X125730000Y-152400000D03*
%TO.P,C001_SCL_PULLUP,2*%
%TO.N,NET_C001_3V3*%
X133350000Y-152400000D03*
%TD*%
%TO.P,C001_SDA_PULLUP,1*%
%TO.N,NET_C001_I2C_SDA*%
X144780000Y-152400000D03*
%TO.P,C001_SDA_PULLUP,2*%
%TO.N,NET_C001_3V3*%
X152400000Y-152400000D03*
%TD*%
D21*
%TO.N,NET_C001_SPI_MISO*%
X109220000Y-81280000D03*
X110490000Y-72390000D03*
%TO.N,NET_C001_ESP_EN*%
X13970000Y-66040000D03*
%TO.N,NET_C001_3V3*%
X132080000Y-125730000D03*
X58420000Y-129540000D03*
%TO.N,NET_C001_GND*%
X107950000Y-81280000D03*
X69850000Y-62230000D03*
X113030000Y-119380000D03*
X107950000Y-119380000D03*
X21590000Y-130810000D03*
%TO.N,NET_C001_I2C_SDA*%
X113030000Y-69850000D03*
X110490000Y-69850000D03*
%TO.N,NET_C001_ESP_BOOT*%
X133350000Y-82550000D03*
X106680000Y-80010000D03*
%TO.N,NET_C001_FLASH_HOLD*%
X34290000Y-132080000D03*
%TO.N,NET_C001_LED_STATUS_A*%
X130810000Y-148590000D03*
%TO.N,NET_C001_RTC_SQW*%
X15240000Y-135890000D03*
X16510000Y-71120000D03*
%TO.N,NET_C001_SPI_MOSI*%
X33020000Y-134620000D03*
X43180000Y-121920000D03*
X57150000Y-83820000D03*
X107950000Y-63500000D03*
%TO.N,NET_C001_STATUS_LED*%
X113030000Y-124460000D03*
X107950000Y-124460000D03*
X77470000Y-124460000D03*
X76200000Y-121920000D03*
%TD*%
%TO.N,NET_C001_FLASH_CS*%
D22*
X72250000Y-74300000D02*
X109960000Y-74300000D01*
X109960000Y-74300000D02*
X110490000Y-74930000D01*
X19115000Y-130175000D02*
X10160000Y-130175000D01*
X10160000Y-130175000D02*
X10160000Y-130810000D01*
X10160000Y-130810000D02*
X16510000Y-130810000D01*
X16510000Y-130810000D02*
X16510000Y-129540000D01*
X16510000Y-129540000D02*
X21590000Y-129540000D01*
X21590000Y-129540000D02*
X21590000Y-128270000D01*
X21590000Y-128270000D02*
X110490000Y-128270000D01*
X110490000Y-128270000D02*
X110490000Y-81280000D01*
X110490000Y-81280000D02*
X111760000Y-81280000D01*
X111760000Y-81280000D02*
X111760000Y-74930000D01*
X111760000Y-74930000D02*
X110490000Y-74930000D01*
%TO.N,NET_C001_FLASH_WP*%
X19115000Y-132715000D02*
X10160000Y-132715000D01*
X10160000Y-132715000D02*
X10160000Y-133350000D01*
X30480000Y-152400000D02*
X21590000Y-152400000D01*
X21590000Y-152400000D02*
X21590000Y-151130000D01*
X21590000Y-151130000D02*
X20320000Y-151130000D01*
X20320000Y-151130000D02*
X20320000Y-149860000D01*
X20320000Y-149860000D02*
X10160000Y-149860000D01*
X10160000Y-149860000D02*
X10160000Y-135890000D01*
X10160000Y-135890000D02*
X8890000Y-135890000D01*
X8890000Y-135890000D02*
X8890000Y-133350000D01*
X8890000Y-133350000D02*
X10160000Y-133350000D01*
%TO.N,NET_C001_SPI_MISO*%
X72250000Y-71760000D02*
X109960000Y-71760000D01*
X109960000Y-71760000D02*
X110490000Y-72390000D01*
X19115000Y-131445000D02*
X10160000Y-131445000D01*
X10160000Y-131445000D02*
X10160000Y-132080000D01*
X10160000Y-132080000D02*
X8890000Y-132080000D01*
X8890000Y-132080000D02*
X8890000Y-129540000D01*
X8890000Y-129540000D02*
X15240000Y-129540000D01*
X15240000Y-129540000D02*
X15240000Y-128270000D01*
X15240000Y-128270000D02*
X20320000Y-128270000D01*
X20320000Y-128270000D02*
X20320000Y-127000000D01*
X20320000Y-127000000D02*
X109220000Y-127000000D01*
X109220000Y-127000000D02*
X109220000Y-81280000D01*
%TO.N,NET_C001_SPI_SCK*%
X72250000Y-73030000D02*
X109960000Y-73030000D01*
X109960000Y-73030000D02*
X110490000Y-73660000D01*
X24065000Y-132715000D02*
X33800000Y-132715000D01*
X33800000Y-132715000D02*
X34290000Y-133350000D01*
X34290000Y-133350000D02*
X110490000Y-133350000D01*
X110490000Y-133350000D02*
X110490000Y-129540000D01*
X110490000Y-129540000D02*
X111760000Y-129540000D01*
X111760000Y-129540000D02*
X111760000Y-82550000D01*
X111760000Y-82550000D02*
X113030000Y-82550000D01*
X113030000Y-82550000D02*
X113030000Y-73660000D01*
X113030000Y-73660000D02*
X110490000Y-73660000D01*
%TO.N,NET_C001_ESP_EN*%
X54750000Y-65410000D02*
X15240000Y-65410000D01*
X15240000Y-65410000D02*
X15240000Y-66040000D01*
X13970000Y-66040000D02*
X15240000Y-66040000D01*
%TO.N,NET_C001_3V3*%
X54750000Y-64140000D02*
X15240000Y-64140000D01*
X15240000Y-64140000D02*
X15240000Y-64770000D01*
X15240000Y-64770000D02*
X12700000Y-64770000D01*
X12700000Y-64770000D02*
X12700000Y-67310000D01*
X12700000Y-67310000D02*
X13970000Y-67310000D01*
X13970000Y-67310000D02*
X13970000Y-81280000D01*
X13970000Y-81280000D02*
X55880000Y-81280000D01*
X55880000Y-81280000D02*
X55880000Y-82550000D01*
X55880000Y-82550000D02*
X58420000Y-82550000D01*
X58420000Y-82550000D02*
X58420000Y-97790000D01*
X58420000Y-97790000D02*
X72390000Y-97790000D01*
X72390000Y-97790000D02*
X72390000Y-123190000D01*
X58420000Y-123190000D02*
X58420000Y-121920000D01*
X58420000Y-121920000D02*
X59690000Y-121920000D01*
X59690000Y-121920000D02*
X59690000Y-120650000D01*
X59690000Y-120650000D02*
X72390000Y-120650000D01*
X129540000Y-12700000D02*
X132080000Y-12700000D01*
X132080000Y-12700000D02*
X132080000Y-125730000D01*
X24065000Y-130175000D02*
X33800000Y-130175000D01*
X33800000Y-130175000D02*
X34290000Y-130810000D01*
X34290000Y-130810000D02*
X58420000Y-130810000D01*
X58420000Y-130810000D02*
X58420000Y-129540000D01*
%TO.N,NET_C001_GND*%
X74890000Y-123190000D02*
X74930000Y-123190000D01*
X74930000Y-123190000D02*
X83820000Y-123190000D01*
X83820000Y-123190000D02*
X83820000Y-121920000D01*
X83820000Y-121920000D02*
X85090000Y-121920000D01*
X85090000Y-121920000D02*
X85090000Y-120650000D01*
X85090000Y-120650000D02*
X107950000Y-120650000D01*
X107950000Y-120650000D02*
X107950000Y-81280000D01*
X54750000Y-62870000D02*
X15240000Y-62870000D01*
X15240000Y-62870000D02*
X15240000Y-63500000D01*
X15240000Y-63500000D02*
X53340000Y-63500000D01*
X53340000Y-63500000D02*
X53340000Y-62230000D01*
X53340000Y-62230000D02*
X69850000Y-62230000D01*
X88860000Y-123190000D02*
X88900000Y-123190000D01*
X88900000Y-123190000D02*
X88900000Y-120650000D01*
X60920000Y-123190000D02*
X60960000Y-123190000D01*
X60960000Y-123190000D02*
X69850000Y-123190000D01*
X69850000Y-123190000D02*
X69850000Y-124460000D01*
X69850000Y-124460000D02*
X71120000Y-124460000D01*
X71120000Y-124460000D02*
X71120000Y-125730000D01*
X71120000Y-125730000D02*
X73660000Y-125730000D01*
X73660000Y-125730000D02*
X73660000Y-124460000D01*
X73660000Y-124460000D02*
X74930000Y-124460000D01*
X74930000Y-124460000D02*
X74930000Y-123190000D01*
X106680000Y-123190000D02*
X106680000Y-120650000D01*
X125730000Y-123190000D02*
X120650000Y-123190000D01*
X120650000Y-123190000D02*
X120650000Y-121920000D01*
X120650000Y-121920000D02*
X119380000Y-121920000D01*
X119380000Y-121920000D02*
X119380000Y-120650000D01*
X119380000Y-120650000D02*
X113030000Y-120650000D01*
X113030000Y-120650000D02*
X113030000Y-119380000D01*
X19115000Y-133985000D02*
X10160000Y-133985000D01*
X10160000Y-133985000D02*
X10160000Y-134620000D01*
X10160000Y-134620000D02*
X21590000Y-134620000D01*
X21590000Y-134620000D02*
X21590000Y-130810000D01*
X46950000Y-123190000D02*
X46990000Y-123190000D01*
X46990000Y-123190000D02*
X55880000Y-123190000D01*
X55880000Y-123190000D02*
X55880000Y-124460000D01*
X55880000Y-124460000D02*
X57150000Y-124460000D01*
X57150000Y-124460000D02*
X57150000Y-125730000D01*
X57150000Y-125730000D02*
X60960000Y-125730000D01*
X60960000Y-125730000D02*
X60960000Y-123190000D01*
%TO.N,NET_C001_I2C_SCL*%
X72250000Y-65410000D02*
X109960000Y-65410000D01*
X109960000Y-65410000D02*
X110490000Y-66040000D01*
X125730000Y-152400000D02*
X125730000Y-125730000D01*
X125730000Y-125730000D02*
X127000000Y-125730000D01*
X127000000Y-125730000D02*
X127000000Y-124460000D01*
X127000000Y-124460000D02*
X128270000Y-124460000D01*
X128270000Y-124460000D02*
X128270000Y-121920000D01*
X128270000Y-121920000D02*
X127000000Y-121920000D01*
X127000000Y-121920000D02*
X127000000Y-120650000D01*
X127000000Y-120650000D02*
X120650000Y-120650000D01*
X120650000Y-120650000D02*
X120650000Y-119380000D01*
X120650000Y-119380000D02*
X114300000Y-119380000D01*
X114300000Y-119380000D02*
X114300000Y-72390000D01*
X114300000Y-72390000D02*
X111760000Y-72390000D01*
X111760000Y-72390000D02*
X111760000Y-66040000D01*
X111760000Y-66040000D02*
X110490000Y-66040000D01*
X129540000Y-20320000D02*
X128270000Y-20320000D01*
X128270000Y-20320000D02*
X128270000Y-66040000D01*
X128270000Y-66040000D02*
X111760000Y-66040000D01*
%TO.N,NET_C001_I2C_SDA*%
X72250000Y-69220000D02*
X109960000Y-69220000D01*
X109960000Y-69220000D02*
X110490000Y-69850000D01*
X144780000Y-152400000D02*
X135890000Y-152400000D01*
X135890000Y-152400000D02*
X135890000Y-151130000D01*
X135890000Y-151130000D02*
X134620000Y-151130000D01*
X134620000Y-151130000D02*
X134620000Y-149860000D01*
X134620000Y-149860000D02*
X129540000Y-149860000D01*
X129540000Y-149860000D02*
X129540000Y-120650000D01*
X129540000Y-120650000D02*
X128270000Y-120650000D01*
X128270000Y-120650000D02*
X128270000Y-119380000D01*
X128270000Y-119380000D02*
X121920000Y-119380000D01*
X121920000Y-119380000D02*
X121920000Y-118110000D01*
X121920000Y-118110000D02*
X115570000Y-118110000D01*
X115570000Y-118110000D02*
X115570000Y-71120000D01*
X115570000Y-71120000D02*
X113030000Y-71120000D01*
X113030000Y-71120000D02*
X113030000Y-69850000D01*
%TO.N,NET_C001_ESP_BOOT*%
X72250000Y-79380000D02*
X109960000Y-79380000D01*
X109960000Y-79380000D02*
X110490000Y-80010000D01*
X137160000Y-123190000D02*
X133350000Y-123190000D01*
X133350000Y-123190000D02*
X133350000Y-82550000D01*
X106680000Y-80010000D02*
X110490000Y-80010000D01*
%TO.N,NET_C001_FLASH_HOLD*%
X24065000Y-131445000D02*
X33800000Y-131445000D01*
X33800000Y-131445000D02*
X34290000Y-132080000D01*
%TO.N,NET_C001_LED_STATUS_A*%
X144780000Y-13970000D02*
X144780000Y-16510000D01*
X144780000Y-16510000D02*
X139700000Y-16510000D01*
X139700000Y-16510000D02*
X139700000Y-124460000D01*
X139700000Y-124460000D02*
X138430000Y-124460000D01*
X138430000Y-124460000D02*
X138430000Y-125730000D01*
X138430000Y-125730000D02*
X133350000Y-125730000D01*
X133350000Y-125730000D02*
X133350000Y-127000000D01*
X133350000Y-127000000D02*
X130810000Y-127000000D01*
X130810000Y-127000000D02*
X130810000Y-148590000D01*
%TO.N,NET_C001_PWR_LED_A*%
X95250000Y-152400000D02*
X104140000Y-152400000D01*
X104140000Y-152400000D02*
X104140000Y-153670000D01*
X104140000Y-153670000D02*
X105410000Y-153670000D01*
X105410000Y-153670000D02*
X105410000Y-154940000D01*
X105410000Y-154940000D02*
X160020000Y-154940000D01*
X160020000Y-154940000D02*
X160020000Y-13970000D01*
%TO.N,NET_C001_RTC_SQW*%
X54750000Y-70490000D02*
X15240000Y-70490000D01*
X15240000Y-70490000D02*
X15240000Y-71120000D01*
X49530000Y-152400000D02*
X40640000Y-152400000D01*
X40640000Y-152400000D02*
X40640000Y-151130000D01*
X40640000Y-151130000D02*
X39370000Y-151130000D01*
X39370000Y-151130000D02*
X39370000Y-149860000D01*
X39370000Y-149860000D02*
X21590000Y-149860000D01*
X21590000Y-149860000D02*
X21590000Y-148590000D01*
X21590000Y-148590000D02*
X15240000Y-148590000D01*
X15240000Y-148590000D02*
X15240000Y-135890000D01*
X16510000Y-71120000D02*
X15240000Y-71120000D01*
%TO.N,NET_C001_SPI_MOSI*%
X72250000Y-64140000D02*
X109960000Y-64140000D01*
X109960000Y-64140000D02*
X110490000Y-64770000D01*
X24065000Y-133985000D02*
X33800000Y-133985000D01*
X33800000Y-133985000D02*
X34290000Y-134620000D01*
X34290000Y-134620000D02*
X33020000Y-134620000D01*
X43180000Y-121920000D02*
X43180000Y-120650000D01*
X43180000Y-120650000D02*
X57150000Y-120650000D01*
X57150000Y-120650000D02*
X57150000Y-83820000D01*
X107950000Y-63500000D02*
X110490000Y-63500000D01*
X110490000Y-63500000D02*
X110490000Y-64770000D01*
%TO.N,NET_C001_STATUS_LED*%
X69220000Y-80630000D02*
X69220000Y-96860000D01*
X69220000Y-96860000D02*
X69850000Y-96520000D01*
X106680000Y-152400000D02*
X106680000Y-134620000D01*
X106680000Y-134620000D02*
X111760000Y-134620000D01*
X111760000Y-134620000D02*
X111760000Y-130810000D01*
X111760000Y-130810000D02*
X113030000Y-130810000D01*
X113030000Y-130810000D02*
X113030000Y-124460000D01*
X107950000Y-124460000D02*
X107950000Y-125730000D01*
X107950000Y-125730000D02*
X77470000Y-125730000D01*
X77470000Y-125730000D02*
X77470000Y-124460000D01*
X76200000Y-121920000D02*
X76200000Y-120650000D01*
X76200000Y-120650000D02*
X73660000Y-120650000D01*
X73660000Y-120650000D02*
X73660000Y-96520000D01*
X73660000Y-96520000D02*
X69850000Y-96520000D01*
%TD*%
M02*
