%TF.GenerationSoftware,KiCad,Pcbnew,10.0.4*%
%TF.CreationDate,2026-07-11T23:02:05+05:00*%
%TF.ProjectId,OPEN_THIS_PROJECT__n01__COMBINATION,4f50454e-5f54-4484-9953-5f50524f4a45,rev?*%
%TF.SameCoordinates,Original*%
%TF.FileFunction,Soldermask,Top*%
%TF.FilePolarity,Negative*%
%FSLAX46Y46*%
G04 Gerber Fmt 4.6, Leading zero omitted, Abs format (unit mm)*
G04 Created by KiCad (PCBNEW 10.0.4) date 2026-07-11 23:02:05*
%MOMM*%
%LPD*%
G01*
G04 APERTURE LIST*
G04 Aperture macros list*
%AMRoundRect*
0 Rectangle with rounded corners*
0 $1 Rounding radius*
0 $2 $3 $4 $5 $6 $7 $8 $9 X,Y pos of 4 corners*
0 Add a 4 corners polygon primitive as box body*
4,1,4,$2,$3,$4,$5,$6,$7,$8,$9,$2,$3,0*
0 Add four circle primitives for the rounded corners*
1,1,$1+$1,$2,$3*
1,1,$1+$1,$4,$5*
1,1,$1+$1,$6,$7*
1,1,$1+$1,$8,$9*
0 Add four rect primitives between the rounded corners*
20,1,$1+$1,$2,$3,$4,$5,0*
20,1,$1+$1,$4,$5,$6,$7,0*
20,1,$1+$1,$6,$7,$8,$9,0*
20,1,$1+$1,$8,$9,$2,$3,0*%
G04 Aperture macros list end*
%ADD10R,1.500000X0.900000*%
%ADD11R,0.900000X1.500000*%
%ADD12C,0.600000*%
%ADD13R,4.200000X4.200000*%
%ADD14R,1.700000X1.700000*%
%ADD15C,1.700000*%
%ADD16R,1.800000X1.800000*%
%ADD17C,1.800000*%
%ADD18RoundRect,0.150000X-0.825000X-0.150000X0.825000X-0.150000X0.825000X0.150000X-0.825000X0.150000X0*%
%ADD19C,1.600000*%
G04 APERTURE END LIST*
D10*
%TO.C,C001_ESP32_WROOM*%
X54750000Y-62870000D03*
X54750000Y-64140000D03*
X54750000Y-65410000D03*
X54750000Y-66680000D03*
X54750000Y-67950000D03*
X54750000Y-69220000D03*
X54750000Y-70490000D03*
X54750000Y-71760000D03*
X54750000Y-73030000D03*
X54750000Y-74300000D03*
X54750000Y-75570000D03*
X54750000Y-76840000D03*
X54750000Y-78110000D03*
X54750000Y-79380000D03*
D11*
X57790000Y-80630000D03*
X59060000Y-80630000D03*
X60330000Y-80630000D03*
X61600000Y-80630000D03*
X62870000Y-80630000D03*
X64140000Y-80630000D03*
X65410000Y-80630000D03*
X66680000Y-80630000D03*
X67950000Y-80630000D03*
X69220000Y-80630000D03*
D10*
X72250000Y-79380000D03*
X72250000Y-78110000D03*
X72250000Y-76840000D03*
X72250000Y-75570000D03*
X72250000Y-74300000D03*
X72250000Y-73030000D03*
X72250000Y-71760000D03*
X72250000Y-70490000D03*
X72250000Y-69220000D03*
X72250000Y-67950000D03*
X72250000Y-66680000D03*
X72250000Y-65410000D03*
X72250000Y-64140000D03*
X72250000Y-62870000D03*
D12*
X61295000Y-69447500D03*
X61295000Y-70972500D03*
X62057500Y-68685000D03*
X62057500Y-70210000D03*
X62057500Y-71735000D03*
X62820000Y-69447500D03*
D13*
X62820000Y-70210000D03*
D12*
X62820000Y-70972500D03*
X63582500Y-68685000D03*
X63582500Y-70210000D03*
X63582500Y-71735000D03*
X64345000Y-69447500D03*
X64345000Y-70972500D03*
%TD*%
D14*
%TO.C,C001_I2C_HEADER*%
X129540000Y-12700000D03*
D15*
X129540000Y-15240000D03*
X129540000Y-17780000D03*
X129540000Y-20320000D03*
%TD*%
D16*
%TO.C,C001_LED_INDICATOR*%
X142240000Y-13970000D03*
D17*
X144780000Y-13970000D03*
%TD*%
D16*
%TO.C,C001_POWER_LED*%
X157480000Y-13970000D03*
D17*
X160020000Y-13970000D03*
%TD*%
D18*
%TO.C,C001_W25Q64*%
X19115000Y-130175000D03*
X19115000Y-131445000D03*
X19115000Y-132715000D03*
X19115000Y-133985000D03*
X24065000Y-133985000D03*
X24065000Y-132715000D03*
X24065000Y-131445000D03*
X24065000Y-130175000D03*
%TD*%
D19*
%TO.C,C001_C_100NF_FLASH*%
X44450000Y-123190000D03*
X46950000Y-123190000D03*
%TD*%
%TO.C,C001_DECOUPLING_CAPACITOR_ESP*%
X58420000Y-123190000D03*
X60920000Y-123190000D03*
%TD*%
%TO.C,C001_DECOUPLING_CAPACITOR_MAIN*%
X72390000Y-123190000D03*
X74890000Y-123190000D03*
%TD*%
%TO.C,C001_RESET_CAPACITOR*%
X86360000Y-123190000D03*
X88860000Y-123190000D03*
%TD*%
%TO.C,C001_RES_USB_CC1*%
X99060000Y-123190000D03*
X106680000Y-123190000D03*
%TD*%
%TO.C,C001_RES_USB_CC2*%
X118110000Y-123190000D03*
X125730000Y-123190000D03*
%TD*%
%TO.C,C001_R_10K_PULLUP_BOOT*%
X137160000Y-123190000D03*
X144780000Y-123190000D03*
%TD*%
%TO.C,C001_R_10K_PULLUP_EN*%
X156210000Y-123190000D03*
X163830000Y-123190000D03*
%TD*%
%TO.C,C001_R_10K_PULLUP_FLASH_HOLD*%
X11430000Y-152400000D03*
X19050000Y-152400000D03*
%TD*%
%TO.C,C001_R_10K_PULLUP_FLASH_WP*%
X30480000Y-152400000D03*
X38100000Y-152400000D03*
%TD*%
%TO.C,C001_R_10K_PULLUP_RTC*%
X49530000Y-152400000D03*
X57150000Y-152400000D03*
%TD*%
%TO.C,C001_R_10K_PULLUP_SD_CD*%
X68580000Y-152400000D03*
X76200000Y-152400000D03*
%TD*%
%TO.C,C001_R_220_PWR*%
X87630000Y-152400000D03*
X95250000Y-152400000D03*
%TD*%
%TO.C,C001_R_220_STATUS*%
X106680000Y-152400000D03*
X114300000Y-152400000D03*
%TD*%
%TO.C,C001_SCL_PULLUP*%
X125730000Y-152400000D03*
X133350000Y-152400000D03*
%TD*%
%TO.C,C001_SDA_PULLUP*%
X144780000Y-152400000D03*
X152400000Y-152400000D03*
%TD*%
M02*
