%TF.GenerationSoftware,KiCad,Pcbnew,10.0.4*%
%TF.CreationDate,2026-07-11T23:02:12+05:00*%
%TF.ProjectId,OPEN_THIS_PROJECT__n20__COMBINATION,4f50454e-5f54-4484-9953-5f50524f4a45,rev?*%
%TF.SameCoordinates,Original*%
%TF.FileFunction,Copper,L1,Top*%
%TF.FilePolarity,Positive*%
%FSLAX46Y46*%
G04 Gerber Fmt 4.6, Leading zero omitted, Abs format (unit mm)*
G04 Created by KiCad (PCBNEW 10.0.4) date 2026-07-11 23:02:12*
%MOMM*%
%LPD*%
G01*
G04 APERTURE LIST*
G04 Aperture macros list*
%AMRoundRect*
0 Rectangle with rounded corners*
0 $1 Rounding radius*
0 $2 $3 $4 $5 $6 $7 $8 $9 X,Y pos of 4 corners*
0 Add a 4 corners polygon primitive as box body*
4,1,4,$2,$3,$4,$5,$6,$7,$8,$9,$2,$3,0*
0 Add four circle primitives for the rounded corners*
1,1,$1+$1,$2,$3*
1,1,$1+$1,$4,$5*
1,1,$1+$1,$6,$7*
1,1,$1+$1,$8,$9*
0 Add four rect primitives between the rounded corners*
20,1,$1+$1,$2,$3,$4,$5,0*
20,1,$1+$1,$4,$5,$6,$7,0*
20,1,$1+$1,$6,$7,$8,$9,0*
20,1,$1+$1,$8,$9,$2,$3,0*%
G04 Aperture macros list end*
%TA.AperFunction,ComponentPad*%
%ADD10R,1.700000X1.700000*%
%TD*%
%TA.AperFunction,ComponentPad*%
%ADD11C,1.700000*%
%TD*%
%TA.AperFunction,ComponentPad*%
%ADD12RoundRect,0.250000X-0.550000X-0.550000X0.550000X-0.550000X0.550000X0.550000X-0.550000X0.550000X0*%
%TD*%
%TA.AperFunction,ComponentPad*%
%ADD13C,1.600000*%
%TD*%
%TA.AperFunction,ComponentPad*%
%ADD14R,1.800000X1.800000*%
%TD*%
%TA.AperFunction,ComponentPad*%
%ADD15C,1.800000*%
%TD*%
%TA.AperFunction,ViaPad*%
%ADD16C,0.800000*%
%TD*%
%TA.AperFunction,Conductor*%
%ADD17C,0.250000*%
%TD*%
G04 APERTURE END LIST*
D10*
%TO.P,C020_PIN_HEADER,1*%
%TO.N,NET_C020_SINE_IN*%
X12700000Y-12700000D03*
D11*
%TO.P,C020_PIN_HEADER,2*%
%TO.N,NET_C020_BUF1_FB*%
X12700000Y-15240000D03*
%TO.P,C020_PIN_HEADER,3*%
%TO.N,NET_C020_BUF2_FB*%
X12700000Y-17780000D03*
%TO.P,C020_PIN_HEADER,4*%
%TO.N,NET_C020_TIA_OUT*%
X12700000Y-20320000D03*
%TO.P,C020_PIN_HEADER,5*%
%TO.N,NET_C020_COMP_SINE*%
X12700000Y-22860000D03*
%TO.P,C020_PIN_HEADER,6*%
%TO.N,NET_C020_COMP_TIA*%
X12700000Y-25400000D03*
%TO.P,C020_PIN_HEADER,7*%
%TO.N,NET_C020_CLOCK_OUT*%
X12700000Y-27940000D03*
%TO.P,C020_PIN_HEADER,8*%
%TO.N,NET_C020_GND*%
X12700000Y-30480000D03*
%TD*%
D12*
%TO.P,C020_LM358,1*%
%TO.N,NET_C020_BUF1_FB*%
X24130000Y-12700000D03*
D13*
%TO.P,C020_LM358,2*%
X24130000Y-15240000D03*
%TO.P,C020_LM358,3*%
%TO.N,NET_C020_SINE_IN*%
X24130000Y-17780000D03*
%TO.P,C020_LM358,4*%
%TO.N,NET_C020_GND*%
X24130000Y-20320000D03*
%TO.P,C020_LM358,5*%
%TO.N,NET_C020_PULSE_IN*%
X31750000Y-20320000D03*
%TO.P,C020_LM358,6*%
%TO.N,NET_C020_BUF2_FB*%
X31750000Y-17780000D03*
%TO.P,C020_LM358,7*%
X31750000Y-15240000D03*
%TO.P,C020_LM358,8*%
%TO.N,NET_C020_5V*%
X31750000Y-12700000D03*
%TD*%
D12*
%TO.P,C020_OPAMP,1*%
%TO.N,N/C*%
X43180000Y-12700000D03*
D13*
%TO.P,C020_OPAMP,2*%
%TO.N,NET_C020_TRANSIMPEDANCE_NODE*%
X43180000Y-15240000D03*
%TO.P,C020_OPAMP,3*%
%TO.N,NET_C020_CURRENT_SRC*%
X43180000Y-17780000D03*
%TO.P,C020_OPAMP,4*%
%TO.N,NET_C020_GND*%
X43180000Y-20320000D03*
%TO.P,C020_OPAMP,5*%
%TO.N,N/C*%
X50800000Y-20320000D03*
%TO.P,C020_OPAMP,6*%
%TO.N,NET_C020_TIA_OUT*%
X50800000Y-17780000D03*
%TO.P,C020_OPAMP,7*%
%TO.N,NET_C020_5V*%
X50800000Y-15240000D03*
%TO.P,C020_OPAMP,8*%
%TO.N,N/C*%
X50800000Y-12700000D03*
%TD*%
D14*
%TO.P,C020_LED_INDICATOR_CLOCK_OUT,1*%
%TO.N,NET_C020_GND*%
X63500000Y-13970000D03*
D15*
%TO.P,C020_LED_INDICATOR_CLOCK_OUT,2*%
%TO.N,NET_C020_CLOCK_OUT_LED_A*%
X66040000Y-13970000D03*
%TD*%
D14*
%TO.P,C020_LED_INDICATOR_COMP_SINE,1*%
%TO.N,NET_C020_GND*%
X78740000Y-13970000D03*
D15*
%TO.P,C020_LED_INDICATOR_COMP_SINE,2*%
%TO.N,NET_C020_COMP_SINE_LED_A*%
X81280000Y-13970000D03*
%TD*%
D14*
%TO.P,C020_LED_INDICATOR_COMP_TIA,1*%
%TO.N,NET_C020_GND*%
X12700000Y-44450000D03*
D15*
%TO.P,C020_LED_INDICATOR_COMP_TIA,2*%
%TO.N,NET_C020_COMP_TIA_LED_A*%
X15240000Y-44450000D03*
%TD*%
D14*
%TO.P,C020_POWER_LED,1*%
%TO.N,NET_C020_GND*%
X27940000Y-44450000D03*
D15*
%TO.P,C020_POWER_LED,2*%
%TO.N,NET_C020_PWR_LED_A*%
X30480000Y-44450000D03*
%TD*%
D13*
%TO.P,C020_CAP,1*%
%TO.N,NET_C020_TIA_OUT*%
X43180000Y-43180000D03*
%TO.P,C020_CAP,2*%
%TO.N,NET_C020_TRANSIMPEDANCE_NODE*%
X45680000Y-43180000D03*
%TD*%
%TO.P,C020_CAPACITOR,1*%
%TO.N,NET_C020_DISCH555*%
X57150000Y-43180000D03*
%TO.P,C020_CAPACITOR,2*%
%TO.N,NET_C020_GND*%
X59650000Y-43180000D03*
%TD*%
%TO.P,C020_C_100NF_CERAMIC,1*%
%TO.N,NET_C020_CTRL555*%
X71120000Y-43180000D03*
%TO.P,C020_C_100NF_CERAMIC,2*%
%TO.N,NET_C020_GND*%
X73620000Y-43180000D03*
%TD*%
%TO.P,C020_DECOUPLING_CAPACITOR_MAIN,1*%
%TO.N,NET_C020_5V*%
X85090000Y-43180000D03*
%TO.P,C020_DECOUPLING_CAPACITOR_MAIN,2*%
%TO.N,NET_C020_GND*%
X87590000Y-43180000D03*
%TD*%
%TO.P,C020_FEEDBACK_RESISTOR,1*%
%TO.N,NET_C020_TIA_OUT*%
X11430000Y-58420000D03*
%TO.P,C020_FEEDBACK_RESISTOR,2*%
%TO.N,NET_C020_TRANSIMPEDANCE_NODE*%
X19050000Y-58420000D03*
%TD*%
%TO.P,C020_RESISTOR,1*%
%TO.N,NET_C020_5V*%
X30480000Y-58420000D03*
%TO.P,C020_RESISTOR,2*%
%TO.N,NET_C020_DISCH555*%
X38100000Y-58420000D03*
%TD*%
%TO.P,C020_R_10K_PULLUP_COMP1,1*%
%TO.N,NET_C020_COMP_SINE*%
X49530000Y-58420000D03*
%TO.P,C020_R_10K_PULLUP_COMP1,2*%
%TO.N,NET_C020_5V*%
X57150000Y-58420000D03*
%TD*%
%TO.P,C020_R_10K_PULLUP_COMP2,1*%
%TO.N,NET_C020_COMP_TIA*%
X68580000Y-58420000D03*
%TO.P,C020_R_10K_PULLUP_COMP2,2*%
%TO.N,NET_C020_5V*%
X76200000Y-58420000D03*
%TD*%
%TO.P,C020_R_220_CLOCK_OUT,1*%
%TO.N,NET_C020_CLOCK_OUT*%
X11430000Y-69850000D03*
%TO.P,C020_R_220_CLOCK_OUT,2*%
%TO.N,NET_C020_CLOCK_OUT_LED_A*%
X19050000Y-69850000D03*
%TD*%
%TO.P,C020_R_220_COMP_SINE,1*%
%TO.N,NET_C020_COMP_SINE*%
X30480000Y-69850000D03*
%TO.P,C020_R_220_COMP_SINE,2*%
%TO.N,NET_C020_COMP_SINE_LED_A*%
X38100000Y-69850000D03*
%TD*%
%TO.P,C020_R_220_COMP_TIA,1*%
%TO.N,NET_C020_COMP_TIA*%
X49530000Y-69850000D03*
%TO.P,C020_R_220_COMP_TIA,2*%
%TO.N,NET_C020_COMP_TIA_LED_A*%
X57150000Y-69850000D03*
%TD*%
%TO.P,C020_R_220_PWR,1*%
%TO.N,NET_C020_5V*%
X68580000Y-69850000D03*
%TO.P,C020_R_220_PWR,2*%
%TO.N,NET_C020_PWR_LED_A*%
X76200000Y-69850000D03*
%TD*%
D16*
%TO.N,NET_C020_COMP_TIA*%
X26670000Y-29210000D03*
X67310000Y-44450000D03*
%TO.N,NET_C020_TRANSIMPEDANCE_NODE*%
X26670000Y-49530000D03*
%TO.N,NET_C020_CLOCK_OUT_LED_A*%
X52070000Y-54610000D03*
X50800000Y-59690000D03*
%TO.N,NET_C020_COMP_SINE_LED_A*%
X80010000Y-44450000D03*
%TO.N,NET_C020_DISCH555*%
X46990000Y-44450000D03*
X38100000Y-53340000D03*
%TO.N,NET_C020_PWR_LED_A*%
X34290000Y-46990000D03*
%TD*%
%TO.N,NET_C020_GND*%
D17*
X24130000Y-20320000D02*
X27940000Y-20320000D01*
X27940000Y-20320000D02*
X27940000Y-44450000D01*
X43180000Y-20320000D02*
X34290000Y-20320000D01*
X34290000Y-20320000D02*
X34290000Y-21590000D01*
X34290000Y-21590000D02*
X33020000Y-21590000D01*
X33020000Y-21590000D02*
X33020000Y-22860000D01*
X33020000Y-22860000D02*
X27940000Y-22860000D01*
X12700000Y-30480000D02*
X27940000Y-30480000D01*
X12700000Y-44450000D02*
X12700000Y-30480000D01*
%TO.N,NET_C020_5V*%
X85090000Y-43180000D02*
X76200000Y-43180000D01*
X76200000Y-43180000D02*
X76200000Y-44450000D01*
X76200000Y-44450000D02*
X74930000Y-44450000D01*
X74930000Y-44450000D02*
X74930000Y-45720000D01*
X74930000Y-45720000D02*
X71120000Y-45720000D01*
X71120000Y-45720000D02*
X71120000Y-59690000D01*
X71120000Y-59690000D02*
X69850000Y-59690000D01*
X69850000Y-59690000D02*
X69850000Y-60960000D01*
X69850000Y-60960000D02*
X68580000Y-60960000D01*
X68580000Y-60960000D02*
X68580000Y-69850000D01*
X31750000Y-12700000D02*
X40640000Y-12700000D01*
X40640000Y-12700000D02*
X40640000Y-11430000D01*
X40640000Y-11430000D02*
X41910000Y-11430000D01*
X41910000Y-11430000D02*
X41910000Y-10160000D01*
X41910000Y-10160000D02*
X68580000Y-10160000D01*
X68580000Y-10160000D02*
X68580000Y-44450000D01*
X68580000Y-44450000D02*
X69850000Y-44450000D01*
X69850000Y-44450000D02*
X69850000Y-45720000D01*
X69850000Y-45720000D02*
X71120000Y-45720000D01*
X50800000Y-15240000D02*
X48260000Y-15240000D01*
X48260000Y-15240000D02*
X48260000Y-10160000D01*
X57150000Y-58420000D02*
X66040000Y-58420000D01*
X66040000Y-58420000D02*
X66040000Y-59690000D01*
X66040000Y-59690000D02*
X67310000Y-59690000D01*
X67310000Y-59690000D02*
X67310000Y-60960000D01*
X67310000Y-60960000D02*
X68580000Y-60960000D01*
X76200000Y-58420000D02*
X71120000Y-58420000D01*
X30480000Y-58420000D02*
X35560000Y-58420000D01*
X35560000Y-58420000D02*
X35560000Y-57150000D01*
X35560000Y-57150000D02*
X36830000Y-57150000D01*
X36830000Y-57150000D02*
X36830000Y-55880000D01*
X36830000Y-55880000D02*
X57150000Y-55880000D01*
X57150000Y-55880000D02*
X57150000Y-58420000D01*
%TO.N,NET_C020_TIA_OUT*%
X11430000Y-58420000D02*
X16510000Y-58420000D01*
X16510000Y-58420000D02*
X16510000Y-57150000D01*
X16510000Y-57150000D02*
X17780000Y-57150000D01*
X17780000Y-57150000D02*
X17780000Y-55880000D01*
X17780000Y-55880000D02*
X35560000Y-55880000D01*
X35560000Y-55880000D02*
X35560000Y-54610000D01*
X35560000Y-54610000D02*
X48260000Y-54610000D01*
X48260000Y-54610000D02*
X48260000Y-19050000D01*
X48260000Y-19050000D02*
X49530000Y-19050000D01*
X49530000Y-19050000D02*
X49530000Y-17780000D01*
X49530000Y-17780000D02*
X50800000Y-17780000D01*
X43180000Y-43180000D02*
X43180000Y-41910000D01*
X43180000Y-41910000D02*
X44450000Y-41910000D01*
X44450000Y-41910000D02*
X44450000Y-40640000D01*
X44450000Y-40640000D02*
X48260000Y-40640000D01*
X12700000Y-20320000D02*
X10160000Y-20320000D01*
X10160000Y-20320000D02*
X10160000Y-46990000D01*
X10160000Y-46990000D02*
X11430000Y-46990000D01*
X11430000Y-46990000D02*
X11430000Y-58420000D01*
%TO.N,NET_C020_BUF1_FB*%
X24130000Y-15240000D02*
X24130000Y-12700000D01*
X12700000Y-15240000D02*
X24130000Y-15240000D01*
%TO.N,NET_C020_COMP_TIA*%
X12700000Y-25400000D02*
X26670000Y-25400000D01*
X26670000Y-25400000D02*
X26670000Y-29210000D01*
X67310000Y-44450000D02*
X67310000Y-45720000D01*
X67310000Y-45720000D02*
X68580000Y-45720000D01*
X68580000Y-45720000D02*
X68580000Y-58420000D01*
%TO.N,NET_C020_TRANSIMPEDANCE_NODE*%
X26670000Y-49530000D02*
X40640000Y-49530000D01*
X40640000Y-49530000D02*
X40640000Y-41910000D01*
X40640000Y-41910000D02*
X41910000Y-41910000D01*
X41910000Y-41910000D02*
X41910000Y-40640000D01*
X41910000Y-40640000D02*
X43180000Y-40640000D01*
X43180000Y-40640000D02*
X43180000Y-22860000D01*
X43180000Y-22860000D02*
X44450000Y-22860000D01*
X44450000Y-22860000D02*
X44450000Y-21590000D01*
X44450000Y-21590000D02*
X45720000Y-21590000D01*
X45720000Y-21590000D02*
X45720000Y-16510000D01*
X45720000Y-16510000D02*
X44450000Y-16510000D01*
X44450000Y-16510000D02*
X44450000Y-15240000D01*
X44450000Y-15240000D02*
X43180000Y-15240000D01*
X45680000Y-43180000D02*
X45720000Y-43180000D01*
X45720000Y-43180000D02*
X45720000Y-44450000D01*
X45720000Y-44450000D02*
X44450000Y-44450000D01*
X44450000Y-44450000D02*
X44450000Y-45720000D01*
X44450000Y-45720000D02*
X40640000Y-45720000D01*
%TO.N,NET_C020_CLOCK_OUT_LED_A*%
X66040000Y-13970000D02*
X66040000Y-16510000D01*
X66040000Y-16510000D02*
X53340000Y-16510000D01*
X53340000Y-16510000D02*
X53340000Y-21590000D01*
X53340000Y-21590000D02*
X52070000Y-21590000D01*
X52070000Y-21590000D02*
X52070000Y-54610000D01*
X50800000Y-59690000D02*
X50800000Y-60960000D01*
X50800000Y-60960000D02*
X19050000Y-60960000D01*
X19050000Y-60960000D02*
X19050000Y-69850000D01*
%TO.N,NET_C020_COMP_SINE_LED_A*%
X80010000Y-44450000D02*
X78740000Y-44450000D01*
X78740000Y-44450000D02*
X78740000Y-59690000D01*
X78740000Y-59690000D02*
X77470000Y-59690000D01*
X77470000Y-59690000D02*
X77470000Y-60960000D01*
X77470000Y-60960000D02*
X71120000Y-60960000D01*
X71120000Y-60960000D02*
X71120000Y-71120000D01*
X71120000Y-71120000D02*
X69850000Y-71120000D01*
X69850000Y-71120000D02*
X69850000Y-72390000D01*
X69850000Y-72390000D02*
X38100000Y-72390000D01*
X38100000Y-72390000D02*
X38100000Y-69850000D01*
%TO.N,NET_C020_DISCH555*%
X46990000Y-44450000D02*
X46990000Y-45720000D01*
X46990000Y-45720000D02*
X45720000Y-45720000D01*
X45720000Y-45720000D02*
X45720000Y-46990000D01*
X45720000Y-46990000D02*
X41910000Y-46990000D01*
X41910000Y-46990000D02*
X41910000Y-50800000D01*
X41910000Y-50800000D02*
X38100000Y-50800000D01*
X38100000Y-50800000D02*
X38100000Y-53340000D01*
%TO.N,NET_C020_PWR_LED_A*%
X34290000Y-46990000D02*
X30480000Y-46990000D01*
X30480000Y-46990000D02*
X30480000Y-44450000D01*
%TD*%
M02*
