%TF.GenerationSoftware,KiCad,Pcbnew,10.0.4*%
%TF.CreationDate,2026-07-11T23:02:12+05:00*%
%TF.ProjectId,OPEN_THIS_PROJECT__n20__COMBINATION,4f50454e-5f54-4484-9953-5f50524f4a45,rev?*%
%TF.SameCoordinates,Original*%
%TF.FileFunction,Legend,Top*%
%TF.FilePolarity,Positive*%
%FSLAX46Y46*%
G04 Gerber Fmt 4.6, Leading zero omitted, Abs format (unit mm)*
G04 Created by KiCad (PCBNEW 10.0.4) date 2026-07-11 23:02:12*
%MOMM*%
%LPD*%
G01*
G04 APERTURE LIST*
%ADD10C,0.120000*%
G04 APERTURE END LIST*
%TO.C,C020_PIN_HEADER*%
D10*
X11320000Y-11320000D02*
X12700000Y-11320000D01*
X11320000Y-12700000D02*
X11320000Y-11320000D01*
X11320000Y-13970000D02*
X11320000Y-31860000D01*
X11320000Y-13970000D02*
X14080000Y-13970000D01*
X11320000Y-31860000D02*
X14080000Y-31860000D01*
X14080000Y-13970000D02*
X14080000Y-31860000D01*
%TO.C,C020_LM358*%
X25290000Y-11370000D02*
X25290000Y-21650000D01*
X25290000Y-21650000D02*
X30590000Y-21650000D01*
X26940000Y-11370000D02*
X25290000Y-11370000D01*
X30590000Y-11370000D02*
X28940000Y-11370000D01*
X30590000Y-21650000D02*
X30590000Y-11370000D01*
X28940000Y-11370000D02*
G75*
G02*
X26940000Y-11370000I-1000000J0D01*
G01*
%TO.C,C020_OPAMP*%
X44340000Y-11370000D02*
X44340000Y-21650000D01*
X44340000Y-21650000D02*
X49640000Y-21650000D01*
X45990000Y-11370000D02*
X44340000Y-11370000D01*
X49640000Y-11370000D02*
X47990000Y-11370000D01*
X49640000Y-21650000D02*
X49640000Y-11370000D01*
X47990000Y-11370000D02*
G75*
G02*
X45990000Y-11370000I-1000000J0D01*
G01*
%TO.C,C020_LED_INDICATOR_CLOCK_OUT*%
X62210000Y-12425000D02*
X62210000Y-15515000D01*
X62210000Y-12425170D02*
G75*
G02*
X67760000Y-13970000I2560000J-1544830D01*
G01*
X67760000Y-13970000D02*
G75*
G02*
X62210000Y-15514830I-2990000J0D01*
G01*
X67270000Y-13970000D02*
G75*
G02*
X62270000Y-13970000I-2500000J0D01*
G01*
X62270000Y-13970000D02*
G75*
G02*
X67270000Y-13970000I2500000J0D01*
G01*
%TO.C,C020_LED_INDICATOR_COMP_SINE*%
X77450000Y-12425000D02*
X77450000Y-15515000D01*
X77450000Y-12425170D02*
G75*
G02*
X83000000Y-13970000I2560000J-1544830D01*
G01*
X83000000Y-13970000D02*
G75*
G02*
X77450000Y-15514830I-2990000J0D01*
G01*
X82510000Y-13970000D02*
G75*
G02*
X77510000Y-13970000I-2500000J0D01*
G01*
X77510000Y-13970000D02*
G75*
G02*
X82510000Y-13970000I2500000J0D01*
G01*
%TO.C,C020_LED_INDICATOR_COMP_TIA*%
X11410000Y-42905000D02*
X11410000Y-45995000D01*
X11410000Y-42905170D02*
G75*
G02*
X16960000Y-44450000I2560000J-1544830D01*
G01*
X16960000Y-44450000D02*
G75*
G02*
X11410000Y-45994830I-2990000J0D01*
G01*
X16470000Y-44450000D02*
G75*
G02*
X11470000Y-44450000I-2500000J0D01*
G01*
X11470000Y-44450000D02*
G75*
G02*
X16470000Y-44450000I2500000J0D01*
G01*
%TO.C,C020_POWER_LED*%
X26650000Y-42905000D02*
X26650000Y-45995000D01*
X26650000Y-42905170D02*
G75*
G02*
X32200000Y-44450000I2560000J-1544830D01*
G01*
X32200000Y-44450000D02*
G75*
G02*
X26650000Y-45994830I-2990000J0D01*
G01*
X31710000Y-44450000D02*
G75*
G02*
X26710000Y-44450000I-2500000J0D01*
G01*
X26710000Y-44450000D02*
G75*
G02*
X31710000Y-44450000I2500000J0D01*
G01*
%TO.C,C020_CAP*%
X41810000Y-41810000D02*
X47050000Y-41810000D01*
X41810000Y-44550000D02*
X41810000Y-41810000D01*
X47050000Y-41810000D02*
X47050000Y-44550000D01*
X47050000Y-44550000D02*
X41810000Y-44550000D01*
%TO.C,C020_CAPACITOR*%
X55780000Y-41810000D02*
X61020000Y-41810000D01*
X55780000Y-44550000D02*
X55780000Y-41810000D01*
X61020000Y-41810000D02*
X61020000Y-44550000D01*
X61020000Y-44550000D02*
X55780000Y-44550000D01*
%TO.C,C020_C_100NF_CERAMIC*%
X69750000Y-41810000D02*
X74990000Y-41810000D01*
X69750000Y-44550000D02*
X69750000Y-41810000D01*
X74990000Y-41810000D02*
X74990000Y-44550000D01*
X74990000Y-44550000D02*
X69750000Y-44550000D01*
%TO.C,C020_DECOUPLING_CAPACITOR_MAIN*%
X83720000Y-41810000D02*
X88960000Y-41810000D01*
X83720000Y-44550000D02*
X83720000Y-41810000D01*
X88960000Y-41810000D02*
X88960000Y-44550000D01*
X88960000Y-44550000D02*
X83720000Y-44550000D01*
%TO.C,C020_FEEDBACK_RESISTOR*%
X11970000Y-57050000D02*
X18510000Y-57050000D01*
X11970000Y-57380000D02*
X11970000Y-57050000D01*
X11970000Y-59460000D02*
X11970000Y-59790000D01*
X11970000Y-59790000D02*
X18510000Y-59790000D01*
X18510000Y-57050000D02*
X18510000Y-57380000D01*
X18510000Y-59790000D02*
X18510000Y-59460000D01*
%TO.C,C020_RESISTOR*%
X31020000Y-57050000D02*
X37560000Y-57050000D01*
X31020000Y-57380000D02*
X31020000Y-57050000D01*
X31020000Y-59460000D02*
X31020000Y-59790000D01*
X31020000Y-59790000D02*
X37560000Y-59790000D01*
X37560000Y-57050000D02*
X37560000Y-57380000D01*
X37560000Y-59790000D02*
X37560000Y-59460000D01*
%TO.C,C020_R_10K_PULLUP_COMP1*%
X50070000Y-57050000D02*
X56610000Y-57050000D01*
X50070000Y-57380000D02*
X50070000Y-57050000D01*
X50070000Y-59460000D02*
X50070000Y-59790000D01*
X50070000Y-59790000D02*
X56610000Y-59790000D01*
X56610000Y-57050000D02*
X56610000Y-57380000D01*
X56610000Y-59790000D02*
X56610000Y-59460000D01*
%TO.C,C020_R_10K_PULLUP_COMP2*%
X69120000Y-57050000D02*
X75660000Y-57050000D01*
X69120000Y-57380000D02*
X69120000Y-57050000D01*
X69120000Y-59460000D02*
X69120000Y-59790000D01*
X69120000Y-59790000D02*
X75660000Y-59790000D01*
X75660000Y-57050000D02*
X75660000Y-57380000D01*
X75660000Y-59790000D02*
X75660000Y-59460000D01*
%TO.C,C020_R_220_CLOCK_OUT*%
X11970000Y-68480000D02*
X18510000Y-68480000D01*
X11970000Y-68810000D02*
X11970000Y-68480000D01*
X11970000Y-70890000D02*
X11970000Y-71220000D01*
X11970000Y-71220000D02*
X18510000Y-71220000D01*
X18510000Y-68480000D02*
X18510000Y-68810000D01*
X18510000Y-71220000D02*
X18510000Y-70890000D01*
%TO.C,C020_R_220_COMP_SINE*%
X31020000Y-68480000D02*
X37560000Y-68480000D01*
X31020000Y-68810000D02*
X31020000Y-68480000D01*
X31020000Y-70890000D02*
X31020000Y-71220000D01*
X31020000Y-71220000D02*
X37560000Y-71220000D01*
X37560000Y-68480000D02*
X37560000Y-68810000D01*
X37560000Y-71220000D02*
X37560000Y-70890000D01*
%TO.C,C020_R_220_COMP_TIA*%
X50070000Y-68480000D02*
X56610000Y-68480000D01*
X50070000Y-68810000D02*
X50070000Y-68480000D01*
X50070000Y-70890000D02*
X50070000Y-71220000D01*
X50070000Y-71220000D02*
X56610000Y-71220000D01*
X56610000Y-68480000D02*
X56610000Y-68810000D01*
X56610000Y-71220000D02*
X56610000Y-70890000D01*
%TO.C,C020_R_220_PWR*%
X69120000Y-68480000D02*
X75660000Y-68480000D01*
X69120000Y-68810000D02*
X69120000Y-68480000D01*
X69120000Y-70890000D02*
X69120000Y-71220000D01*
X69120000Y-71220000D02*
X75660000Y-71220000D01*
X75660000Y-68480000D02*
X75660000Y-68810000D01*
X75660000Y-71220000D02*
X75660000Y-70890000D01*
%TD*%
M02*
