%TF.GenerationSoftware,KiCad,Pcbnew,10.0.4*%
%TF.CreationDate,2026-07-11T23:02:02+05:00*%
%TF.ProjectId,OPEN_THIS_PROJECT__mj002__COMBINATION,4f50454e-5f54-4484-9953-5f50524f4a45,rev?*%
%TF.SameCoordinates,Original*%
%TF.FileFunction,Soldermask,Top*%
%TF.FilePolarity,Negative*%
%FSLAX46Y46*%
G04 Gerber Fmt 4.6, Leading zero omitted, Abs format (unit mm)*
G04 Created by KiCad (PCBNEW 10.0.4) date 2026-07-11 23:02:02*
%MOMM*%
%LPD*%
G01*
G04 APERTURE LIST*
G04 Aperture macros list*
%AMRoundRect*
0 Rectangle with rounded corners*
0 $1 Rounding radius*
0 $2 $3 $4 $5 $6 $7 $8 $9 X,Y pos of 4 corners*
0 Add a 4 corners polygon primitive as box body*
4,1,4,$2,$3,$4,$5,$6,$7,$8,$9,$2,$3,0*
0 Add four circle primitives for the rounded corners*
1,1,$1+$1,$2,$3*
1,1,$1+$1,$4,$5*
1,1,$1+$1,$6,$7*
1,1,$1+$1,$8,$9*
0 Add four rect primitives between the rounded corners*
20,1,$1+$1,$2,$3,$4,$5,0*
20,1,$1+$1,$4,$5,$6,$7,0*
20,1,$1+$1,$6,$7,$8,$9,0*
20,1,$1+$1,$8,$9,$2,$3,0*%
G04 Aperture macros list end*
%ADD10RoundRect,0.249999X-1.250001X-1.250001X1.250001X-1.250001X1.250001X1.250001X-1.250001X1.250001X0*%
%ADD11C,3.000000*%
%ADD12R,1.800000X1.800000*%
%ADD13C,1.800000*%
%ADD14R,1.905000X2.000000*%
%ADD15O,1.905000X2.000000*%
%ADD16RoundRect,0.249999X-0.850001X-0.850001X0.850001X-0.850001X0.850001X0.850001X-0.850001X0.850001X0*%
%ADD17C,2.200000*%
%ADD18C,1.600000*%
%ADD19RoundRect,0.250000X-0.550000X-0.550000X0.550000X-0.550000X0.550000X0.550000X-0.550000X0.550000X0*%
G04 APERTURE END LIST*
D10*
%TO.C,B1_J2*%
X13970000Y-16510000D03*
D11*
X18970000Y-16510000D03*
%TD*%
D12*
%TO.C,B1_D2*%
X33020000Y-13970000D03*
D13*
X35560000Y-13970000D03*
%TD*%
D14*
%TO.C,B1_U1*%
X49530000Y-13970000D03*
D15*
X52070000Y-13970000D03*
X54610000Y-13970000D03*
%TD*%
D16*
%TO.C,B1_D1*%
X66040000Y-12700000D03*
D17*
X76200000Y-12700000D03*
%TD*%
D18*
%TO.C,B1_C2*%
X88900000Y-12700000D03*
X91400000Y-12700000D03*
%TD*%
%TO.C,B1_C4*%
X102870000Y-12700000D03*
X105370000Y-12700000D03*
%TD*%
%TO.C,B1_C5*%
X12700000Y-31750000D03*
X15200000Y-31750000D03*
%TD*%
%TO.C,B1_R1*%
X25400000Y-31750000D03*
X33020000Y-31750000D03*
%TD*%
D19*
%TO.C,B1_C1*%
X41910000Y-29210000D03*
D18*
X44410000Y-29210000D03*
%TD*%
D19*
%TO.C,B1_C3*%
X54610000Y-29210000D03*
D18*
X57110000Y-29210000D03*
%TD*%
D19*
%TO.C,B2_U1*%
X69850000Y-31750000D03*
D18*
X69850000Y-34290000D03*
X69850000Y-36830000D03*
X69850000Y-39370000D03*
X69850000Y-41910000D03*
X69850000Y-44450000D03*
X69850000Y-46990000D03*
X69850000Y-49530000D03*
X77470000Y-49530000D03*
X77470000Y-46990000D03*
X77470000Y-44450000D03*
X77470000Y-41910000D03*
X77470000Y-39370000D03*
X77470000Y-36830000D03*
X77470000Y-34290000D03*
X77470000Y-31750000D03*
%TD*%
D19*
%TO.C,B2_U2*%
X88900000Y-31750000D03*
D18*
X88900000Y-34290000D03*
X88900000Y-36830000D03*
X88900000Y-39370000D03*
X88900000Y-41910000D03*
X88900000Y-44450000D03*
X88900000Y-46990000D03*
X88900000Y-49530000D03*
X96520000Y-49530000D03*
X96520000Y-46990000D03*
X96520000Y-44450000D03*
X96520000Y-41910000D03*
X96520000Y-39370000D03*
X96520000Y-36830000D03*
X96520000Y-34290000D03*
X96520000Y-31750000D03*
%TD*%
D19*
%TO.C,B2_U3*%
X107950000Y-31750000D03*
D18*
X107950000Y-34290000D03*
X107950000Y-36830000D03*
X107950000Y-39370000D03*
X107950000Y-41910000D03*
X107950000Y-44450000D03*
X107950000Y-46990000D03*
X107950000Y-49530000D03*
X115570000Y-49530000D03*
X115570000Y-46990000D03*
X115570000Y-44450000D03*
X115570000Y-41910000D03*
X115570000Y-39370000D03*
X115570000Y-36830000D03*
X115570000Y-34290000D03*
X115570000Y-31750000D03*
%TD*%
D12*
%TO.C,B2_D1*%
X12700000Y-62230000D03*
D13*
X15240000Y-62230000D03*
%TD*%
D12*
%TO.C,B2_D2*%
X27940000Y-62230000D03*
D13*
X30480000Y-62230000D03*
%TD*%
D12*
%TO.C,B2_D3*%
X43180000Y-62230000D03*
D13*
X45720000Y-62230000D03*
%TD*%
D12*
%TO.C,B2_D4*%
X58420000Y-62230000D03*
D13*
X60960000Y-62230000D03*
%TD*%
D12*
%TO.C,B2_D5*%
X73660000Y-62230000D03*
D13*
X76200000Y-62230000D03*
%TD*%
D12*
%TO.C,B2_D6*%
X88900000Y-62230000D03*
D13*
X91440000Y-62230000D03*
%TD*%
D12*
%TO.C,B2_D7*%
X104140000Y-62230000D03*
D13*
X106680000Y-62230000D03*
%TD*%
D12*
%TO.C,B2_D8*%
X12700000Y-77470000D03*
D13*
X15240000Y-77470000D03*
%TD*%
D18*
%TO.C,B2_C1*%
X27940000Y-76200000D03*
X30440000Y-76200000D03*
%TD*%
%TO.C,B2_C2*%
X41910000Y-76200000D03*
X44410000Y-76200000D03*
%TD*%
%TO.C,B2_C3*%
X55880000Y-76200000D03*
X58380000Y-76200000D03*
%TD*%
%TO.C,B2_C4*%
X69850000Y-76200000D03*
X72350000Y-76200000D03*
%TD*%
%TO.C,B2_R1*%
X82550000Y-76200000D03*
X90170000Y-76200000D03*
%TD*%
%TO.C,B2_R2*%
X101600000Y-76200000D03*
X109220000Y-76200000D03*
%TD*%
%TO.C,B2_R3*%
X11430000Y-91440000D03*
X19050000Y-91440000D03*
%TD*%
%TO.C,B2_R4*%
X30480000Y-91440000D03*
X38100000Y-91440000D03*
%TD*%
%TO.C,B2_R5*%
X49530000Y-91440000D03*
X57150000Y-91440000D03*
%TD*%
%TO.C,B2_R6*%
X68580000Y-91440000D03*
X76200000Y-91440000D03*
%TD*%
%TO.C,B2_R7*%
X87630000Y-91440000D03*
X95250000Y-91440000D03*
%TD*%
%TO.C,B2_R8*%
X106680000Y-91440000D03*
X114300000Y-91440000D03*
%TD*%
M02*
