%TF.GenerationSoftware,KiCad,Pcbnew,10.0.4*%
%TF.CreationDate,2026-07-11T23:02:01+05:00*%
%TF.ProjectId,OPEN_THIS_PROJECT__mj002__COMBINATION,4f50454e-5f54-4484-9953-5f50524f4a45,rev?*%
%TF.SameCoordinates,Original*%
%TF.FileFunction,Copper,L1,Top*%
%TF.FilePolarity,Positive*%
%FSLAX46Y46*%
G04 Gerber Fmt 4.6, Leading zero omitted, Abs format (unit mm)*
G04 Created by KiCad (PCBNEW 10.0.4) date 2026-07-11 23:02:01*
%MOMM*%
%LPD*%
G01*
G04 APERTURE LIST*
G04 Aperture macros list*
%AMRoundRect*
0 Rectangle with rounded corners*
0 $1 Rounding radius*
0 $2 $3 $4 $5 $6 $7 $8 $9 X,Y pos of 4 corners*
0 Add a 4 corners polygon primitive as box body*
4,1,4,$2,$3,$4,$5,$6,$7,$8,$9,$2,$3,0*
0 Add four circle primitives for the rounded corners*
1,1,$1+$1,$2,$3*
1,1,$1+$1,$4,$5*
1,1,$1+$1,$6,$7*
1,1,$1+$1,$8,$9*
0 Add four rect primitives between the rounded corners*
20,1,$1+$1,$2,$3,$4,$5,0*
20,1,$1+$1,$4,$5,$6,$7,0*
20,1,$1+$1,$6,$7,$8,$9,0*
20,1,$1+$1,$8,$9,$2,$3,0*%
G04 Aperture macros list end*
%TA.AperFunction,ComponentPad*%
%ADD10RoundRect,0.249999X-1.250001X-1.250001X1.250001X-1.250001X1.250001X1.250001X-1.250001X1.250001X0*%
%TD*%
%TA.AperFunction,ComponentPad*%
%ADD11C,3.000000*%
%TD*%
%TA.AperFunction,ComponentPad*%
%ADD12R,1.800000X1.800000*%
%TD*%
%TA.AperFunction,ComponentPad*%
%ADD13C,1.800000*%
%TD*%
%TA.AperFunction,ComponentPad*%
%ADD14R,1.905000X2.000000*%
%TD*%
%TA.AperFunction,ComponentPad*%
%ADD15O,1.905000X2.000000*%
%TD*%
%TA.AperFunction,ComponentPad*%
%ADD16RoundRect,0.249999X-0.850001X-0.850001X0.850001X-0.850001X0.850001X0.850001X-0.850001X0.850001X0*%
%TD*%
%TA.AperFunction,ComponentPad*%
%ADD17C,2.200000*%
%TD*%
%TA.AperFunction,ComponentPad*%
%ADD18C,1.600000*%
%TD*%
%TA.AperFunction,ComponentPad*%
%ADD19RoundRect,0.250000X-0.550000X-0.550000X0.550000X-0.550000X0.550000X0.550000X-0.550000X0.550000X0*%
%TD*%
%TA.AperFunction,ViaPad*%
%ADD20C,0.800000*%
%TD*%
%TA.AperFunction,Conductor*%
%ADD21C,0.250000*%
%TD*%
G04 APERTURE END LIST*
D10*
%TO.P,B1_J2,1*%
%TO.N,+5V*%
X13970000Y-16510000D03*
D11*
%TO.P,B1_J2,2*%
%TO.N,GND*%
X18970000Y-16510000D03*
%TD*%
D12*
%TO.P,B1_D2,1*%
%TO.N,GND*%
X33020000Y-13970000D03*
D13*
%TO.P,B1_D2,2*%
%TO.N,B1_PWR_LED_A*%
X35560000Y-13970000D03*
%TD*%
D14*
%TO.P,B1_U1,1*%
%TO.N,B1_VIN_PROTECTED*%
X49530000Y-13970000D03*
D15*
%TO.P,B1_U1,2*%
%TO.N,GND*%
X52070000Y-13970000D03*
%TO.P,B1_U1,3*%
%TO.N,+5V*%
X54610000Y-13970000D03*
%TD*%
D16*
%TO.P,B1_D1,1*%
%TO.N,B1_VIN_PROTECTED*%
X66040000Y-12700000D03*
D17*
%TO.P,B1_D1,2*%
%TO.N,B1_VIN_FUSED*%
X76200000Y-12700000D03*
%TD*%
D18*
%TO.P,B1_C2,1*%
%TO.N,B1_VIN_PROTECTED*%
X88900000Y-12700000D03*
%TO.P,B1_C2,2*%
%TO.N,GND*%
X91400000Y-12700000D03*
%TD*%
%TO.P,B1_C4,1*%
%TO.N,+5V*%
X102870000Y-12700000D03*
%TO.P,B1_C4,2*%
%TO.N,GND*%
X105370000Y-12700000D03*
%TD*%
%TO.P,B1_C5,1*%
%TO.N,B1_VIN_PROTECTED*%
X12700000Y-31750000D03*
%TO.P,B1_C5,2*%
%TO.N,GND*%
X15200000Y-31750000D03*
%TD*%
%TO.P,B1_R1,1*%
%TO.N,+5V*%
X25400000Y-31750000D03*
%TO.P,B1_R1,2*%
%TO.N,B1_PWR_LED_A*%
X33020000Y-31750000D03*
%TD*%
D19*
%TO.P,B1_C1,1*%
%TO.N,B1_VIN_PROTECTED*%
X41910000Y-29210000D03*
D18*
%TO.P,B1_C1,2*%
%TO.N,GND*%
X44410000Y-29210000D03*
%TD*%
D19*
%TO.P,B1_C3,1*%
%TO.N,+5V*%
X54610000Y-29210000D03*
D18*
%TO.P,B1_C3,2*%
%TO.N,GND*%
X57110000Y-29210000D03*
%TD*%
D19*
%TO.P,B2_U1,1*%
%TO.N,B2_LED_A1*%
X69850000Y-31750000D03*
D18*
%TO.P,B2_U1,2*%
%TO.N,B2_LED_A2*%
X69850000Y-34290000D03*
%TO.P,B2_U1,3*%
%TO.N,B2_LED_A3*%
X69850000Y-36830000D03*
%TO.P,B2_U1,4*%
%TO.N,B2_LED_A4*%
X69850000Y-39370000D03*
%TO.P,B2_U1,5*%
%TO.N,B2_LED_A5*%
X69850000Y-41910000D03*
%TO.P,B2_U1,6*%
%TO.N,B2_LED_A6*%
X69850000Y-44450000D03*
%TO.P,B2_U1,7*%
%TO.N,B2_LED_A7*%
X69850000Y-46990000D03*
%TO.P,B2_U1,8*%
%TO.N,GND*%
X69850000Y-49530000D03*
%TO.P,B2_U1,9*%
%TO.N,B2_SHIFT_CHAIN_1*%
X77470000Y-49530000D03*
%TO.P,B2_U1,10*%
%TO.N,+5V*%
X77470000Y-46990000D03*
%TO.P,B2_U1,11*%
%TO.N,B2_SPI_SCK*%
X77470000Y-44450000D03*
%TO.P,B2_U1,12*%
%TO.N,B2_LATCH*%
X77470000Y-41910000D03*
%TO.P,B2_U1,13*%
%TO.N,GND*%
X77470000Y-39370000D03*
%TO.P,B2_U1,14*%
%TO.N,B2_SPI_MOSI*%
X77470000Y-36830000D03*
%TO.P,B2_U1,15*%
%TO.N,B2_LED_A0*%
X77470000Y-34290000D03*
%TO.P,B2_U1,16*%
%TO.N,+5V*%
X77470000Y-31750000D03*
%TD*%
D19*
%TO.P,B2_U2,1*%
%TO.N,B2_LED_B1*%
X88900000Y-31750000D03*
D18*
%TO.P,B2_U2,2*%
%TO.N,B2_LED_B2*%
X88900000Y-34290000D03*
%TO.P,B2_U2,3*%
%TO.N,B2_LED_B3*%
X88900000Y-36830000D03*
%TO.P,B2_U2,4*%
%TO.N,N/C*%
X88900000Y-39370000D03*
%TO.P,B2_U2,5*%
X88900000Y-41910000D03*
%TO.P,B2_U2,6*%
X88900000Y-44450000D03*
%TO.P,B2_U2,7*%
X88900000Y-46990000D03*
%TO.P,B2_U2,8*%
%TO.N,GND*%
X88900000Y-49530000D03*
%TO.P,B2_U2,9*%
%TO.N,B2_SHIFT_CHAIN_2*%
X96520000Y-49530000D03*
%TO.P,B2_U2,10*%
%TO.N,+5V*%
X96520000Y-46990000D03*
%TO.P,B2_U2,11*%
%TO.N,B2_SPI_SCK*%
X96520000Y-44450000D03*
%TO.P,B2_U2,12*%
%TO.N,B2_LATCH*%
X96520000Y-41910000D03*
%TO.P,B2_U2,13*%
%TO.N,GND*%
X96520000Y-39370000D03*
%TO.P,B2_U2,14*%
%TO.N,B2_SHIFT_CHAIN_1*%
X96520000Y-36830000D03*
%TO.P,B2_U2,15*%
%TO.N,B2_LED_B0*%
X96520000Y-34290000D03*
%TO.P,B2_U2,16*%
%TO.N,+5V*%
X96520000Y-31750000D03*
%TD*%
D19*
%TO.P,B2_U3,1*%
%TO.N,N/C*%
X107950000Y-31750000D03*
D18*
%TO.P,B2_U3,2*%
X107950000Y-34290000D03*
%TO.P,B2_U3,3*%
X107950000Y-36830000D03*
%TO.P,B2_U3,4*%
X107950000Y-39370000D03*
%TO.P,B2_U3,5*%
X107950000Y-41910000D03*
%TO.P,B2_U3,6*%
X107950000Y-44450000D03*
%TO.P,B2_U3,7*%
X107950000Y-46990000D03*
%TO.P,B2_U3,8*%
%TO.N,GND*%
X107950000Y-49530000D03*
%TO.P,B2_U3,9*%
%TO.N,N/C*%
X115570000Y-49530000D03*
%TO.P,B2_U3,10*%
%TO.N,+5V*%
X115570000Y-46990000D03*
%TO.P,B2_U3,11*%
%TO.N,B2_SPI_SCK*%
X115570000Y-44450000D03*
%TO.P,B2_U3,12*%
%TO.N,B2_LATCH*%
X115570000Y-41910000D03*
%TO.P,B2_U3,13*%
%TO.N,GND*%
X115570000Y-39370000D03*
%TO.P,B2_U3,14*%
%TO.N,B2_SHIFT_CHAIN_2*%
X115570000Y-36830000D03*
%TO.P,B2_U3,15*%
%TO.N,N/C*%
X115570000Y-34290000D03*
%TO.P,B2_U3,16*%
%TO.N,+5V*%
X115570000Y-31750000D03*
%TD*%
D12*
%TO.P,B2_D1,1*%
%TO.N,GND*%
X12700000Y-62230000D03*
D13*
%TO.P,B2_D1,2*%
%TO.N,N/C*%
X15240000Y-62230000D03*
%TD*%
D12*
%TO.P,B2_D2,1*%
%TO.N,GND*%
X27940000Y-62230000D03*
D13*
%TO.P,B2_D2,2*%
%TO.N,N/C*%
X30480000Y-62230000D03*
%TD*%
D12*
%TO.P,B2_D3,1*%
%TO.N,GND*%
X43180000Y-62230000D03*
D13*
%TO.P,B2_D3,2*%
%TO.N,N/C*%
X45720000Y-62230000D03*
%TD*%
D12*
%TO.P,B2_D4,1*%
%TO.N,GND*%
X58420000Y-62230000D03*
D13*
%TO.P,B2_D4,2*%
%TO.N,N/C*%
X60960000Y-62230000D03*
%TD*%
D12*
%TO.P,B2_D5,1*%
%TO.N,GND*%
X73660000Y-62230000D03*
D13*
%TO.P,B2_D5,2*%
%TO.N,N/C*%
X76200000Y-62230000D03*
%TD*%
D12*
%TO.P,B2_D6,1*%
%TO.N,GND*%
X88900000Y-62230000D03*
D13*
%TO.P,B2_D6,2*%
%TO.N,N/C*%
X91440000Y-62230000D03*
%TD*%
D12*
%TO.P,B2_D7,1*%
%TO.N,GND*%
X104140000Y-62230000D03*
D13*
%TO.P,B2_D7,2*%
%TO.N,N/C*%
X106680000Y-62230000D03*
%TD*%
D12*
%TO.P,B2_D8,1*%
%TO.N,GND*%
X12700000Y-77470000D03*
D13*
%TO.P,B2_D8,2*%
%TO.N,N/C*%
X15240000Y-77470000D03*
%TD*%
D18*
%TO.P,B2_C1,1*%
%TO.N,+5V*%
X27940000Y-76200000D03*
%TO.P,B2_C1,2*%
%TO.N,GND*%
X30440000Y-76200000D03*
%TD*%
%TO.P,B2_C2,1*%
%TO.N,+5V*%
X41910000Y-76200000D03*
%TO.P,B2_C2,2*%
%TO.N,GND*%
X44410000Y-76200000D03*
%TD*%
%TO.P,B2_C3,1*%
%TO.N,+5V*%
X55880000Y-76200000D03*
%TO.P,B2_C3,2*%
%TO.N,GND*%
X58380000Y-76200000D03*
%TD*%
%TO.P,B2_C4,1*%
%TO.N,+5V*%
X69850000Y-76200000D03*
%TO.P,B2_C4,2*%
%TO.N,GND*%
X72350000Y-76200000D03*
%TD*%
%TO.P,B2_R1,1*%
%TO.N,+5V*%
X82550000Y-76200000D03*
%TO.P,B2_R1,2*%
%TO.N,B2_DIP1_1*%
X90170000Y-76200000D03*
%TD*%
%TO.P,B2_R2,1*%
%TO.N,+5V*%
X101600000Y-76200000D03*
%TO.P,B2_R2,2*%
%TO.N,B2_DIP1_2*%
X109220000Y-76200000D03*
%TD*%
%TO.P,B2_R3,1*%
%TO.N,+5V*%
X11430000Y-91440000D03*
%TO.P,B2_R3,2*%
%TO.N,B2_DIP1_3*%
X19050000Y-91440000D03*
%TD*%
%TO.P,B2_R4,1*%
%TO.N,+5V*%
X30480000Y-91440000D03*
%TO.P,B2_R4,2*%
%TO.N,B2_DIP1_4*%
X38100000Y-91440000D03*
%TD*%
%TO.P,B2_R5,1*%
%TO.N,+5V*%
X49530000Y-91440000D03*
%TO.P,B2_R5,2*%
%TO.N,B2_DIP2_1*%
X57150000Y-91440000D03*
%TD*%
%TO.P,B2_R6,1*%
%TO.N,+5V*%
X68580000Y-91440000D03*
%TO.P,B2_R6,2*%
%TO.N,B2_DIP2_2*%
X76200000Y-91440000D03*
%TD*%
%TO.P,B2_R7,1*%
%TO.N,+5V*%
X87630000Y-91440000D03*
%TO.P,B2_R7,2*%
%TO.N,B2_DIP2_3*%
X95250000Y-91440000D03*
%TD*%
%TO.P,B2_R8,1*%
%TO.N,+5V*%
X106680000Y-91440000D03*
%TO.P,B2_R8,2*%
%TO.N,B2_DIP2_4*%
X114300000Y-91440000D03*
%TD*%
D20*
%TO.N,B1_VIN_PROTECTED*%
X49530000Y-27940000D03*
X26670000Y-34290000D03*
%TO.N,B2_SPI_SCK*%
X90170000Y-53340000D03*
X74930000Y-46990000D03*
%TO.N,B1_PWR_LED_A*%
X29210000Y-30480000D03*
%TO.N,B2_SHIFT_CHAIN_1*%
X81280000Y-48260000D03*
%TO.N,B2_SHIFT_CHAIN_2*%
X105410000Y-50800000D03*
X100330000Y-50800000D03*
%TD*%
%TO.N,+5V*%
D21*
X54610000Y-29210000D02*
X54610000Y-13970000D01*
X102870000Y-12700000D02*
X93980000Y-12700000D01*
X93980000Y-12700000D02*
X93980000Y-13970000D01*
X93980000Y-13970000D02*
X92710000Y-13970000D01*
X92710000Y-13970000D02*
X92710000Y-15240000D01*
X92710000Y-15240000D02*
X54610000Y-15240000D01*
X25400000Y-31750000D02*
X30480000Y-31750000D01*
X30480000Y-31750000D02*
X30480000Y-30480000D01*
X30480000Y-30480000D02*
X31750000Y-30480000D01*
X31750000Y-30480000D02*
X31750000Y-29210000D01*
X31750000Y-29210000D02*
X39370000Y-29210000D01*
X39370000Y-29210000D02*
X39370000Y-27940000D01*
X39370000Y-27940000D02*
X40640000Y-27940000D01*
X40640000Y-27940000D02*
X40640000Y-26670000D01*
X40640000Y-26670000D02*
X54610000Y-26670000D01*
X13970000Y-16510000D02*
X16510000Y-16510000D01*
X16510000Y-16510000D02*
X16510000Y-19050000D01*
X16510000Y-19050000D02*
X25400000Y-19050000D01*
X25400000Y-19050000D02*
X25400000Y-31750000D01*
X77470000Y-46990000D02*
X76200000Y-46990000D01*
X76200000Y-46990000D02*
X76200000Y-45720000D01*
X76200000Y-45720000D02*
X74930000Y-45720000D01*
X74930000Y-45720000D02*
X74930000Y-15240000D01*
X77470000Y-31750000D02*
X74930000Y-31750000D01*
X96520000Y-46990000D02*
X91440000Y-46990000D01*
X91440000Y-46990000D02*
X91440000Y-50800000D01*
X91440000Y-50800000D02*
X90170000Y-50800000D01*
X90170000Y-50800000D02*
X90170000Y-52070000D01*
X90170000Y-52070000D02*
X87630000Y-52070000D01*
X87630000Y-52070000D02*
X87630000Y-50800000D01*
X87630000Y-50800000D02*
X86360000Y-50800000D01*
X86360000Y-50800000D02*
X86360000Y-46990000D01*
X86360000Y-46990000D02*
X77470000Y-46990000D01*
X96520000Y-31750000D02*
X93980000Y-31750000D01*
X93980000Y-31750000D02*
X93980000Y-46990000D01*
X115570000Y-46990000D02*
X110490000Y-46990000D01*
X110490000Y-46990000D02*
X110490000Y-50800000D01*
X110490000Y-50800000D02*
X109220000Y-50800000D01*
X109220000Y-50800000D02*
X109220000Y-52070000D01*
X109220000Y-52070000D02*
X99060000Y-52070000D01*
X99060000Y-52070000D02*
X99060000Y-48260000D01*
X99060000Y-48260000D02*
X97790000Y-48260000D01*
X97790000Y-48260000D02*
X97790000Y-46990000D01*
X97790000Y-46990000D02*
X96520000Y-46990000D01*
X115570000Y-31750000D02*
X113030000Y-31750000D01*
X113030000Y-31750000D02*
X113030000Y-46990000D01*
X27940000Y-76200000D02*
X27940000Y-64770000D01*
X27940000Y-64770000D02*
X25400000Y-64770000D01*
X25400000Y-64770000D02*
X25400000Y-31750000D01*
X41910000Y-76200000D02*
X33020000Y-76200000D01*
X33020000Y-76200000D02*
X33020000Y-74930000D01*
X33020000Y-74930000D02*
X31750000Y-74930000D01*
X31750000Y-74930000D02*
X31750000Y-73660000D01*
X31750000Y-73660000D02*
X27940000Y-73660000D01*
X55880000Y-76200000D02*
X46990000Y-76200000D01*
X46990000Y-76200000D02*
X46990000Y-74930000D01*
X46990000Y-74930000D02*
X45720000Y-74930000D01*
X45720000Y-74930000D02*
X45720000Y-73660000D01*
X45720000Y-73660000D02*
X41910000Y-73660000D01*
X41910000Y-73660000D02*
X41910000Y-76200000D01*
X69850000Y-76200000D02*
X60960000Y-76200000D01*
X60960000Y-76200000D02*
X60960000Y-74930000D01*
X60960000Y-74930000D02*
X59690000Y-74930000D01*
X59690000Y-74930000D02*
X59690000Y-73660000D01*
X59690000Y-73660000D02*
X55880000Y-73660000D01*
X55880000Y-73660000D02*
X55880000Y-76200000D01*
X82550000Y-76200000D02*
X74930000Y-76200000D01*
X74930000Y-76200000D02*
X74930000Y-74930000D01*
X74930000Y-74930000D02*
X73660000Y-74930000D01*
X73660000Y-74930000D02*
X73660000Y-73660000D01*
X73660000Y-73660000D02*
X69850000Y-73660000D01*
X69850000Y-73660000D02*
X69850000Y-76200000D01*
X101600000Y-76200000D02*
X92710000Y-76200000D01*
X92710000Y-76200000D02*
X92710000Y-74930000D01*
X92710000Y-74930000D02*
X91440000Y-74930000D01*
X91440000Y-74930000D02*
X91440000Y-73660000D01*
X91440000Y-73660000D02*
X82550000Y-73660000D01*
X82550000Y-73660000D02*
X82550000Y-76200000D01*
X11430000Y-91440000D02*
X13970000Y-91440000D01*
X13970000Y-91440000D02*
X13970000Y-80010000D01*
X13970000Y-80010000D02*
X17780000Y-80010000D01*
X17780000Y-80010000D02*
X17780000Y-76200000D01*
X17780000Y-76200000D02*
X27940000Y-76200000D01*
X30480000Y-91440000D02*
X27940000Y-91440000D01*
X27940000Y-91440000D02*
X27940000Y-76200000D01*
X49530000Y-91440000D02*
X49530000Y-76200000D01*
X68580000Y-91440000D02*
X68580000Y-76200000D01*
X87630000Y-91440000D02*
X87630000Y-73660000D01*
X106680000Y-91440000D02*
X101600000Y-91440000D01*
X101600000Y-91440000D02*
X101600000Y-76200000D01*
%TO.N,B1_VIN_PROTECTED*%
X49530000Y-13970000D02*
X49530000Y-11430000D01*
X49530000Y-11430000D02*
X66040000Y-11430000D01*
X66040000Y-11430000D02*
X66040000Y-12700000D01*
X41910000Y-29210000D02*
X41910000Y-30480000D01*
X41910000Y-30480000D02*
X43180000Y-30480000D01*
X43180000Y-30480000D02*
X43180000Y-31750000D01*
X43180000Y-31750000D02*
X49530000Y-31750000D01*
X49530000Y-31750000D02*
X49530000Y-27940000D01*
X88900000Y-12700000D02*
X78740000Y-12700000D01*
X78740000Y-12700000D02*
X78740000Y-10160000D01*
X78740000Y-10160000D02*
X66040000Y-10160000D01*
X66040000Y-10160000D02*
X66040000Y-11430000D01*
X26670000Y-34290000D02*
X41910000Y-34290000D01*
X41910000Y-34290000D02*
X41910000Y-31750000D01*
X41910000Y-31750000D02*
X43180000Y-31750000D01*
%TO.N,B2_LATCH*%
X96520000Y-41910000D02*
X99060000Y-41910000D01*
X99060000Y-41910000D02*
X99060000Y-30480000D01*
X99060000Y-30480000D02*
X97790000Y-30480000D01*
X97790000Y-30480000D02*
X97790000Y-29210000D01*
X97790000Y-29210000D02*
X80010000Y-29210000D01*
X80010000Y-29210000D02*
X80010000Y-40640000D01*
X80010000Y-40640000D02*
X78740000Y-40640000D01*
X78740000Y-40640000D02*
X78740000Y-41910000D01*
X78740000Y-41910000D02*
X77470000Y-41910000D01*
X115570000Y-41910000D02*
X116840000Y-41910000D01*
X116840000Y-41910000D02*
X116840000Y-40640000D01*
X116840000Y-40640000D02*
X118110000Y-40640000D01*
X118110000Y-40640000D02*
X118110000Y-30480000D01*
X118110000Y-30480000D02*
X116840000Y-30480000D01*
X116840000Y-30480000D02*
X116840000Y-29210000D01*
X116840000Y-29210000D02*
X97790000Y-29210000D01*
%TO.N,B2_SPI_SCK*%
X90170000Y-53340000D02*
X77470000Y-53340000D01*
X77470000Y-53340000D02*
X77470000Y-52070000D01*
X77470000Y-52070000D02*
X76200000Y-52070000D01*
X76200000Y-52070000D02*
X76200000Y-50800000D01*
X76200000Y-50800000D02*
X74930000Y-50800000D01*
X74930000Y-50800000D02*
X74930000Y-46990000D01*
X115570000Y-44450000D02*
X116840000Y-44450000D01*
X116840000Y-44450000D02*
X116840000Y-45720000D01*
X116840000Y-45720000D02*
X118110000Y-45720000D01*
X118110000Y-45720000D02*
X118110000Y-50800000D01*
X118110000Y-50800000D02*
X116840000Y-50800000D01*
X116840000Y-50800000D02*
X116840000Y-52070000D01*
X116840000Y-52070000D02*
X110490000Y-52070000D01*
X110490000Y-52070000D02*
X110490000Y-53340000D01*
X110490000Y-53340000D02*
X90170000Y-53340000D01*
%TO.N,B1_PWR_LED_A*%
X29210000Y-30480000D02*
X29210000Y-29210000D01*
X29210000Y-29210000D02*
X30480000Y-29210000D01*
X30480000Y-29210000D02*
X30480000Y-27940000D01*
X30480000Y-27940000D02*
X35560000Y-27940000D01*
X35560000Y-27940000D02*
X35560000Y-13970000D01*
%TO.N,B2_SHIFT_CHAIN_1*%
X81280000Y-48260000D02*
X78740000Y-48260000D01*
X78740000Y-48260000D02*
X78740000Y-49530000D01*
X78740000Y-49530000D02*
X77470000Y-49530000D01*
%TO.N,B2_SHIFT_CHAIN_2*%
X105410000Y-50800000D02*
X100330000Y-50800000D01*
%TD*%
M02*
