M48
; DRILL file KiCad 10.0.4 date 2026-07-11T23:02:13
; FORMAT={-:-/ absolute / metric / decimal}
; #@! TF.CreationDate,2026-07-11T23:02:13+05:00
; #@! TF.GenerationSoftware,Kicad,Pcbnew,10.0.4
; #@! TF.FileFunction,MixedPlating,1,2
FMAT,2
METRIC
; #@! TA.AperFunction,Plated,PTH,ViaDrill
T1C0.400
; #@! TA.AperFunction,Plated,PTH,ComponentDrill
T2C0.800
; #@! TA.AperFunction,Plated,PTH,ComponentDrill
T3C0.900
; #@! TA.AperFunction,Plated,PTH,ComponentDrill
T4C1.000
%
G90
G05
T1
X26.67Y-29.21
X26.67Y-49.53
X34.29Y-46.99
X38.1Y-53.34
X46.99Y-44.45
X50.8Y-59.69
X52.07Y-54.61
X67.31Y-44.45
X80.01Y-44.45
T2
X11.43Y-58.42
X11.43Y-69.85
X19.05Y-58.42
X19.05Y-69.85
X24.13Y-12.7
X24.13Y-15.24
X24.13Y-17.78
X24.13Y-20.32
X30.48Y-58.42
X30.48Y-69.85
X31.75Y-12.7
X31.75Y-15.24
X31.75Y-17.78
X31.75Y-20.32
X38.1Y-58.42
X38.1Y-69.85
X43.18Y-12.7
X43.18Y-15.24
X43.18Y-17.78
X43.18Y-20.32
X43.18Y-43.18
X45.68Y-43.18
X49.53Y-58.42
X49.53Y-69.85
X50.8Y-12.7
X50.8Y-15.24
X50.8Y-17.78
X50.8Y-20.32
X57.15Y-43.18
X57.15Y-58.42
X57.15Y-69.85
X59.65Y-43.18
X68.58Y-58.42
X68.58Y-69.85
X71.12Y-43.18
X73.62Y-43.18
X76.2Y-58.42
X76.2Y-69.85
X85.09Y-43.18
X87.59Y-43.18
T3
X12.7Y-44.45
X15.24Y-44.45
X27.94Y-44.45
X30.48Y-44.45
X63.5Y-13.97
X66.04Y-13.97
X78.74Y-13.97
X81.28Y-13.97
T4
X12.7Y-12.7
X12.7Y-15.24
X12.7Y-17.78
X12.7Y-20.32
X12.7Y-22.86
X12.7Y-25.4
X12.7Y-27.94
X12.7Y-30.48
M30
