M48
; DRILL file KiCad 10.0.4 date 2026-07-11T23:01:59
; FORMAT={-:-/ absolute / metric / decimal}
; #@! TF.CreationDate,2026-07-11T23:01:59+05:00
; #@! TF.GenerationSoftware,Kicad,Pcbnew,10.0.4
; #@! TF.FileFunction,MixedPlating,1,2
FMAT,2
METRIC
; #@! TA.AperFunction,Plated,PTH,ViaDrill
T1C0.400
; #@! TA.AperFunction,Plated,PTH,ComponentDrill
T2C0.800
; #@! TA.AperFunction,Plated,PTH,ComponentDrill
T3C0.900
; #@! TA.AperFunction,Plated,PTH,ComponentDrill
T4C1.000
%
G90
G05
T1
X12.7Y-66.04
X13.97Y-71.12
X16.51Y-8.89
X16.51Y-11.43
X27.94Y-11.43
X31.75Y-17.78
X31.75Y-48.26
X34.29Y-72.39
X35.56Y-102.87
X36.83Y-69.85
X36.83Y-104.14
X40.64Y-31.75
X40.64Y-34.29
X41.91Y-63.5
X41.91Y-66.04
X44.45Y-8.89
X46.99Y-68.58
X48.26Y-27.94
X48.26Y-66.04
X55.88Y-26.67
X68.58Y-90.17
X69.85Y-88.9
X100.33Y-77.47
T2
X11.43Y-67.31
X11.43Y-113.03
X12.7Y-101.6
X15.2Y-101.6
X19.05Y-67.31
X19.05Y-113.03
X26.67Y-101.6
X29.17Y-101.6
X30.48Y-67.31
X30.48Y-113.03
X38.1Y-67.31
X38.1Y-113.03
X39.37Y-101.6
X43.18Y-86.36
X45.68Y-86.36
X46.99Y-101.6
X49.53Y-67.31
X49.53Y-113.03
X57.15Y-67.31
X57.15Y-86.36
X57.15Y-113.03
X58.42Y-101.6
X59.65Y-86.36
X66.04Y-101.6
X68.58Y-67.31
X68.58Y-113.03
X71.12Y-86.36
X73.62Y-86.36
X76.2Y-67.31
X76.2Y-113.03
X77.47Y-101.6
X85.09Y-86.36
X85.09Y-101.6
X87.59Y-86.36
X87.63Y-67.31
X87.63Y-69.85
X87.63Y-72.39
X87.63Y-74.93
X95.25Y-67.31
X95.25Y-69.85
X95.25Y-72.39
X95.25Y-74.93
X96.52Y-101.6
X99.06Y-86.36
X101.56Y-86.36
X104.14Y-101.6
X106.68Y-67.31
X106.68Y-69.85
X106.68Y-72.39
X106.68Y-74.93
X109.22Y-12.7
X113.03Y-86.36
X114.3Y-67.31
X114.3Y-69.85
X114.3Y-72.39
X114.3Y-74.93
X115.53Y-86.36
X116.84Y-12.7
T3
X12.7Y-87.63
X15.24Y-87.63
X27.94Y-87.63
X30.48Y-87.63
X64.77Y-13.97
X67.31Y-13.97
X80.01Y-13.97
X82.55Y-13.97
X95.25Y-13.97
X97.79Y-13.97
T4
X12.7Y-15.24
X12.7Y-17.78
X12.7Y-20.32
X12.7Y-22.86
X12.7Y-25.4
X12.7Y-27.94
X12.7Y-30.48
X12.7Y-33.02
X12.7Y-35.56
X12.7Y-38.1
X12.7Y-40.64
X12.7Y-43.18
X12.7Y-45.72
X12.7Y-48.26
X12.7Y-50.8
X27.94Y-15.24
X27.94Y-17.78
X27.94Y-20.32
X27.94Y-22.86
X27.94Y-25.4
X27.94Y-27.94
X27.94Y-30.48
X27.94Y-33.02
X27.94Y-35.56
X27.94Y-38.1
X27.94Y-40.64
X27.94Y-43.18
X27.94Y-45.72
X27.94Y-48.26
X27.94Y-50.8
X39.37Y-12.7
X39.37Y-15.24
X39.37Y-17.78
X39.37Y-20.32
X39.37Y-22.86
X39.37Y-25.4
X52.07Y-12.7
X52.07Y-15.24
X52.07Y-17.78
X52.07Y-20.32
X52.07Y-22.86
X52.07Y-25.4
M30
