%TF.GenerationSoftware,KiCad,Pcbnew,10.0.4*%
%TF.CreationDate,2026-07-11T23:01:58+05:00*%
%TF.ProjectId,OPEN_THIS_PROJECT__mj001__COMBINATION,4f50454e-5f54-4484-9953-5f50524f4a45,rev?*%
%TF.SameCoordinates,Original*%
%TF.FileFunction,Soldermask,Top*%
%TF.FilePolarity,Negative*%
%FSLAX46Y46*%
G04 Gerber Fmt 4.6, Leading zero omitted, Abs format (unit mm)*
G04 Created by KiCad (PCBNEW 10.0.4) date 2026-07-11 23:01:58*
%MOMM*%
%LPD*%
G01*
G04 APERTURE LIST*
G04 Aperture macros list*
%AMRoundRect*
0 Rectangle with rounded corners*
0 $1 Rounding radius*
0 $2 $3 $4 $5 $6 $7 $8 $9 X,Y pos of 4 corners*
0 Add a 4 corners polygon primitive as box body*
4,1,4,$2,$3,$4,$5,$6,$7,$8,$9,$2,$3,0*
0 Add four circle primitives for the rounded corners*
1,1,$1+$1,$2,$3*
1,1,$1+$1,$4,$5*
1,1,$1+$1,$6,$7*
1,1,$1+$1,$8,$9*
0 Add four rect primitives between the rounded corners*
20,1,$1+$1,$2,$3,$4,$5,0*
20,1,$1+$1,$4,$5,$6,$7,0*
20,1,$1+$1,$6,$7,$8,$9,0*
20,1,$1+$1,$8,$9,$2,$3,0*%
G04 Aperture macros list end*
%ADD10R,1.600000X1.600000*%
%ADD11O,1.600000X1.600000*%
%ADD12R,1.700000X1.700000*%
%ADD13C,1.700000*%
%ADD14R,1.800000X1.800000*%
%ADD15C,1.800000*%
%ADD16C,1.600000*%
%ADD17RoundRect,0.250000X-0.550000X-0.550000X0.550000X-0.550000X0.550000X0.550000X-0.550000X0.550000X0*%
G04 APERTURE END LIST*
D10*
%TO.C,B1_U1*%
X12700000Y-15240000D03*
D11*
X12700000Y-17780000D03*
X12700000Y-20320000D03*
X12700000Y-22860000D03*
X12700000Y-25400000D03*
X12700000Y-27940000D03*
X12700000Y-30480000D03*
X12700000Y-33020000D03*
X12700000Y-35560000D03*
X12700000Y-38100000D03*
X12700000Y-40640000D03*
X12700000Y-43180000D03*
X12700000Y-45720000D03*
X12700000Y-48260000D03*
X12700000Y-50800000D03*
X27940000Y-50800000D03*
X27940000Y-48260000D03*
X27940000Y-45720000D03*
X27940000Y-43180000D03*
X27940000Y-40640000D03*
X27940000Y-38100000D03*
X27940000Y-35560000D03*
X27940000Y-33020000D03*
X27940000Y-30480000D03*
X27940000Y-27940000D03*
X27940000Y-25400000D03*
X27940000Y-22860000D03*
X27940000Y-20320000D03*
X27940000Y-17780000D03*
X27940000Y-15240000D03*
%TD*%
D12*
%TO.C,B1_J1*%
X39370000Y-12700000D03*
D13*
X39370000Y-15240000D03*
X39370000Y-17780000D03*
X39370000Y-20320000D03*
X39370000Y-22860000D03*
X39370000Y-25400000D03*
%TD*%
D12*
%TO.C,B1_J2*%
X52070000Y-12700000D03*
D13*
X52070000Y-15240000D03*
X52070000Y-17780000D03*
X52070000Y-20320000D03*
X52070000Y-22860000D03*
X52070000Y-25400000D03*
%TD*%
D14*
%TO.C,B1_D1*%
X64770000Y-13970000D03*
D15*
X67310000Y-13970000D03*
%TD*%
D14*
%TO.C,B1_D2*%
X80010000Y-13970000D03*
D15*
X82550000Y-13970000D03*
%TD*%
D14*
%TO.C,B1_D3*%
X95250000Y-13970000D03*
D15*
X97790000Y-13970000D03*
%TD*%
D16*
%TO.C,B1_R1*%
X109220000Y-12700000D03*
X116840000Y-12700000D03*
%TD*%
%TO.C,B1_R2*%
X11430000Y-67310000D03*
X19050000Y-67310000D03*
%TD*%
%TO.C,B1_R3*%
X30480000Y-67310000D03*
X38100000Y-67310000D03*
%TD*%
%TO.C,B1_R4*%
X49530000Y-67310000D03*
X57150000Y-67310000D03*
%TD*%
%TO.C,B1_R5*%
X68580000Y-67310000D03*
X76200000Y-67310000D03*
%TD*%
D17*
%TO.C,B2_U1A*%
X87630000Y-67310000D03*
D16*
X87630000Y-69850000D03*
X87630000Y-72390000D03*
X87630000Y-74930000D03*
X95250000Y-74930000D03*
X95250000Y-72390000D03*
X95250000Y-69850000D03*
X95250000Y-67310000D03*
%TD*%
D17*
%TO.C,B2_U1B*%
X106680000Y-67310000D03*
D16*
X106680000Y-69850000D03*
X106680000Y-72390000D03*
X106680000Y-74930000D03*
X114300000Y-74930000D03*
X114300000Y-72390000D03*
X114300000Y-69850000D03*
X114300000Y-67310000D03*
%TD*%
D14*
%TO.C,B2_D1*%
X12700000Y-87630000D03*
D15*
X15240000Y-87630000D03*
%TD*%
D14*
%TO.C,B2_D2*%
X27940000Y-87630000D03*
D15*
X30480000Y-87630000D03*
%TD*%
D16*
%TO.C,B2_C1*%
X43180000Y-86360000D03*
X45680000Y-86360000D03*
%TD*%
%TO.C,B2_C2*%
X57150000Y-86360000D03*
X59650000Y-86360000D03*
%TD*%
%TO.C,B2_C3*%
X71120000Y-86360000D03*
X73620000Y-86360000D03*
%TD*%
%TO.C,B2_C4*%
X85090000Y-86360000D03*
X87590000Y-86360000D03*
%TD*%
%TO.C,B2_C5*%
X99060000Y-86360000D03*
X101560000Y-86360000D03*
%TD*%
%TO.C,B2_C6*%
X113030000Y-86360000D03*
X115530000Y-86360000D03*
%TD*%
%TO.C,B2_C7*%
X12700000Y-101600000D03*
X15200000Y-101600000D03*
%TD*%
%TO.C,B2_C8*%
X26670000Y-101600000D03*
X29170000Y-101600000D03*
%TD*%
%TO.C,B2_R1*%
X39370000Y-101600000D03*
X46990000Y-101600000D03*
%TD*%
%TO.C,B2_R2*%
X58420000Y-101600000D03*
X66040000Y-101600000D03*
%TD*%
%TO.C,B2_R3*%
X77470000Y-101600000D03*
X85090000Y-101600000D03*
%TD*%
%TO.C,B2_R4*%
X96520000Y-101600000D03*
X104140000Y-101600000D03*
%TD*%
%TO.C,B2_R5*%
X11430000Y-113030000D03*
X19050000Y-113030000D03*
%TD*%
%TO.C,B2_R6*%
X30480000Y-113030000D03*
X38100000Y-113030000D03*
%TD*%
%TO.C,B2_R7*%
X49530000Y-113030000D03*
X57150000Y-113030000D03*
%TD*%
%TO.C,B2_R8*%
X68580000Y-113030000D03*
X76200000Y-113030000D03*
%TD*%
M02*
