%TF.GenerationSoftware,KiCad,Pcbnew,10.0.4*%
%TF.CreationDate,2026-07-11T23:01:58+05:00*%
%TF.ProjectId,OPEN_THIS_PROJECT__mj001__COMBINATION,4f50454e-5f54-4484-9953-5f50524f4a45,rev?*%
%TF.SameCoordinates,Original*%
%TF.FileFunction,Copper,L1,Top*%
%TF.FilePolarity,Positive*%
%FSLAX46Y46*%
G04 Gerber Fmt 4.6, Leading zero omitted, Abs format (unit mm)*
G04 Created by KiCad (PCBNEW 10.0.4) date 2026-07-11 23:01:58*
%MOMM*%
%LPD*%
G01*
G04 APERTURE LIST*
G04 Aperture macros list*
%AMRoundRect*
0 Rectangle with rounded corners*
0 $1 Rounding radius*
0 $2 $3 $4 $5 $6 $7 $8 $9 X,Y pos of 4 corners*
0 Add a 4 corners polygon primitive as box body*
4,1,4,$2,$3,$4,$5,$6,$7,$8,$9,$2,$3,0*
0 Add four circle primitives for the rounded corners*
1,1,$1+$1,$2,$3*
1,1,$1+$1,$4,$5*
1,1,$1+$1,$6,$7*
1,1,$1+$1,$8,$9*
0 Add four rect primitives between the rounded corners*
20,1,$1+$1,$2,$3,$4,$5,0*
20,1,$1+$1,$4,$5,$6,$7,0*
20,1,$1+$1,$6,$7,$8,$9,0*
20,1,$1+$1,$8,$9,$2,$3,0*%
G04 Aperture macros list end*
%TA.AperFunction,ComponentPad*%
%ADD10R,1.600000X1.600000*%
%TD*%
%TA.AperFunction,ComponentPad*%
%ADD11O,1.600000X1.600000*%
%TD*%
%TA.AperFunction,ComponentPad*%
%ADD12R,1.700000X1.700000*%
%TD*%
%TA.AperFunction,ComponentPad*%
%ADD13C,1.700000*%
%TD*%
%TA.AperFunction,ComponentPad*%
%ADD14R,1.800000X1.800000*%
%TD*%
%TA.AperFunction,ComponentPad*%
%ADD15C,1.800000*%
%TD*%
%TA.AperFunction,ComponentPad*%
%ADD16C,1.600000*%
%TD*%
%TA.AperFunction,ComponentPad*%
%ADD17RoundRect,0.250000X-0.550000X-0.550000X0.550000X-0.550000X0.550000X0.550000X-0.550000X0.550000X0*%
%TD*%
%TA.AperFunction,ViaPad*%
%ADD18C,0.800000*%
%TD*%
%TA.AperFunction,Conductor*%
%ADD19C,0.250000*%
%TD*%
G04 APERTURE END LIST*
D10*
%TO.P,B1_U1,1*%
%TO.N,N/C*%
X12700000Y-15240000D03*
D11*
%TO.P,B1_U1,2*%
X12700000Y-17780000D03*
%TO.P,B1_U1,3*%
X12700000Y-20320000D03*
%TO.P,B1_U1,4*%
X12700000Y-22860000D03*
%TO.P,B1_U1,5*%
%TO.N,B1_LED1_NET*%
X12700000Y-25400000D03*
%TO.P,B1_U1,6*%
%TO.N,B1_LED2_NET*%
X12700000Y-27940000D03*
%TO.P,B1_U1,7*%
%TO.N,B1_LED3_NET*%
X12700000Y-30480000D03*
%TO.P,B1_U1,8*%
%TO.N,B1_BTN1_NET*%
X12700000Y-33020000D03*
%TO.P,B1_U1,9*%
%TO.N,B1_BTN2_NET*%
X12700000Y-35560000D03*
%TO.P,B1_U1,10*%
%TO.N,B1_IO_D7*%
X12700000Y-38100000D03*
%TO.P,B1_U1,11*%
%TO.N,B1_IO_D8*%
X12700000Y-40640000D03*
%TO.P,B1_U1,12*%
%TO.N,B1_IO_D9*%
X12700000Y-43180000D03*
%TO.P,B1_U1,13*%
%TO.N,B1_IO_D10*%
X12700000Y-45720000D03*
%TO.P,B1_U1,14*%
%TO.N,B1_IO_D11*%
X12700000Y-48260000D03*
%TO.P,B1_U1,15*%
%TO.N,B1_IO_D12*%
X12700000Y-50800000D03*
%TO.P,B1_U1,16*%
%TO.N,B1_IO_D13*%
X27940000Y-50800000D03*
%TO.P,B1_U1,17*%
%TO.N,N/C*%
X27940000Y-48260000D03*
%TO.P,B1_U1,18*%
X27940000Y-45720000D03*
%TO.P,B1_U1,19*%
X27940000Y-43180000D03*
%TO.P,B1_U1,20*%
X27940000Y-40640000D03*
%TO.P,B1_U1,21*%
X27940000Y-38100000D03*
%TO.P,B1_U1,22*%
X27940000Y-35560000D03*
%TO.P,B1_U1,23*%
X27940000Y-33020000D03*
%TO.P,B1_U1,24*%
X27940000Y-30480000D03*
%TO.P,B1_U1,25*%
X27940000Y-27940000D03*
%TO.P,B1_U1,26*%
X27940000Y-25400000D03*
%TO.P,B1_U1,27*%
%TO.N,+5V*%
X27940000Y-22860000D03*
%TO.P,B1_U1,28*%
%TO.N,N/C*%
X27940000Y-20320000D03*
%TO.P,B1_U1,29*%
%TO.N,GND*%
X27940000Y-17780000D03*
%TO.P,B1_U1,30*%
%TO.N,N/C*%
X27940000Y-15240000D03*
%TD*%
D12*
%TO.P,B1_J1,1*%
%TO.N,+5V*%
X39370000Y-12700000D03*
D13*
%TO.P,B1_J1,2*%
%TO.N,GND*%
X39370000Y-15240000D03*
%TO.P,B1_J1,3*%
%TO.N,B1_BTN1_NET*%
X39370000Y-17780000D03*
%TO.P,B1_J1,4*%
%TO.N,B1_BTN2_NET*%
X39370000Y-20320000D03*
%TO.P,B1_J1,5*%
%TO.N,B1_IO_D7*%
X39370000Y-22860000D03*
%TO.P,B1_J1,6*%
%TO.N,B1_IO_D8*%
X39370000Y-25400000D03*
%TD*%
D12*
%TO.P,B1_J2,1*%
%TO.N,B1_IO_D9*%
X52070000Y-12700000D03*
D13*
%TO.P,B1_J2,2*%
%TO.N,B1_IO_D10*%
X52070000Y-15240000D03*
%TO.P,B1_J2,3*%
%TO.N,B1_IO_D11*%
X52070000Y-17780000D03*
%TO.P,B1_J2,4*%
%TO.N,B1_IO_D12*%
X52070000Y-20320000D03*
%TO.P,B1_J2,5*%
%TO.N,B1_IO_D13*%
X52070000Y-22860000D03*
%TO.P,B1_J2,6*%
%TO.N,GND*%
X52070000Y-25400000D03*
%TD*%
D14*
%TO.P,B1_D1,1*%
%TO.N,GND*%
X64770000Y-13970000D03*
D15*
%TO.P,B1_D1,2*%
%TO.N,B1_LED1_A*%
X67310000Y-13970000D03*
%TD*%
D14*
%TO.P,B1_D2,1*%
%TO.N,GND*%
X80010000Y-13970000D03*
D15*
%TO.P,B1_D2,2*%
%TO.N,B1_LED2_A*%
X82550000Y-13970000D03*
%TD*%
D14*
%TO.P,B1_D3,1*%
%TO.N,GND*%
X95250000Y-13970000D03*
D15*
%TO.P,B1_D3,2*%
%TO.N,B1_LED3_A*%
X97790000Y-13970000D03*
%TD*%
D16*
%TO.P,B1_R1,1*%
%TO.N,B1_LED1_NET*%
X109220000Y-12700000D03*
%TO.P,B1_R1,2*%
%TO.N,B1_LED1_A*%
X116840000Y-12700000D03*
%TD*%
%TO.P,B1_R2,1*%
%TO.N,B1_LED2_NET*%
X11430000Y-67310000D03*
%TO.P,B1_R2,2*%
%TO.N,B1_LED2_A*%
X19050000Y-67310000D03*
%TD*%
%TO.P,B1_R3,1*%
%TO.N,B1_LED3_NET*%
X30480000Y-67310000D03*
%TO.P,B1_R3,2*%
%TO.N,B1_LED3_A*%
X38100000Y-67310000D03*
%TD*%
%TO.P,B1_R4,1*%
%TO.N,B1_BTN1_NET*%
X49530000Y-67310000D03*
%TO.P,B1_R4,2*%
%TO.N,GND*%
X57150000Y-67310000D03*
%TD*%
%TO.P,B1_R5,1*%
%TO.N,B1_BTN2_NET*%
X68580000Y-67310000D03*
%TO.P,B1_R5,2*%
%TO.N,GND*%
X76200000Y-67310000D03*
%TD*%
D17*
%TO.P,B2_U1A,1*%
%TO.N,B2_LM358_L_FEEDBACK*%
X87630000Y-67310000D03*
D16*
%TO.P,B2_U1A,2*%
X87630000Y-69850000D03*
%TO.P,B2_U1A,3*%
%TO.N,B2_LM358_L_IN*%
X87630000Y-72390000D03*
%TO.P,B2_U1A,4*%
%TO.N,GND*%
X87630000Y-74930000D03*
%TO.P,B2_U1A,5*%
%TO.N,N/C*%
X95250000Y-74930000D03*
%TO.P,B2_U1A,6*%
X95250000Y-72390000D03*
%TO.P,B2_U1A,7*%
X95250000Y-69850000D03*
%TO.P,B2_U1A,8*%
%TO.N,+5V*%
X95250000Y-67310000D03*
%TD*%
D17*
%TO.P,B2_U1B,1*%
%TO.N,N/C*%
X106680000Y-67310000D03*
D16*
%TO.P,B2_U1B,2*%
X106680000Y-69850000D03*
%TO.P,B2_U1B,3*%
X106680000Y-72390000D03*
%TO.P,B2_U1B,4*%
%TO.N,GND*%
X106680000Y-74930000D03*
%TO.P,B2_U1B,5*%
%TO.N,B2_LM358_R_IN*%
X114300000Y-74930000D03*
%TO.P,B2_U1B,6*%
%TO.N,B2_LM358_R_FEEDBACK*%
X114300000Y-72390000D03*
%TO.P,B2_U1B,7*%
X114300000Y-69850000D03*
%TO.P,B2_U1B,8*%
%TO.N,+5V*%
X114300000Y-67310000D03*
%TD*%
D14*
%TO.P,B2_D1,1*%
%TO.N,GND*%
X12700000Y-87630000D03*
D15*
%TO.P,B2_D1,2*%
%TO.N,+5V*%
X15240000Y-87630000D03*
%TD*%
D14*
%TO.P,B2_D2,1*%
%TO.N,GND*%
X27940000Y-87630000D03*
D15*
%TO.P,B2_D2,2*%
%TO.N,+5V*%
X30480000Y-87630000D03*
%TD*%
D16*
%TO.P,B2_C1,1*%
%TO.N,B2_AUDIO_L_IN_RAW*%
X43180000Y-86360000D03*
%TO.P,B2_C1,2*%
%TO.N,B2_AUDIO_L_AC*%
X45680000Y-86360000D03*
%TD*%
%TO.P,B2_C2,1*%
%TO.N,B2_AUDIO_R_IN_RAW*%
X57150000Y-86360000D03*
%TO.P,B2_C2,2*%
%TO.N,B2_AUDIO_R_AC*%
X59650000Y-86360000D03*
%TD*%
%TO.P,B2_C3,1*%
%TO.N,B2_LM358_L_FEEDBACK*%
X71120000Y-86360000D03*
%TO.P,B2_C3,2*%
%TO.N,B2_PAM_L_IN*%
X73620000Y-86360000D03*
%TD*%
%TO.P,B2_C4,1*%
%TO.N,B2_LM358_R_FEEDBACK*%
X85090000Y-86360000D03*
%TO.P,B2_C4,2*%
%TO.N,B2_PAM_R_IN*%
X87590000Y-86360000D03*
%TD*%
%TO.P,B2_C5,1*%
%TO.N,+5V*%
X99060000Y-86360000D03*
%TO.P,B2_C5,2*%
%TO.N,GND*%
X101560000Y-86360000D03*
%TD*%
%TO.P,B2_C6,1*%
%TO.N,+5V*%
X113030000Y-86360000D03*
%TO.P,B2_C6,2*%
%TO.N,GND*%
X115530000Y-86360000D03*
%TD*%
%TO.P,B2_C7,1*%
%TO.N,B2_PAM_L_IN*%
X12700000Y-101600000D03*
%TO.P,B2_C7,2*%
%TO.N,GND*%
X15200000Y-101600000D03*
%TD*%
%TO.P,B2_C8,1*%
%TO.N,B2_PAM_R_IN*%
X26670000Y-101600000D03*
%TO.P,B2_C8,2*%
%TO.N,GND*%
X29170000Y-101600000D03*
%TD*%
%TO.P,B2_R1,1*%
%TO.N,B2_AUDIO_L_VOL*%
X39370000Y-101600000D03*
%TO.P,B2_R1,2*%
%TO.N,B2_LM358_L_IN*%
X46990000Y-101600000D03*
%TD*%
%TO.P,B2_R2,1*%
%TO.N,B2_LM358_L_FEEDBACK*%
X58420000Y-101600000D03*
%TO.P,B2_R2,2*%
%TO.N,N/C*%
X66040000Y-101600000D03*
%TD*%
%TO.P,B2_R3,1*%
%TO.N,B2_AUDIO_R_VOL*%
X77470000Y-101600000D03*
%TO.P,B2_R3,2*%
%TO.N,B2_LM358_R_IN*%
X85090000Y-101600000D03*
%TD*%
%TO.P,B2_R4,1*%
%TO.N,B2_LM358_R_FEEDBACK*%
X96520000Y-101600000D03*
%TO.P,B2_R4,2*%
%TO.N,N/C*%
X104140000Y-101600000D03*
%TD*%
%TO.P,B2_R5,1*%
%TO.N,+5V*%
X11430000Y-113030000D03*
%TO.P,B2_R5,2*%
%TO.N,B2_LM358_L_IN*%
X19050000Y-113030000D03*
%TD*%
%TO.P,B2_R6,1*%
%TO.N,B2_LM358_L_IN*%
X30480000Y-113030000D03*
%TO.P,B2_R6,2*%
%TO.N,GND*%
X38100000Y-113030000D03*
%TD*%
%TO.P,B2_R7,1*%
%TO.N,+5V*%
X49530000Y-113030000D03*
%TO.P,B2_R7,2*%
%TO.N,B2_LM358_R_IN*%
X57150000Y-113030000D03*
%TD*%
%TO.P,B2_R8,1*%
%TO.N,B2_LM358_R_IN*%
X68580000Y-113030000D03*
%TO.P,B2_R8,2*%
%TO.N,GND*%
X76200000Y-113030000D03*
%TD*%
D18*
%TO.N,GND*%
X31750000Y-17780000D03*
%TO.N,B2_LM358_L_IN*%
X36830000Y-104140000D03*
%TO.N,B2_LM358_R_FEEDBACK*%
X100330000Y-77470000D03*
%TO.N,B1_BTN2_NET*%
X36830000Y-69850000D03*
X12700000Y-66040000D03*
X41910000Y-63500000D03*
X41910000Y-66040000D03*
%TO.N,B1_IO_D10*%
X16510000Y-8890000D03*
X16510000Y-11430000D03*
%TO.N,B1_IO_D11*%
X40640000Y-34290000D03*
X40640000Y-31750000D03*
X31750000Y-48260000D03*
%TO.N,B1_IO_D12*%
X13970000Y-71120000D03*
%TO.N,B1_IO_D13*%
X44450000Y-8890000D03*
X27940000Y-11430000D03*
%TO.N,B1_LED2_A*%
X34290000Y-72390000D03*
X55880000Y-26670000D03*
%TO.N,B1_LED3_A*%
X46990000Y-68580000D03*
X48260000Y-66040000D03*
X48260000Y-27940000D03*
%TO.N,B2_PAM_L_IN*%
X35560000Y-102870000D03*
X69850000Y-88900000D03*
%TO.N,B2_PAM_R_IN*%
X68580000Y-90170000D03*
%TD*%
%TO.N,B1_IO_D7*%
D19*
X39370000Y-22860000D02*
X30480000Y-22860000D01*
X30480000Y-22860000D02*
X30480000Y-13970000D01*
X30480000Y-13970000D02*
X29210000Y-13970000D01*
X29210000Y-13970000D02*
X29210000Y-12700000D01*
X29210000Y-12700000D02*
X15240000Y-12700000D01*
X15240000Y-12700000D02*
X15240000Y-36830000D01*
X15240000Y-36830000D02*
X13970000Y-36830000D01*
X13970000Y-36830000D02*
X13970000Y-38100000D01*
X13970000Y-38100000D02*
X12700000Y-38100000D01*
%TO.N,B1_IO_D8*%
X39370000Y-25400000D02*
X30480000Y-25400000D01*
X30480000Y-25400000D02*
X30480000Y-52070000D01*
X30480000Y-52070000D02*
X29210000Y-52070000D01*
X29210000Y-52070000D02*
X29210000Y-53340000D01*
X29210000Y-53340000D02*
X15240000Y-53340000D01*
X15240000Y-53340000D02*
X15240000Y-41910000D01*
X15240000Y-41910000D02*
X13970000Y-41910000D01*
X13970000Y-41910000D02*
X13970000Y-40640000D01*
X13970000Y-40640000D02*
X12700000Y-40640000D01*
%TO.N,GND*%
X64770000Y-13970000D02*
X54610000Y-13970000D01*
X54610000Y-13970000D02*
X54610000Y-10160000D01*
X54610000Y-10160000D02*
X31750000Y-10160000D01*
X31750000Y-10160000D02*
X31750000Y-17780000D01*
X80010000Y-13970000D02*
X69850000Y-13970000D01*
X69850000Y-13970000D02*
X69850000Y-11430000D01*
X69850000Y-11430000D02*
X64770000Y-11430000D01*
X64770000Y-11430000D02*
X64770000Y-13970000D01*
X95250000Y-13970000D02*
X85090000Y-13970000D01*
X85090000Y-13970000D02*
X85090000Y-11430000D01*
X85090000Y-11430000D02*
X80010000Y-11430000D01*
X80010000Y-11430000D02*
X80010000Y-13970000D01*
X57150000Y-67310000D02*
X57150000Y-13970000D01*
X76200000Y-67310000D02*
X71120000Y-67310000D01*
X71120000Y-67310000D02*
X71120000Y-66040000D01*
X71120000Y-66040000D02*
X69850000Y-66040000D01*
X69850000Y-66040000D02*
X69850000Y-64770000D01*
X69850000Y-64770000D02*
X57150000Y-64770000D01*
X39370000Y-15240000D02*
X31750000Y-15240000D01*
X52070000Y-25400000D02*
X57150000Y-25400000D01*
X87630000Y-74930000D02*
X86360000Y-74930000D01*
X86360000Y-74930000D02*
X86360000Y-73660000D01*
X86360000Y-73660000D02*
X85090000Y-73660000D01*
X85090000Y-73660000D02*
X85090000Y-67310000D01*
X85090000Y-67310000D02*
X76200000Y-67310000D01*
X106680000Y-74930000D02*
X97790000Y-74930000D01*
X97790000Y-74930000D02*
X97790000Y-76200000D01*
X97790000Y-76200000D02*
X96520000Y-76200000D01*
X96520000Y-76200000D02*
X96520000Y-77470000D01*
X96520000Y-77470000D02*
X93980000Y-77470000D01*
X93980000Y-77470000D02*
X93980000Y-76200000D01*
X93980000Y-76200000D02*
X92710000Y-76200000D01*
X92710000Y-76200000D02*
X92710000Y-74930000D01*
X92710000Y-74930000D02*
X87630000Y-74930000D01*
X101560000Y-86360000D02*
X101600000Y-86360000D01*
X101600000Y-86360000D02*
X101600000Y-74930000D01*
X115530000Y-86360000D02*
X115570000Y-86360000D01*
X115570000Y-86360000D02*
X115570000Y-85090000D01*
X115570000Y-85090000D02*
X114300000Y-85090000D01*
X114300000Y-85090000D02*
X114300000Y-83820000D01*
X114300000Y-83820000D02*
X101600000Y-83820000D01*
X15200000Y-101600000D02*
X15240000Y-101600000D01*
X15240000Y-101600000D02*
X24130000Y-101600000D01*
X24130000Y-101600000D02*
X24130000Y-100330000D01*
X24130000Y-100330000D02*
X25400000Y-100330000D01*
X25400000Y-100330000D02*
X25400000Y-99060000D01*
X25400000Y-99060000D02*
X27940000Y-99060000D01*
X27940000Y-99060000D02*
X27940000Y-85090000D01*
X27940000Y-85090000D02*
X41910000Y-85090000D01*
X41910000Y-85090000D02*
X41910000Y-83820000D01*
X41910000Y-83820000D02*
X57150000Y-83820000D01*
X57150000Y-83820000D02*
X57150000Y-67310000D01*
X29170000Y-101600000D02*
X29210000Y-101600000D01*
X29210000Y-101600000D02*
X29210000Y-100330000D01*
X29210000Y-100330000D02*
X27940000Y-100330000D01*
X27940000Y-100330000D02*
X27940000Y-99060000D01*
X38100000Y-113030000D02*
X38100000Y-102870000D01*
X38100000Y-102870000D02*
X36830000Y-102870000D01*
X36830000Y-102870000D02*
X36830000Y-101600000D01*
X36830000Y-101600000D02*
X29210000Y-101600000D01*
X76200000Y-113030000D02*
X71120000Y-113030000D01*
X71120000Y-113030000D02*
X71120000Y-111760000D01*
X71120000Y-111760000D02*
X69850000Y-111760000D01*
X69850000Y-111760000D02*
X69850000Y-110490000D01*
X69850000Y-110490000D02*
X38100000Y-110490000D01*
X12700000Y-87630000D02*
X12700000Y-90170000D01*
X12700000Y-90170000D02*
X15240000Y-90170000D01*
X15240000Y-90170000D02*
X15240000Y-101600000D01*
%TO.N,B2_LM358_L_FEEDBACK*%
X87630000Y-69850000D02*
X87630000Y-67310000D01*
%TO.N,B2_LM358_L_IN*%
X19050000Y-113030000D02*
X35560000Y-113030000D01*
X35560000Y-113030000D02*
X35560000Y-111760000D01*
X35560000Y-111760000D02*
X36830000Y-111760000D01*
X36830000Y-111760000D02*
X36830000Y-104140000D01*
%TO.N,B2_LM358_R_FEEDBACK*%
X114300000Y-69850000D02*
X114300000Y-72390000D01*
X85090000Y-86360000D02*
X85090000Y-85090000D01*
X85090000Y-85090000D02*
X86360000Y-85090000D01*
X86360000Y-85090000D02*
X86360000Y-83820000D01*
X86360000Y-83820000D02*
X100330000Y-83820000D01*
X100330000Y-83820000D02*
X100330000Y-77470000D01*
X96520000Y-101600000D02*
X96520000Y-83820000D01*
%TO.N,B2_LM358_R_IN*%
X85090000Y-101600000D02*
X93980000Y-101600000D01*
X93980000Y-101600000D02*
X93980000Y-102870000D01*
X93980000Y-102870000D02*
X95250000Y-102870000D01*
X95250000Y-102870000D02*
X95250000Y-104140000D01*
X95250000Y-104140000D02*
X114300000Y-104140000D01*
X114300000Y-104140000D02*
X114300000Y-88900000D01*
X114300000Y-88900000D02*
X116840000Y-88900000D01*
X116840000Y-88900000D02*
X116840000Y-87630000D01*
X116840000Y-87630000D02*
X118110000Y-87630000D01*
X118110000Y-87630000D02*
X118110000Y-85090000D01*
X118110000Y-85090000D02*
X116840000Y-85090000D01*
X116840000Y-85090000D02*
X116840000Y-83820000D01*
X116840000Y-83820000D02*
X115570000Y-83820000D01*
X115570000Y-83820000D02*
X115570000Y-82550000D01*
X115570000Y-82550000D02*
X114300000Y-82550000D01*
X114300000Y-82550000D02*
X114300000Y-74930000D01*
X57150000Y-113030000D02*
X69850000Y-113030000D01*
X69850000Y-113030000D02*
X69850000Y-114300000D01*
X69850000Y-114300000D02*
X74930000Y-114300000D01*
X74930000Y-114300000D02*
X74930000Y-115570000D01*
X74930000Y-115570000D02*
X85090000Y-115570000D01*
X85090000Y-115570000D02*
X85090000Y-101600000D01*
%TO.N,B1_BTN1_NET*%
X49530000Y-67310000D02*
X40640000Y-67310000D01*
X40640000Y-67310000D02*
X40640000Y-66040000D01*
X40640000Y-66040000D02*
X39370000Y-66040000D01*
X39370000Y-66040000D02*
X39370000Y-64770000D01*
X39370000Y-64770000D02*
X12700000Y-64770000D01*
X12700000Y-64770000D02*
X12700000Y-53340000D01*
X12700000Y-53340000D02*
X11430000Y-53340000D01*
X11430000Y-53340000D02*
X11430000Y-52070000D01*
X11430000Y-52070000D02*
X10160000Y-52070000D01*
X10160000Y-52070000D02*
X10160000Y-34290000D01*
X10160000Y-34290000D02*
X11430000Y-34290000D01*
X11430000Y-34290000D02*
X11430000Y-33020000D01*
X11430000Y-33020000D02*
X12700000Y-33020000D01*
X39370000Y-17780000D02*
X41910000Y-17780000D01*
X41910000Y-17780000D02*
X41910000Y-33020000D01*
X41910000Y-33020000D02*
X39370000Y-33020000D01*
X39370000Y-33020000D02*
X39370000Y-64770000D01*
%TO.N,B1_BTN2_NET*%
X36830000Y-69850000D02*
X13970000Y-69850000D01*
X13970000Y-69850000D02*
X13970000Y-66040000D01*
X13970000Y-66040000D02*
X12700000Y-66040000D01*
X41910000Y-63500000D02*
X41910000Y-66040000D01*
%TO.N,B1_IO_D10*%
X16510000Y-8890000D02*
X16510000Y-11430000D01*
%TO.N,B1_IO_D11*%
X52070000Y-17780000D02*
X43180000Y-17780000D01*
X43180000Y-17780000D02*
X43180000Y-34290000D01*
X43180000Y-34290000D02*
X40640000Y-34290000D01*
X40640000Y-31750000D02*
X31750000Y-31750000D01*
X31750000Y-31750000D02*
X31750000Y-48260000D01*
%TO.N,B1_IO_D12*%
X52070000Y-20320000D02*
X49530000Y-20320000D01*
X49530000Y-20320000D02*
X49530000Y-50800000D01*
X49530000Y-50800000D02*
X52070000Y-50800000D01*
X52070000Y-50800000D02*
X52070000Y-68580000D01*
X52070000Y-68580000D02*
X50800000Y-68580000D01*
X50800000Y-68580000D02*
X50800000Y-69850000D01*
X50800000Y-69850000D02*
X38100000Y-69850000D01*
X38100000Y-69850000D02*
X38100000Y-71120000D01*
X38100000Y-71120000D02*
X13970000Y-71120000D01*
%TO.N,B1_IO_D13*%
X44450000Y-8890000D02*
X27940000Y-8890000D01*
X27940000Y-8890000D02*
X27940000Y-11430000D01*
%TO.N,B1_LED1_A*%
X116840000Y-12700000D02*
X111760000Y-12700000D01*
X111760000Y-12700000D02*
X111760000Y-13970000D01*
X111760000Y-13970000D02*
X110490000Y-13970000D01*
X110490000Y-13970000D02*
X110490000Y-15240000D01*
X110490000Y-15240000D02*
X100330000Y-15240000D01*
X100330000Y-15240000D02*
X100330000Y-16510000D01*
X100330000Y-16510000D02*
X67310000Y-16510000D01*
X67310000Y-16510000D02*
X67310000Y-13970000D01*
%TO.N,B1_LED1_NET*%
X109220000Y-12700000D02*
X100330000Y-12700000D01*
X100330000Y-12700000D02*
X100330000Y-11430000D01*
X100330000Y-11430000D02*
X86360000Y-11430000D01*
X86360000Y-11430000D02*
X86360000Y-10160000D01*
X86360000Y-10160000D02*
X55880000Y-10160000D01*
X55880000Y-10160000D02*
X55880000Y-8890000D01*
X55880000Y-8890000D02*
X45720000Y-8890000D01*
X45720000Y-8890000D02*
X45720000Y-7620000D01*
X45720000Y-7620000D02*
X12700000Y-7620000D01*
X12700000Y-7620000D02*
X12700000Y-12700000D01*
X12700000Y-12700000D02*
X11430000Y-12700000D01*
X11430000Y-12700000D02*
X11430000Y-13970000D01*
X11430000Y-13970000D02*
X10160000Y-13970000D01*
X10160000Y-13970000D02*
X10160000Y-24130000D01*
X10160000Y-24130000D02*
X11430000Y-24130000D01*
X11430000Y-24130000D02*
X11430000Y-25400000D01*
X11430000Y-25400000D02*
X12700000Y-25400000D01*
%TO.N,B1_LED2_A*%
X34290000Y-72390000D02*
X54610000Y-72390000D01*
X54610000Y-72390000D02*
X54610000Y-66040000D01*
X54610000Y-66040000D02*
X55880000Y-66040000D01*
X55880000Y-66040000D02*
X55880000Y-26670000D01*
%TO.N,B1_LED2_NET*%
X11430000Y-67310000D02*
X11430000Y-54610000D01*
X11430000Y-54610000D02*
X10160000Y-54610000D01*
X10160000Y-54610000D02*
X10160000Y-53340000D01*
X10160000Y-53340000D02*
X8890000Y-53340000D01*
X8890000Y-53340000D02*
X8890000Y-33020000D01*
X8890000Y-33020000D02*
X10160000Y-33020000D01*
X10160000Y-33020000D02*
X10160000Y-29210000D01*
X10160000Y-29210000D02*
X11430000Y-29210000D01*
X11430000Y-29210000D02*
X11430000Y-27940000D01*
X11430000Y-27940000D02*
X12700000Y-27940000D01*
%TO.N,B1_LED3_A*%
X38100000Y-67310000D02*
X39370000Y-67310000D01*
X39370000Y-67310000D02*
X39370000Y-68580000D01*
X39370000Y-68580000D02*
X46990000Y-68580000D01*
X48260000Y-66040000D02*
X48260000Y-27940000D01*
%TO.N,B2_PAM_L_IN*%
X73620000Y-86360000D02*
X73660000Y-86360000D01*
X12700000Y-101600000D02*
X12700000Y-102870000D01*
X12700000Y-102870000D02*
X13970000Y-102870000D01*
X13970000Y-102870000D02*
X13970000Y-104140000D01*
X13970000Y-104140000D02*
X35560000Y-104140000D01*
X35560000Y-104140000D02*
X35560000Y-102870000D01*
X69850000Y-88900000D02*
X73660000Y-88900000D01*
X73660000Y-88900000D02*
X73660000Y-86360000D01*
%TO.N,B2_PAM_R_IN*%
X87590000Y-86360000D02*
X87630000Y-86360000D01*
X68580000Y-90170000D02*
X87630000Y-90170000D01*
X87630000Y-90170000D02*
X87630000Y-86360000D01*
%TD*%
M02*
