M48
; DRILL file KiCad 10.0.4 date 2026-07-11T23:02:02
; FORMAT={-:-/ absolute / metric / decimal}
; #@! TF.CreationDate,2026-07-11T23:02:02+05:00
; #@! TF.GenerationSoftware,Kicad,Pcbnew,10.0.4
; #@! TF.FileFunction,MixedPlating,1,2
FMAT,2
METRIC
; #@! TA.AperFunction,Plated,PTH,ViaDrill
T1C0.400
; #@! TA.AperFunction,Plated,PTH,ComponentDrill
T2C0.800
; #@! TA.AperFunction,Plated,PTH,ComponentDrill
T3C0.900
; #@! TA.AperFunction,Plated,PTH,ComponentDrill
T4C1.100
; #@! TA.AperFunction,Plated,PTH,ComponentDrill
T5C1.300
%
G90
G05
T1
X26.67Y-34.29
X29.21Y-30.48
X49.53Y-27.94
X74.93Y-46.99
X81.28Y-48.26
X90.17Y-53.34
X100.33Y-50.8
X105.41Y-50.8
T2
X11.43Y-91.44
X12.7Y-31.75
X15.2Y-31.75
X19.05Y-91.44
X25.4Y-31.75
X27.94Y-76.2
X30.44Y-76.2
X30.48Y-91.44
X33.02Y-31.75
X38.1Y-91.44
X41.91Y-29.21
X41.91Y-76.2
X44.41Y-29.21
X44.41Y-76.2
X49.53Y-91.44
X54.61Y-29.21
X55.88Y-76.2
X57.11Y-29.21
X57.15Y-91.44
X58.38Y-76.2
X68.58Y-91.44
X69.85Y-31.75
X69.85Y-34.29
X69.85Y-36.83
X69.85Y-39.37
X69.85Y-41.91
X69.85Y-44.45
X69.85Y-46.99
X69.85Y-49.53
X69.85Y-76.2
X72.35Y-76.2
X76.2Y-91.44
X77.47Y-31.75
X77.47Y-34.29
X77.47Y-36.83
X77.47Y-39.37
X77.47Y-41.91
X77.47Y-44.45
X77.47Y-46.99
X77.47Y-49.53
X82.55Y-76.2
X87.63Y-91.44
X88.9Y-12.7
X88.9Y-31.75
X88.9Y-34.29
X88.9Y-36.83
X88.9Y-39.37
X88.9Y-41.91
X88.9Y-44.45
X88.9Y-46.99
X88.9Y-49.53
X90.17Y-76.2
X91.4Y-12.7
X95.25Y-91.44
X96.52Y-31.75
X96.52Y-34.29
X96.52Y-36.83
X96.52Y-39.37
X96.52Y-41.91
X96.52Y-44.45
X96.52Y-46.99
X96.52Y-49.53
X101.6Y-76.2
X102.87Y-12.7
X105.37Y-12.7
X106.68Y-91.44
X107.95Y-31.75
X107.95Y-34.29
X107.95Y-36.83
X107.95Y-39.37
X107.95Y-41.91
X107.95Y-44.45
X107.95Y-46.99
X107.95Y-49.53
X109.22Y-76.2
X114.3Y-91.44
X115.57Y-31.75
X115.57Y-34.29
X115.57Y-36.83
X115.57Y-39.37
X115.57Y-41.91
X115.57Y-44.45
X115.57Y-46.99
X115.57Y-49.53
T3
X12.7Y-62.23
X12.7Y-77.47
X15.24Y-62.23
X15.24Y-77.47
X27.94Y-62.23
X30.48Y-62.23
X33.02Y-13.97
X35.56Y-13.97
X43.18Y-62.23
X45.72Y-62.23
X58.42Y-62.23
X60.96Y-62.23
X73.66Y-62.23
X76.2Y-62.23
X88.9Y-62.23
X91.44Y-62.23
X104.14Y-62.23
X106.68Y-62.23
T4
X49.53Y-13.97
X52.07Y-13.97
X54.61Y-13.97
X66.04Y-12.7
X76.2Y-12.7
T5
X13.97Y-16.51
X18.97Y-16.51
M30
