M48
; DRILL file KiCad 10.0.4 date 2026-07-11T23:02:09
; FORMAT={-:-/ absolute / metric / decimal}
; #@! TF.CreationDate,2026-07-11T23:02:09+05:00
; #@! TF.GenerationSoftware,Kicad,Pcbnew,10.0.4
; #@! TF.FileFunction,MixedPlating,1,2
FMAT,2
METRIC
; #@! TA.AperFunction,Plated,PTH,ViaDrill
T1C0.400
; #@! TA.AperFunction,Plated,PTH,ComponentDrill
T2C0.750
; #@! TA.AperFunction,Plated,PTH,ComponentDrill
T3C0.800
; #@! TA.AperFunction,Plated,PTH,ComponentDrill
T4C0.900
; #@! TA.AperFunction,Plated,PTH,ComponentDrill
T5C1.000
; #@! TA.AperFunction,Plated,PTH,ComponentDrill
T6C1.100
; #@! TA.AperFunction,Plated,PTH,ComponentDrill
T7C1.300
%
G90
G05
T1
X6.35Y-40.64
X7.62Y-38.1
X8.89Y-33.02
X10.16Y-116.84
X21.59Y-99.06
X22.86Y-99.06
X24.13Y-30.48
X26.67Y-116.84
X39.37Y-102.87
X39.37Y-115.57
X58.42Y-90.17
X63.5Y-73.66
X69.85Y-104.14
X72.39Y-99.06
X72.39Y-104.14
X92.71Y-69.85
X92.71Y-72.39
X106.68Y-71.12
X119.38Y-85.09
X121.92Y-85.09
T2
X12.7Y-87.63
X13.97Y-87.63
X15.24Y-87.63
X26.67Y-87.63
X27.94Y-87.63
X29.21Y-87.63
X120.65Y-68.58
X121.92Y-68.58
X123.19Y-68.58
T3
X11.43Y-111.76
X11.43Y-123.19
X12.7Y-100.33
X15.2Y-100.33
X19.05Y-111.76
X19.05Y-123.19
X26.67Y-100.33
X29.17Y-100.33
X30.48Y-111.76
X30.48Y-123.19
X38.1Y-111.76
X38.1Y-123.19
X40.64Y-100.33
X43.14Y-100.33
X49.53Y-111.76
X54.61Y-100.33
X57.11Y-100.33
X57.15Y-111.76
X68.58Y-100.33
X68.58Y-111.76
X71.08Y-100.33
X76.2Y-111.76
X81.28Y-100.33
X87.63Y-111.76
X88.9Y-100.33
X95.25Y-111.76
X100.33Y-100.33
X106.68Y-111.76
X107.95Y-100.33
X114.3Y-111.76
X119.38Y-100.33
X127.0Y-86.36
X127.0Y-100.33
X129.5Y-86.36
T4
X86.36Y-68.58
X88.9Y-68.58
T5
X12.7Y-15.24
X12.7Y-17.78
X12.7Y-20.32
X12.7Y-22.86
X12.7Y-25.4
X12.7Y-27.94
X12.7Y-30.48
X12.7Y-33.02
X12.7Y-35.56
X12.7Y-38.1
X12.7Y-40.64
X12.7Y-43.18
X12.7Y-45.72
X12.7Y-48.26
X12.7Y-50.8
X27.94Y-15.24
X27.94Y-17.78
X27.94Y-20.32
X27.94Y-22.86
X27.94Y-25.4
X27.94Y-27.94
X27.94Y-30.48
X27.94Y-33.02
X27.94Y-35.56
X27.94Y-38.1
X27.94Y-40.64
X27.94Y-43.18
X27.94Y-45.72
X27.94Y-48.26
X27.94Y-50.8
X39.37Y-12.7
X39.37Y-15.24
X39.37Y-17.78
X39.37Y-20.32
X52.07Y-12.7
X52.07Y-15.24
X52.07Y-17.78
X52.07Y-20.32
X73.66Y-67.31
X73.66Y-69.85
X73.66Y-72.39
T6
X39.37Y-86.36
X49.53Y-86.36
X60.96Y-86.36
X71.12Y-86.36
X82.55Y-86.36
X92.71Y-86.36
X102.87Y-68.58
X104.14Y-86.36
X105.41Y-68.58
X107.95Y-68.58
X114.3Y-86.36
T7
X13.97Y-71.12
X18.97Y-71.12
X34.29Y-71.12
X39.29Y-71.12
X54.61Y-71.12
X59.61Y-71.12
X66.04Y-16.51
X71.04Y-16.51
X86.36Y-16.51
X91.36Y-16.51
X106.68Y-16.51
X111.68Y-16.51
M30
