%TF.GenerationSoftware,KiCad,Pcbnew,10.0.4*%
%TF.CreationDate,2026-07-11T23:02:08+05:00*%
%TF.ProjectId,OPEN_THIS_PROJECT__n02__COMBINATION,4f50454e-5f54-4484-9953-5f50524f4a45,rev?*%
%TF.SameCoordinates,Original*%
%TF.FileFunction,Copper,L1,Top*%
%TF.FilePolarity,Positive*%
%FSLAX46Y46*%
G04 Gerber Fmt 4.6, Leading zero omitted, Abs format (unit mm)*
G04 Created by KiCad (PCBNEW 10.0.4) date 2026-07-11 23:02:08*
%MOMM*%
%LPD*%
G01*
G04 APERTURE LIST*
G04 Aperture macros list*
%AMRoundRect*
0 Rectangle with rounded corners*
0 $1 Rounding radius*
0 $2 $3 $4 $5 $6 $7 $8 $9 X,Y pos of 4 corners*
0 Add a 4 corners polygon primitive as box body*
4,1,4,$2,$3,$4,$5,$6,$7,$8,$9,$2,$3,0*
0 Add four circle primitives for the rounded corners*
1,1,$1+$1,$2,$3*
1,1,$1+$1,$4,$5*
1,1,$1+$1,$6,$7*
1,1,$1+$1,$8,$9*
0 Add four rect primitives between the rounded corners*
20,1,$1+$1,$2,$3,$4,$5,0*
20,1,$1+$1,$4,$5,$6,$7,0*
20,1,$1+$1,$6,$7,$8,$9,0*
20,1,$1+$1,$8,$9,$2,$3,0*%
G04 Aperture macros list end*
%TA.AperFunction,ComponentPad*%
%ADD10R,1.600000X1.600000*%
%TD*%
%TA.AperFunction,ComponentPad*%
%ADD11O,1.600000X1.600000*%
%TD*%
%TA.AperFunction,ComponentPad*%
%ADD12R,1.700000X1.700000*%
%TD*%
%TA.AperFunction,ComponentPad*%
%ADD13C,1.700000*%
%TD*%
%TA.AperFunction,ComponentPad*%
%ADD14RoundRect,0.249999X-1.250001X-1.250001X1.250001X-1.250001X1.250001X1.250001X-1.250001X1.250001X0*%
%TD*%
%TA.AperFunction,ComponentPad*%
%ADD15C,3.000000*%
%TD*%
%TA.AperFunction,ComponentPad*%
%ADD16R,1.800000X1.800000*%
%TD*%
%TA.AperFunction,ComponentPad*%
%ADD17C,1.800000*%
%TD*%
%TA.AperFunction,ComponentPad*%
%ADD18R,1.905000X2.000000*%
%TD*%
%TA.AperFunction,ComponentPad*%
%ADD19O,1.905000X2.000000*%
%TD*%
%TA.AperFunction,ComponentPad*%
%ADD20R,1.050000X1.500000*%
%TD*%
%TA.AperFunction,ComponentPad*%
%ADD21O,1.050000X1.500000*%
%TD*%
%TA.AperFunction,ComponentPad*%
%ADD22RoundRect,0.249999X-0.850001X-0.850001X0.850001X-0.850001X0.850001X0.850001X-0.850001X0.850001X0*%
%TD*%
%TA.AperFunction,ComponentPad*%
%ADD23C,2.200000*%
%TD*%
%TA.AperFunction,ComponentPad*%
%ADD24C,1.600000*%
%TD*%
%TA.AperFunction,ViaPad*%
%ADD25C,0.800000*%
%TD*%
%TA.AperFunction,Conductor*%
%ADD26C,0.250000*%
%TD*%
G04 APERTURE END LIST*
D10*
%TO.P,C002_ARDUINO_NANO,1*%
%TO.N,NET_C002_UART_TX*%
X12700000Y-15240000D03*
D11*
%TO.P,C002_ARDUINO_NANO,2*%
%TO.N,NET_C002_UART_RX*%
X12700000Y-17780000D03*
%TO.P,C002_ARDUINO_NANO,3*%
%TO.N,N/C*%
X12700000Y-20320000D03*
%TO.P,C002_ARDUINO_NANO,4*%
%TO.N,NET_C002_GND*%
X12700000Y-22860000D03*
%TO.P,C002_ARDUINO_NANO,5*%
%TO.N,NET_C002_CAN_INT*%
X12700000Y-25400000D03*
%TO.P,C002_ARDUINO_NANO,6*%
%TO.N,N/C*%
X12700000Y-27940000D03*
%TO.P,C002_ARDUINO_NANO,7*%
%TO.N,NET_C002_CAN_RESET*%
X12700000Y-30480000D03*
%TO.P,C002_ARDUINO_NANO,8*%
%TO.N,NET_C002_MOTOR_PWM*%
X12700000Y-33020000D03*
%TO.P,C002_ARDUINO_NANO,9*%
%TO.N,N/C*%
X12700000Y-35560000D03*
%TO.P,C002_ARDUINO_NANO,10*%
%TO.N,NET_C002_RELAY1_CTRL*%
X12700000Y-38100000D03*
%TO.P,C002_ARDUINO_NANO,11*%
%TO.N,NET_C002_RELAY2_CTRL*%
X12700000Y-40640000D03*
%TO.P,C002_ARDUINO_NANO,12*%
%TO.N,N/C*%
X12700000Y-43180000D03*
%TO.P,C002_ARDUINO_NANO,13*%
%TO.N,NET_C002_CAN_SPI_CS*%
X12700000Y-45720000D03*
%TO.P,C002_ARDUINO_NANO,14*%
%TO.N,NET_C002_CAN_SPI_MOSI*%
X12700000Y-48260000D03*
%TO.P,C002_ARDUINO_NANO,15*%
%TO.N,NET_C002_CAN_SPI_MISO*%
X12700000Y-50800000D03*
%TO.P,C002_ARDUINO_NANO,16*%
%TO.N,NET_C002_CAN_SPI_SCK*%
X27940000Y-50800000D03*
%TO.P,C002_ARDUINO_NANO,17*%
%TO.N,N/C*%
X27940000Y-48260000D03*
%TO.P,C002_ARDUINO_NANO,18*%
X27940000Y-45720000D03*
%TO.P,C002_ARDUINO_NANO,19*%
%TO.N,NET_C002_CURRENT_ADC*%
X27940000Y-43180000D03*
%TO.P,C002_ARDUINO_NANO,20*%
%TO.N,N/C*%
X27940000Y-40640000D03*
%TO.P,C002_ARDUINO_NANO,21*%
X27940000Y-38100000D03*
%TO.P,C002_ARDUINO_NANO,22*%
X27940000Y-35560000D03*
%TO.P,C002_ARDUINO_NANO,23*%
%TO.N,NET_C002_I2C_SDA*%
X27940000Y-33020000D03*
%TO.P,C002_ARDUINO_NANO,24*%
%TO.N,NET_C002_I2C_SCL*%
X27940000Y-30480000D03*
%TO.P,C002_ARDUINO_NANO,25*%
%TO.N,N/C*%
X27940000Y-27940000D03*
%TO.P,C002_ARDUINO_NANO,26*%
X27940000Y-25400000D03*
%TO.P,C002_ARDUINO_NANO,27*%
%TO.N,NET_C002_5V*%
X27940000Y-22860000D03*
%TO.P,C002_ARDUINO_NANO,28*%
%TO.N,NET_C002_NANO_RST*%
X27940000Y-20320000D03*
%TO.P,C002_ARDUINO_NANO,29*%
%TO.N,NET_C002_GND*%
X27940000Y-17780000D03*
%TO.P,C002_ARDUINO_NANO,30*%
%TO.N,N/C*%
X27940000Y-15240000D03*
%TD*%
D12*
%TO.P,C002_I2C_HEADER,1*%
%TO.N,NET_C002_5V*%
X39370000Y-12700000D03*
D13*
%TO.P,C002_I2C_HEADER,2*%
%TO.N,NET_C002_GND*%
X39370000Y-15240000D03*
%TO.P,C002_I2C_HEADER,3*%
%TO.N,NET_C002_I2C_SDA*%
X39370000Y-17780000D03*
%TO.P,C002_I2C_HEADER,4*%
%TO.N,NET_C002_I2C_SCL*%
X39370000Y-20320000D03*
%TD*%
D12*
%TO.P,C002_UART_HEADER,1*%
%TO.N,NET_C002_5V*%
X52070000Y-12700000D03*
D13*
%TO.P,C002_UART_HEADER,2*%
%TO.N,NET_C002_GND*%
X52070000Y-15240000D03*
%TO.P,C002_UART_HEADER,3*%
%TO.N,NET_C002_UART_RX*%
X52070000Y-17780000D03*
%TO.P,C002_UART_HEADER,4*%
%TO.N,NET_C002_UART_TX*%
X52070000Y-20320000D03*
%TD*%
D14*
%TO.P,C002_SCREW_TERMINAL_R1_COM,1*%
%TO.N,NET_C002_RELAY1_COM*%
X66040000Y-16510000D03*
D15*
%TO.P,C002_SCREW_TERMINAL_R1_COM,2*%
%TO.N,N/C*%
X71040000Y-16510000D03*
%TD*%
D14*
%TO.P,C002_SCREW_TERMINAL_R1_NC,1*%
%TO.N,NET_C002_RELAY1_NC*%
X86360000Y-16510000D03*
D15*
%TO.P,C002_SCREW_TERMINAL_R1_NC,2*%
%TO.N,N/C*%
X91360000Y-16510000D03*
%TD*%
D14*
%TO.P,C002_SCREW_TERMINAL_R1_NO,1*%
%TO.N,NET_C002_RELAY1_NO*%
X106680000Y-16510000D03*
D15*
%TO.P,C002_SCREW_TERMINAL_R1_NO,2*%
%TO.N,N/C*%
X111680000Y-16510000D03*
%TD*%
D14*
%TO.P,C002_SCREW_TERMINAL_R2_COM,1*%
%TO.N,NET_C002_RELAY2_COM*%
X13970000Y-71120000D03*
D15*
%TO.P,C002_SCREW_TERMINAL_R2_COM,2*%
%TO.N,N/C*%
X18970000Y-71120000D03*
%TD*%
D14*
%TO.P,C002_SCREW_TERMINAL_R2_NC,1*%
%TO.N,NET_C002_RELAY2_NC*%
X34290000Y-71120000D03*
D15*
%TO.P,C002_SCREW_TERMINAL_R2_NC,2*%
%TO.N,N/C*%
X39290000Y-71120000D03*
%TD*%
D14*
%TO.P,C002_SCREW_TERMINAL_R2_NO,1*%
%TO.N,NET_C002_RELAY2_NO*%
X54610000Y-71120000D03*
D15*
%TO.P,C002_SCREW_TERMINAL_R2_NO,2*%
%TO.N,N/C*%
X59610000Y-71120000D03*
%TD*%
D12*
%TO.P,C002_CAN_TERMINAL,1*%
%TO.N,NET_C002_CANH*%
X73660000Y-67310000D03*
D13*
%TO.P,C002_CAN_TERMINAL,2*%
%TO.N,NET_C002_CANL*%
X73660000Y-69850000D03*
%TO.P,C002_CAN_TERMINAL,3*%
%TO.N,NET_C002_GND*%
X73660000Y-72390000D03*
%TD*%
D16*
%TO.P,C002_POWER_LED,1*%
%TO.N,NET_C002_GND*%
X86360000Y-68580000D03*
D17*
%TO.P,C002_POWER_LED,2*%
%TO.N,NET_C002_PWR_LED_A*%
X88900000Y-68580000D03*
%TD*%
D18*
%TO.P,C002_LM7805,1*%
%TO.N,NET_C002_VIN_PROTECTED*%
X102870000Y-68580000D03*
D19*
%TO.P,C002_LM7805,2*%
%TO.N,NET_C002_GND*%
X105410000Y-68580000D03*
%TO.P,C002_LM7805,3*%
%TO.N,NET_C002_5V*%
X107950000Y-68580000D03*
%TD*%
D20*
%TO.P,C002_BC547_RELAY_1,1*%
%TO.N,NET_C002_RELAY1_LOW*%
X120650000Y-68580000D03*
D21*
%TO.P,C002_BC547_RELAY_1,2*%
%TO.N,NET_C002_RELAY1_BASE*%
X121920000Y-68580000D03*
%TO.P,C002_BC547_RELAY_1,3*%
%TO.N,NET_C002_GND*%
X123190000Y-68580000D03*
%TD*%
D20*
%TO.P,C002_BC547_RELAY_2,1*%
%TO.N,NET_C002_RELAY2_LOW*%
X12700000Y-87630000D03*
D21*
%TO.P,C002_BC547_RELAY_2,2*%
%TO.N,NET_C002_RELAY2_BASE*%
X13970000Y-87630000D03*
%TO.P,C002_BC547_RELAY_2,3*%
%TO.N,NET_C002_GND*%
X15240000Y-87630000D03*
%TD*%
D20*
%TO.P,C002_IRLZ44N,1*%
%TO.N,NET_C002_MOTOR_GATE*%
X26670000Y-87630000D03*
D21*
%TO.P,C002_IRLZ44N,2*%
%TO.N,NET_C002_MOTOR_LOW*%
X27940000Y-87630000D03*
%TO.P,C002_IRLZ44N,3*%
%TO.N,NET_C002_GND*%
X29210000Y-87630000D03*
%TD*%
D22*
%TO.P,C002_D_1N4007,1*%
%TO.N,NET_C002_VIN_PROTECTED*%
X39370000Y-86360000D03*
D23*
%TO.P,C002_D_1N4007,2*%
%TO.N,NET_C002_VIN_FUSED*%
X49530000Y-86360000D03*
%TD*%
D22*
%TO.P,C002_FLYBACK_DIODE,1*%
%TO.N,NET_C002_MOTOR_PLUS*%
X60960000Y-86360000D03*
D23*
%TO.P,C002_FLYBACK_DIODE,2*%
%TO.N,NET_C002_MOTOR_LOW*%
X71120000Y-86360000D03*
%TD*%
D22*
%TO.P,C002_RELAY_FLYBACK_DIODE_1,1*%
%TO.N,NET_C002_5V*%
X82550000Y-86360000D03*
D23*
%TO.P,C002_RELAY_FLYBACK_DIODE_1,2*%
%TO.N,NET_C002_RELAY1_LOW*%
X92710000Y-86360000D03*
%TD*%
D22*
%TO.P,C002_RELAY_FLYBACK_DIODE_2,1*%
%TO.N,NET_C002_5V*%
X104140000Y-86360000D03*
D23*
%TO.P,C002_RELAY_FLYBACK_DIODE_2,2*%
%TO.N,NET_C002_RELAY2_LOW*%
X114300000Y-86360000D03*
%TD*%
D24*
%TO.P,C002_CAP_7805_IN,1*%
%TO.N,NET_C002_VIN_PROTECTED*%
X127000000Y-86360000D03*
%TO.P,C002_CAP_7805_IN,2*%
%TO.N,NET_C002_GND*%
X129500000Y-86360000D03*
%TD*%
%TO.P,C002_CAP_7805_OUT,1*%
%TO.N,NET_C002_5V*%
X12700000Y-100330000D03*
%TO.P,C002_CAP_7805_OUT,2*%
%TO.N,NET_C002_GND*%
X15200000Y-100330000D03*
%TD*%
%TO.P,C002_DECOUPLING_CAPACITOR_MAIN,1*%
%TO.N,NET_C002_5V*%
X26670000Y-100330000D03*
%TO.P,C002_DECOUPLING_CAPACITOR_MAIN,2*%
%TO.N,NET_C002_GND*%
X29170000Y-100330000D03*
%TD*%
%TO.P,C002_DECOUPLING_CAPACITOR_NANO,1*%
%TO.N,NET_C002_5V*%
X40640000Y-100330000D03*
%TO.P,C002_DECOUPLING_CAPACITOR_NANO,2*%
%TO.N,NET_C002_GND*%
X43140000Y-100330000D03*
%TD*%
%TO.P,C002_INPUT_CAPACITOR,1*%
%TO.N,NET_C002_VIN_PROTECTED*%
X54610000Y-100330000D03*
%TO.P,C002_INPUT_CAPACITOR,2*%
%TO.N,NET_C002_GND*%
X57110000Y-100330000D03*
%TD*%
%TO.P,C002_RESET_CAPACITOR,1*%
%TO.N,NET_C002_NANO_RST*%
X68580000Y-100330000D03*
%TO.P,C002_RESET_CAPACITOR,2*%
%TO.N,NET_C002_GND*%
X71080000Y-100330000D03*
%TD*%
%TO.P,C002_R_10K_PULLUP_CAN_RST,1*%
%TO.N,NET_C002_CAN_RESET*%
X81280000Y-100330000D03*
%TO.P,C002_R_10K_PULLUP_CAN_RST,2*%
%TO.N,NET_C002_5V*%
X88900000Y-100330000D03*
%TD*%
%TO.P,C002_R_10K_PULLUP_RST,1*%
%TO.N,NET_C002_NANO_RST*%
X100330000Y-100330000D03*
%TO.P,C002_R_10K_PULLUP_RST,2*%
%TO.N,NET_C002_5V*%
X107950000Y-100330000D03*
%TD*%
%TO.P,C002_R_120_CAN,1*%
%TO.N,NET_C002_CANH*%
X119380000Y-100330000D03*
%TO.P,C002_R_120_CAN,2*%
%TO.N,NET_C002_CANL*%
X127000000Y-100330000D03*
%TD*%
%TO.P,C002_R_220_PWR,1*%
%TO.N,NET_C002_5V*%
X11430000Y-111760000D03*
%TO.P,C002_R_220_PWR,2*%
%TO.N,NET_C002_PWR_LED_A*%
X19050000Y-111760000D03*
%TD*%
%TO.P,C002_R_CAN_SLOPE,1*%
%TO.N,NET_C002_CAN_SLOPE*%
X30480000Y-111760000D03*
%TO.P,C002_R_CAN_SLOPE,2*%
%TO.N,NET_C002_GND*%
X38100000Y-111760000D03*
%TD*%
%TO.P,C002_R_GATE_MOTOR,1*%
%TO.N,NET_C002_MOTOR_GATE*%
X49530000Y-111760000D03*
%TO.P,C002_R_GATE_MOTOR,2*%
%TO.N,NET_C002_MOTOR_PWM*%
X57150000Y-111760000D03*
%TD*%
%TO.P,C002_R_MOTOR_GATE_PULLDOWN,1*%
%TO.N,NET_C002_MOTOR_GATE*%
X68580000Y-111760000D03*
%TO.P,C002_R_MOTOR_GATE_PULLDOWN,2*%
%TO.N,NET_C002_GND*%
X76200000Y-111760000D03*
%TD*%
%TO.P,C002_R_RELAY1_BASE,1*%
%TO.N,NET_C002_RELAY1_BASE*%
X87630000Y-111760000D03*
%TO.P,C002_R_RELAY1_BASE,2*%
%TO.N,NET_C002_RELAY1_CTRL*%
X95250000Y-111760000D03*
%TD*%
%TO.P,C002_R_RELAY2_BASE,1*%
%TO.N,NET_C002_RELAY2_BASE*%
X106680000Y-111760000D03*
%TO.P,C002_R_RELAY2_BASE,2*%
%TO.N,NET_C002_RELAY2_CTRL*%
X114300000Y-111760000D03*
%TD*%
%TO.P,C002_SCL_PULLUP,1*%
%TO.N,NET_C002_I2C_SCL*%
X11430000Y-123190000D03*
%TO.P,C002_SCL_PULLUP,2*%
%TO.N,NET_C002_5V*%
X19050000Y-123190000D03*
%TD*%
%TO.P,C002_SDA_PULLUP,1*%
%TO.N,NET_C002_I2C_SDA*%
X30480000Y-123190000D03*
%TO.P,C002_SDA_PULLUP,2*%
%TO.N,NET_C002_5V*%
X38100000Y-123190000D03*
%TD*%
D25*
%TO.N,NET_C002_VIN_PROTECTED*%
X39370000Y-102870000D03*
X22860000Y-99060000D03*
%TO.N,NET_C002_I2C_SCL*%
X24130000Y-30480000D03*
%TO.N,NET_C002_I2C_SDA*%
X21590000Y-99060000D03*
%TO.N,NET_C002_MOTOR_GATE*%
X72390000Y-99060000D03*
X58420000Y-90170000D03*
%TO.N,NET_C002_NANO_RST*%
X63500000Y-73660000D03*
X69850000Y-104140000D03*
X72390000Y-104140000D03*
%TO.N,NET_C002_CANH*%
X119380000Y-85090000D03*
%TO.N,NET_C002_MOTOR_PWM*%
X39370000Y-115570000D03*
X8890000Y-33020000D03*
%TO.N,NET_C002_PWR_LED_A*%
X26670000Y-116840000D03*
X92710000Y-72390000D03*
X92710000Y-69850000D03*
%TO.N,NET_C002_RELAY1_BASE*%
X121920000Y-85090000D03*
%TO.N,NET_C002_RELAY1_CTRL*%
X7620000Y-38100000D03*
%TO.N,NET_C002_RELAY1_LOW*%
X106680000Y-71120000D03*
%TO.N,NET_C002_RELAY2_BASE*%
X10160000Y-116840000D03*
%TO.N,NET_C002_RELAY2_CTRL*%
X6350000Y-40640000D03*
%TD*%
%TO.N,NET_C002_GND*%
D26*
X57110000Y-100330000D02*
X57150000Y-100330000D01*
X105410000Y-68580000D02*
X105410000Y-71120000D01*
X105410000Y-71120000D02*
X76200000Y-71120000D01*
X76200000Y-71120000D02*
X76200000Y-72390000D01*
X76200000Y-72390000D02*
X62230000Y-72390000D01*
X62230000Y-72390000D02*
X62230000Y-73660000D01*
X62230000Y-73660000D02*
X57150000Y-73660000D01*
X57150000Y-73660000D02*
X57150000Y-100330000D01*
X129500000Y-86360000D02*
X129540000Y-86360000D01*
X129540000Y-86360000D02*
X129540000Y-85090000D01*
X129540000Y-85090000D02*
X128270000Y-85090000D01*
X128270000Y-85090000D02*
X128270000Y-83820000D01*
X128270000Y-83820000D02*
X105410000Y-83820000D01*
X105410000Y-83820000D02*
X105410000Y-71120000D01*
X15200000Y-100330000D02*
X15240000Y-100330000D01*
X15240000Y-100330000D02*
X24130000Y-100330000D01*
X24130000Y-100330000D02*
X24130000Y-99060000D01*
X24130000Y-99060000D02*
X25400000Y-99060000D01*
X25400000Y-99060000D02*
X25400000Y-97790000D01*
X25400000Y-97790000D02*
X57150000Y-97790000D01*
X86360000Y-68580000D02*
X86360000Y-71120000D01*
X29170000Y-100330000D02*
X29210000Y-100330000D01*
X29210000Y-100330000D02*
X29210000Y-97790000D01*
X12700000Y-22860000D02*
X15240000Y-22860000D01*
X15240000Y-22860000D02*
X15240000Y-68580000D01*
X15240000Y-68580000D02*
X16510000Y-68580000D01*
X16510000Y-68580000D02*
X16510000Y-100330000D01*
X27940000Y-17780000D02*
X26670000Y-17780000D01*
X26670000Y-17780000D02*
X26670000Y-19050000D01*
X26670000Y-19050000D02*
X25400000Y-19050000D01*
X25400000Y-19050000D02*
X25400000Y-22860000D01*
X25400000Y-22860000D02*
X15240000Y-22860000D01*
X71080000Y-100330000D02*
X71120000Y-100330000D01*
X71120000Y-100330000D02*
X71120000Y-99060000D01*
X71120000Y-99060000D02*
X69850000Y-99060000D01*
X69850000Y-99060000D02*
X69850000Y-97790000D01*
X69850000Y-97790000D02*
X57150000Y-97790000D01*
X43140000Y-100330000D02*
X43180000Y-100330000D01*
X43180000Y-100330000D02*
X43180000Y-97790000D01*
X38100000Y-111760000D02*
X38100000Y-97790000D01*
X29210000Y-87630000D02*
X29210000Y-97790000D01*
X76200000Y-111760000D02*
X71120000Y-111760000D01*
X71120000Y-111760000D02*
X71120000Y-100330000D01*
X123190000Y-68580000D02*
X123190000Y-83820000D01*
X15240000Y-87630000D02*
X16510000Y-87630000D01*
X39370000Y-15240000D02*
X36830000Y-15240000D01*
X36830000Y-15240000D02*
X36830000Y-17780000D01*
X36830000Y-17780000D02*
X27940000Y-17780000D01*
X52070000Y-15240000D02*
X39370000Y-15240000D01*
%TO.N,NET_C002_VIN_PROTECTED*%
X54610000Y-100330000D02*
X45720000Y-100330000D01*
X45720000Y-100330000D02*
X45720000Y-101600000D01*
X45720000Y-101600000D02*
X44450000Y-101600000D01*
X44450000Y-101600000D02*
X44450000Y-102870000D01*
X44450000Y-102870000D02*
X39370000Y-102870000D01*
X22860000Y-99060000D02*
X22860000Y-97790000D01*
X22860000Y-97790000D02*
X24130000Y-97790000D01*
X24130000Y-97790000D02*
X24130000Y-96520000D01*
X24130000Y-96520000D02*
X25400000Y-96520000D01*
X25400000Y-96520000D02*
X25400000Y-85090000D01*
X25400000Y-85090000D02*
X39370000Y-85090000D01*
X39370000Y-85090000D02*
X39370000Y-86360000D01*
%TO.N,NET_C002_I2C_SCL*%
X24130000Y-30480000D02*
X27940000Y-30480000D01*
X39370000Y-20320000D02*
X30480000Y-20320000D01*
X30480000Y-20320000D02*
X30480000Y-29210000D01*
X30480000Y-29210000D02*
X29210000Y-29210000D01*
X29210000Y-29210000D02*
X29210000Y-30480000D01*
X29210000Y-30480000D02*
X27940000Y-30480000D01*
%TO.N,NET_C002_I2C_SDA*%
X21590000Y-99060000D02*
X21590000Y-96520000D01*
X21590000Y-96520000D02*
X22860000Y-96520000D01*
X22860000Y-96520000D02*
X22860000Y-95250000D01*
X22860000Y-95250000D02*
X24130000Y-95250000D01*
X24130000Y-95250000D02*
X24130000Y-83820000D01*
X24130000Y-83820000D02*
X25400000Y-83820000D01*
X25400000Y-83820000D02*
X25400000Y-34290000D01*
X25400000Y-34290000D02*
X26670000Y-34290000D01*
X26670000Y-34290000D02*
X26670000Y-33020000D01*
X26670000Y-33020000D02*
X27940000Y-33020000D01*
X39370000Y-17780000D02*
X41910000Y-17780000D01*
X41910000Y-17780000D02*
X41910000Y-22860000D01*
X41910000Y-22860000D02*
X31750000Y-22860000D01*
X31750000Y-22860000D02*
X31750000Y-30480000D01*
X31750000Y-30480000D02*
X30480000Y-30480000D01*
X30480000Y-30480000D02*
X30480000Y-33020000D01*
X30480000Y-33020000D02*
X27940000Y-33020000D01*
%TO.N,NET_C002_MOTOR_GATE*%
X72390000Y-99060000D02*
X72390000Y-97790000D01*
X72390000Y-97790000D02*
X71120000Y-97790000D01*
X71120000Y-97790000D02*
X71120000Y-96520000D01*
X71120000Y-96520000D02*
X58420000Y-96520000D01*
X58420000Y-96520000D02*
X58420000Y-90170000D01*
%TO.N,NET_C002_NANO_RST*%
X100330000Y-100330000D02*
X91440000Y-100330000D01*
X91440000Y-100330000D02*
X91440000Y-99060000D01*
X91440000Y-99060000D02*
X90170000Y-99060000D01*
X90170000Y-99060000D02*
X90170000Y-97790000D01*
X90170000Y-97790000D02*
X73660000Y-97790000D01*
X73660000Y-97790000D02*
X73660000Y-96520000D01*
X73660000Y-96520000D02*
X72390000Y-96520000D01*
X72390000Y-96520000D02*
X72390000Y-95250000D01*
X72390000Y-95250000D02*
X63500000Y-95250000D01*
X63500000Y-95250000D02*
X63500000Y-73660000D01*
X68580000Y-100330000D02*
X68580000Y-101600000D01*
X68580000Y-101600000D02*
X69850000Y-101600000D01*
X69850000Y-101600000D02*
X69850000Y-104140000D01*
X72390000Y-104140000D02*
X72390000Y-101600000D01*
X72390000Y-101600000D02*
X73660000Y-101600000D01*
X73660000Y-101600000D02*
X73660000Y-97790000D01*
%TO.N,NET_C002_CANH*%
X119380000Y-85090000D02*
X119380000Y-100330000D01*
%TO.N,NET_C002_CANL*%
X73660000Y-69850000D02*
X83820000Y-69850000D01*
X83820000Y-69850000D02*
X83820000Y-66040000D01*
X83820000Y-66040000D02*
X127000000Y-66040000D01*
X127000000Y-66040000D02*
X127000000Y-82550000D01*
X127000000Y-82550000D02*
X129540000Y-82550000D01*
X129540000Y-82550000D02*
X129540000Y-83820000D01*
X129540000Y-83820000D02*
X130810000Y-83820000D01*
X130810000Y-83820000D02*
X130810000Y-85090000D01*
X130810000Y-85090000D02*
X132080000Y-85090000D01*
X132080000Y-85090000D02*
X132080000Y-87630000D01*
X132080000Y-87630000D02*
X130810000Y-87630000D01*
X130810000Y-87630000D02*
X130810000Y-88900000D01*
X130810000Y-88900000D02*
X127000000Y-88900000D01*
X127000000Y-88900000D02*
X127000000Y-100330000D01*
%TO.N,NET_C002_CAN_RESET*%
X81280000Y-100330000D02*
X78740000Y-100330000D01*
X78740000Y-100330000D02*
X78740000Y-113030000D01*
X78740000Y-113030000D02*
X77470000Y-113030000D01*
X77470000Y-113030000D02*
X77470000Y-114300000D01*
X77470000Y-114300000D02*
X13970000Y-114300000D01*
X13970000Y-114300000D02*
X13970000Y-110490000D01*
X13970000Y-110490000D02*
X12700000Y-110490000D01*
X12700000Y-110490000D02*
X12700000Y-102870000D01*
X12700000Y-102870000D02*
X11430000Y-102870000D01*
X11430000Y-102870000D02*
X11430000Y-101600000D01*
X11430000Y-101600000D02*
X10160000Y-101600000D01*
X10160000Y-101600000D02*
X10160000Y-31750000D01*
X10160000Y-31750000D02*
X11430000Y-31750000D01*
X11430000Y-31750000D02*
X11430000Y-30480000D01*
X11430000Y-30480000D02*
X12700000Y-30480000D01*
%TO.N,NET_C002_MOTOR_PWM*%
X39370000Y-115570000D02*
X12700000Y-115570000D01*
X12700000Y-115570000D02*
X12700000Y-114300000D01*
X12700000Y-114300000D02*
X10160000Y-114300000D01*
X10160000Y-114300000D02*
X10160000Y-113030000D01*
X10160000Y-113030000D02*
X8890000Y-113030000D01*
X8890000Y-113030000D02*
X8890000Y-33020000D01*
%TO.N,NET_C002_PWR_LED_A*%
X26670000Y-116840000D02*
X85090000Y-116840000D01*
X85090000Y-116840000D02*
X85090000Y-110490000D01*
X85090000Y-110490000D02*
X86360000Y-110490000D01*
X86360000Y-110490000D02*
X86360000Y-109220000D01*
X86360000Y-109220000D02*
X88900000Y-109220000D01*
X88900000Y-109220000D02*
X88900000Y-102870000D01*
X88900000Y-102870000D02*
X101600000Y-102870000D01*
X101600000Y-102870000D02*
X101600000Y-101600000D01*
X101600000Y-101600000D02*
X102870000Y-101600000D01*
X102870000Y-101600000D02*
X102870000Y-99060000D01*
X102870000Y-99060000D02*
X101600000Y-99060000D01*
X101600000Y-99060000D02*
X101600000Y-97790000D01*
X101600000Y-97790000D02*
X95250000Y-97790000D01*
X95250000Y-97790000D02*
X95250000Y-83820000D01*
X95250000Y-83820000D02*
X92710000Y-83820000D01*
X92710000Y-83820000D02*
X92710000Y-72390000D01*
X92710000Y-69850000D02*
X88900000Y-69850000D01*
X88900000Y-69850000D02*
X88900000Y-68580000D01*
%TO.N,NET_C002_RELAY1_BASE*%
X87630000Y-111760000D02*
X92710000Y-111760000D01*
X92710000Y-111760000D02*
X92710000Y-110490000D01*
X92710000Y-110490000D02*
X93980000Y-110490000D01*
X93980000Y-110490000D02*
X93980000Y-109220000D01*
X93980000Y-109220000D02*
X121920000Y-109220000D01*
X121920000Y-109220000D02*
X121920000Y-85090000D01*
%TO.N,NET_C002_RELAY1_CTRL*%
X95250000Y-111760000D02*
X93980000Y-111760000D01*
X93980000Y-111760000D02*
X93980000Y-113030000D01*
X93980000Y-113030000D02*
X88900000Y-113030000D01*
X88900000Y-113030000D02*
X88900000Y-114300000D01*
X88900000Y-114300000D02*
X86360000Y-114300000D01*
X86360000Y-114300000D02*
X86360000Y-118110000D01*
X86360000Y-118110000D02*
X12700000Y-118110000D01*
X12700000Y-118110000D02*
X12700000Y-116840000D01*
X12700000Y-116840000D02*
X11430000Y-116840000D01*
X11430000Y-116840000D02*
X11430000Y-115570000D01*
X11430000Y-115570000D02*
X8890000Y-115570000D01*
X8890000Y-115570000D02*
X8890000Y-114300000D01*
X8890000Y-114300000D02*
X7620000Y-114300000D01*
X7620000Y-114300000D02*
X7620000Y-38100000D01*
%TO.N,NET_C002_RELAY1_LOW*%
X106680000Y-71120000D02*
X120650000Y-71120000D01*
X120650000Y-71120000D02*
X120650000Y-68580000D01*
%TO.N,NET_C002_RELAY2_BASE*%
X106680000Y-111760000D02*
X97790000Y-111760000D01*
X97790000Y-111760000D02*
X97790000Y-113030000D01*
X97790000Y-113030000D02*
X96520000Y-113030000D01*
X96520000Y-113030000D02*
X96520000Y-114300000D01*
X96520000Y-114300000D02*
X90170000Y-114300000D01*
X90170000Y-114300000D02*
X90170000Y-115570000D01*
X90170000Y-115570000D02*
X87630000Y-115570000D01*
X87630000Y-115570000D02*
X87630000Y-119380000D01*
X87630000Y-119380000D02*
X11430000Y-119380000D01*
X11430000Y-119380000D02*
X11430000Y-118110000D01*
X11430000Y-118110000D02*
X10160000Y-118110000D01*
X10160000Y-118110000D02*
X10160000Y-116840000D01*
%TO.N,NET_C002_RELAY2_CTRL*%
X114300000Y-111760000D02*
X109220000Y-111760000D01*
X109220000Y-111760000D02*
X109220000Y-113030000D01*
X109220000Y-113030000D02*
X107950000Y-113030000D01*
X107950000Y-113030000D02*
X107950000Y-114300000D01*
X107950000Y-114300000D02*
X97790000Y-114300000D01*
X97790000Y-114300000D02*
X97790000Y-115570000D01*
X97790000Y-115570000D02*
X91440000Y-115570000D01*
X91440000Y-115570000D02*
X91440000Y-116840000D01*
X91440000Y-116840000D02*
X88900000Y-116840000D01*
X88900000Y-116840000D02*
X88900000Y-120650000D01*
X88900000Y-120650000D02*
X10160000Y-120650000D01*
X10160000Y-120650000D02*
X10160000Y-119380000D01*
X10160000Y-119380000D02*
X8890000Y-119380000D01*
X8890000Y-119380000D02*
X8890000Y-116840000D01*
X8890000Y-116840000D02*
X7620000Y-116840000D01*
X7620000Y-116840000D02*
X7620000Y-115570000D01*
X7620000Y-115570000D02*
X6350000Y-115570000D01*
X6350000Y-115570000D02*
X6350000Y-40640000D01*
%TO.N,NET_C002_UART_RX*%
X52070000Y-17780000D02*
X54610000Y-17780000D01*
X54610000Y-17780000D02*
X54610000Y-10160000D01*
X54610000Y-10160000D02*
X15240000Y-10160000D01*
X15240000Y-10160000D02*
X15240000Y-16510000D01*
X15240000Y-16510000D02*
X13970000Y-16510000D01*
X13970000Y-16510000D02*
X13970000Y-17780000D01*
X13970000Y-17780000D02*
X12700000Y-17780000D01*
%TO.N,NET_C002_UART_TX*%
X52070000Y-20320000D02*
X54610000Y-20320000D01*
X54610000Y-20320000D02*
X54610000Y-19050000D01*
X54610000Y-19050000D02*
X55880000Y-19050000D01*
X55880000Y-19050000D02*
X55880000Y-8890000D01*
X55880000Y-8890000D02*
X12700000Y-8890000D01*
X12700000Y-8890000D02*
X12700000Y-15240000D01*
%TD*%
M02*
