%TF.GenerationSoftware,KiCad,Pcbnew,10.0.4*%
%TF.CreationDate,2026-07-11T23:02:08+05:00*%
%TF.ProjectId,OPEN_THIS_PROJECT__n02__COMBINATION,4f50454e-5f54-4484-9953-5f50524f4a45,rev?*%
%TF.SameCoordinates,Original*%
%TF.FileFunction,Legend,Top*%
%TF.FilePolarity,Positive*%
%FSLAX46Y46*%
G04 Gerber Fmt 4.6, Leading zero omitted, Abs format (unit mm)*
G04 Created by KiCad (PCBNEW 10.0.4) date 2026-07-11 23:02:08*
%MOMM*%
%LPD*%
G01*
G04 APERTURE LIST*
%ADD10C,0.150000*%
%ADD11C,0.120000*%
G04 APERTURE END LIST*
D10*
X19058095Y-50254819D02*
X19058095Y-51064342D01*
X19058095Y-51064342D02*
X19105714Y-51159580D01*
X19105714Y-51159580D02*
X19153333Y-51207200D01*
X19153333Y-51207200D02*
X19248571Y-51254819D01*
X19248571Y-51254819D02*
X19439047Y-51254819D01*
X19439047Y-51254819D02*
X19534285Y-51207200D01*
X19534285Y-51207200D02*
X19581904Y-51159580D01*
X19581904Y-51159580D02*
X19629523Y-51064342D01*
X19629523Y-51064342D02*
X19629523Y-50254819D01*
X20058095Y-51207200D02*
X20200952Y-51254819D01*
X20200952Y-51254819D02*
X20439047Y-51254819D01*
X20439047Y-51254819D02*
X20534285Y-51207200D01*
X20534285Y-51207200D02*
X20581904Y-51159580D01*
X20581904Y-51159580D02*
X20629523Y-51064342D01*
X20629523Y-51064342D02*
X20629523Y-50969104D01*
X20629523Y-50969104D02*
X20581904Y-50873866D01*
X20581904Y-50873866D02*
X20534285Y-50826247D01*
X20534285Y-50826247D02*
X20439047Y-50778628D01*
X20439047Y-50778628D02*
X20248571Y-50731009D01*
X20248571Y-50731009D02*
X20153333Y-50683390D01*
X20153333Y-50683390D02*
X20105714Y-50635771D01*
X20105714Y-50635771D02*
X20058095Y-50540533D01*
X20058095Y-50540533D02*
X20058095Y-50445295D01*
X20058095Y-50445295D02*
X20105714Y-50350057D01*
X20105714Y-50350057D02*
X20153333Y-50302438D01*
X20153333Y-50302438D02*
X20248571Y-50254819D01*
X20248571Y-50254819D02*
X20486666Y-50254819D01*
X20486666Y-50254819D02*
X20629523Y-50302438D01*
X21391428Y-50731009D02*
X21534285Y-50778628D01*
X21534285Y-50778628D02*
X21581904Y-50826247D01*
X21581904Y-50826247D02*
X21629523Y-50921485D01*
X21629523Y-50921485D02*
X21629523Y-51064342D01*
X21629523Y-51064342D02*
X21581904Y-51159580D01*
X21581904Y-51159580D02*
X21534285Y-51207200D01*
X21534285Y-51207200D02*
X21439047Y-51254819D01*
X21439047Y-51254819D02*
X21058095Y-51254819D01*
X21058095Y-51254819D02*
X21058095Y-50254819D01*
X21058095Y-50254819D02*
X21391428Y-50254819D01*
X21391428Y-50254819D02*
X21486666Y-50302438D01*
X21486666Y-50302438D02*
X21534285Y-50350057D01*
X21534285Y-50350057D02*
X21581904Y-50445295D01*
X21581904Y-50445295D02*
X21581904Y-50540533D01*
X21581904Y-50540533D02*
X21534285Y-50635771D01*
X21534285Y-50635771D02*
X21486666Y-50683390D01*
X21486666Y-50683390D02*
X21391428Y-50731009D01*
X21391428Y-50731009D02*
X21058095Y-50731009D01*
X39108095Y-84714819D02*
X39108095Y-83714819D01*
X39679523Y-84714819D02*
X39250952Y-84143390D01*
X39679523Y-83714819D02*
X39108095Y-84286247D01*
X60698095Y-84714819D02*
X60698095Y-83714819D01*
X61269523Y-84714819D02*
X60840952Y-84143390D01*
X61269523Y-83714819D02*
X60698095Y-84286247D01*
X82288095Y-84714819D02*
X82288095Y-83714819D01*
X82859523Y-84714819D02*
X82430952Y-84143390D01*
X82859523Y-83714819D02*
X82288095Y-84286247D01*
X103878095Y-84714819D02*
X103878095Y-83714819D01*
X104449523Y-84714819D02*
X104020952Y-84143390D01*
X104449523Y-83714819D02*
X103878095Y-84286247D01*
%TO.C,C002_ARDUINO_NANO*%
D11*
X11300000Y-11300000D02*
X11300000Y-13970000D01*
X11300000Y-16510000D02*
X11300000Y-54740000D01*
X11300000Y-54740000D02*
X16380000Y-54740000D01*
X13970000Y-13970000D02*
X11300000Y-13970000D01*
X13970000Y-16510000D02*
X11300000Y-16510000D01*
X13970000Y-16510000D02*
X13970000Y-13970000D01*
X13970000Y-16510000D02*
X13970000Y-52070000D01*
X13970000Y-52070000D02*
X11300000Y-52070000D01*
X16380000Y-46860000D02*
X24260000Y-46860000D01*
X16380000Y-57280000D02*
X16380000Y-46860000D01*
X24260000Y-46860000D02*
X24260000Y-57280000D01*
X24260000Y-57280000D02*
X16380000Y-57280000D01*
X26670000Y-13970000D02*
X26670000Y-52070000D01*
X26670000Y-13970000D02*
X29340000Y-13970000D01*
X26670000Y-52070000D02*
X29340000Y-52070000D01*
X29340000Y-11300000D02*
X11300000Y-11300000D01*
X29340000Y-54740000D02*
X24260000Y-54740000D01*
X29340000Y-54740000D02*
X29340000Y-11300000D01*
%TO.C,C002_I2C_HEADER*%
X37990000Y-11320000D02*
X39370000Y-11320000D01*
X37990000Y-12700000D02*
X37990000Y-11320000D01*
X37990000Y-13970000D02*
X37990000Y-21700000D01*
X37990000Y-13970000D02*
X40750000Y-13970000D01*
X37990000Y-21700000D02*
X40750000Y-21700000D01*
X40750000Y-13970000D02*
X40750000Y-21700000D01*
%TO.C,C002_UART_HEADER*%
X50690000Y-11320000D02*
X52070000Y-11320000D01*
X50690000Y-12700000D02*
X50690000Y-11320000D01*
X50690000Y-13970000D02*
X50690000Y-21700000D01*
X50690000Y-13970000D02*
X53450000Y-13970000D01*
X50690000Y-21700000D02*
X53450000Y-21700000D01*
X53450000Y-13970000D02*
X53450000Y-21700000D01*
%TO.C,C002_SCREW_TERMINAL_R1_COM*%
X63420000Y-11390000D02*
X73660000Y-11390000D01*
X63420000Y-18510000D02*
X73660000Y-18510000D01*
X63420000Y-20630000D02*
X63420000Y-11390000D01*
X65740000Y-20630000D02*
X63420000Y-20630000D01*
X73660000Y-11390000D02*
X73660000Y-20630000D01*
X73660000Y-20630000D02*
X66340000Y-20630000D01*
X67040000Y-13310000D02*
G75*
G02*
X65040000Y-13310000I-1000000J0D01*
G01*
X65040000Y-13310000D02*
G75*
G02*
X67040000Y-13310000I1000000J0D01*
G01*
X72040000Y-13310000D02*
G75*
G02*
X70040000Y-13310000I-1000000J0D01*
G01*
X70040000Y-13310000D02*
G75*
G02*
X72040000Y-13310000I1000000J0D01*
G01*
X66040000Y-20630000D02*
X66480000Y-21240000D01*
X65600000Y-21240000D01*
X66040000Y-20630000D01*
G36*
X66480000Y-21240000D02*
G01*
X65600000Y-21240000D01*
X66040000Y-20630000D01*
X66480000Y-21240000D01*
G37*
%TO.C,C002_SCREW_TERMINAL_R1_NC*%
X83740000Y-11390000D02*
X93980000Y-11390000D01*
X83740000Y-18510000D02*
X93980000Y-18510000D01*
X83740000Y-20630000D02*
X83740000Y-11390000D01*
X86060000Y-20630000D02*
X83740000Y-20630000D01*
X93980000Y-11390000D02*
X93980000Y-20630000D01*
X93980000Y-20630000D02*
X86660000Y-20630000D01*
X87360000Y-13310000D02*
G75*
G02*
X85360000Y-13310000I-1000000J0D01*
G01*
X85360000Y-13310000D02*
G75*
G02*
X87360000Y-13310000I1000000J0D01*
G01*
X92360000Y-13310000D02*
G75*
G02*
X90360000Y-13310000I-1000000J0D01*
G01*
X90360000Y-13310000D02*
G75*
G02*
X92360000Y-13310000I1000000J0D01*
G01*
X86360000Y-20630000D02*
X86800000Y-21240000D01*
X85920000Y-21240000D01*
X86360000Y-20630000D01*
G36*
X86800000Y-21240000D02*
G01*
X85920000Y-21240000D01*
X86360000Y-20630000D01*
X86800000Y-21240000D01*
G37*
%TO.C,C002_SCREW_TERMINAL_R1_NO*%
X104060000Y-11390000D02*
X114300000Y-11390000D01*
X104060000Y-18510000D02*
X114300000Y-18510000D01*
X104060000Y-20630000D02*
X104060000Y-11390000D01*
X106380000Y-20630000D02*
X104060000Y-20630000D01*
X114300000Y-11390000D02*
X114300000Y-20630000D01*
X114300000Y-20630000D02*
X106980000Y-20630000D01*
X107680000Y-13310000D02*
G75*
G02*
X105680000Y-13310000I-1000000J0D01*
G01*
X105680000Y-13310000D02*
G75*
G02*
X107680000Y-13310000I1000000J0D01*
G01*
X112680000Y-13310000D02*
G75*
G02*
X110680000Y-13310000I-1000000J0D01*
G01*
X110680000Y-13310000D02*
G75*
G02*
X112680000Y-13310000I1000000J0D01*
G01*
X106680000Y-20630000D02*
X107120000Y-21240000D01*
X106240000Y-21240000D01*
X106680000Y-20630000D01*
G36*
X107120000Y-21240000D02*
G01*
X106240000Y-21240000D01*
X106680000Y-20630000D01*
X107120000Y-21240000D01*
G37*
%TO.C,C002_SCREW_TERMINAL_R2_COM*%
X11350000Y-66000000D02*
X21590000Y-66000000D01*
X11350000Y-73120000D02*
X21590000Y-73120000D01*
X11350000Y-75240000D02*
X11350000Y-66000000D01*
X13670000Y-75240000D02*
X11350000Y-75240000D01*
X21590000Y-66000000D02*
X21590000Y-75240000D01*
X21590000Y-75240000D02*
X14270000Y-75240000D01*
X14970000Y-67920000D02*
G75*
G02*
X12970000Y-67920000I-1000000J0D01*
G01*
X12970000Y-67920000D02*
G75*
G02*
X14970000Y-67920000I1000000J0D01*
G01*
X19970000Y-67920000D02*
G75*
G02*
X17970000Y-67920000I-1000000J0D01*
G01*
X17970000Y-67920000D02*
G75*
G02*
X19970000Y-67920000I1000000J0D01*
G01*
X13970000Y-75240000D02*
X14410000Y-75850000D01*
X13530000Y-75850000D01*
X13970000Y-75240000D01*
G36*
X14410000Y-75850000D02*
G01*
X13530000Y-75850000D01*
X13970000Y-75240000D01*
X14410000Y-75850000D01*
G37*
%TO.C,C002_SCREW_TERMINAL_R2_NC*%
X31670000Y-66000000D02*
X41910000Y-66000000D01*
X31670000Y-73120000D02*
X41910000Y-73120000D01*
X31670000Y-75240000D02*
X31670000Y-66000000D01*
X33990000Y-75240000D02*
X31670000Y-75240000D01*
X41910000Y-66000000D02*
X41910000Y-75240000D01*
X41910000Y-75240000D02*
X34590000Y-75240000D01*
X35290000Y-67920000D02*
G75*
G02*
X33290000Y-67920000I-1000000J0D01*
G01*
X33290000Y-67920000D02*
G75*
G02*
X35290000Y-67920000I1000000J0D01*
G01*
X40290000Y-67920000D02*
G75*
G02*
X38290000Y-67920000I-1000000J0D01*
G01*
X38290000Y-67920000D02*
G75*
G02*
X40290000Y-67920000I1000000J0D01*
G01*
X34290000Y-75240000D02*
X34730000Y-75850000D01*
X33850000Y-75850000D01*
X34290000Y-75240000D01*
G36*
X34730000Y-75850000D02*
G01*
X33850000Y-75850000D01*
X34290000Y-75240000D01*
X34730000Y-75850000D01*
G37*
%TO.C,C002_SCREW_TERMINAL_R2_NO*%
X51990000Y-66000000D02*
X62230000Y-66000000D01*
X51990000Y-73120000D02*
X62230000Y-73120000D01*
X51990000Y-75240000D02*
X51990000Y-66000000D01*
X54310000Y-75240000D02*
X51990000Y-75240000D01*
X62230000Y-66000000D02*
X62230000Y-75240000D01*
X62230000Y-75240000D02*
X54910000Y-75240000D01*
X55610000Y-67920000D02*
G75*
G02*
X53610000Y-67920000I-1000000J0D01*
G01*
X53610000Y-67920000D02*
G75*
G02*
X55610000Y-67920000I1000000J0D01*
G01*
X60610000Y-67920000D02*
G75*
G02*
X58610000Y-67920000I-1000000J0D01*
G01*
X58610000Y-67920000D02*
G75*
G02*
X60610000Y-67920000I1000000J0D01*
G01*
X54610000Y-75240000D02*
X55050000Y-75850000D01*
X54170000Y-75850000D01*
X54610000Y-75240000D01*
G36*
X55050000Y-75850000D02*
G01*
X54170000Y-75850000D01*
X54610000Y-75240000D01*
X55050000Y-75850000D01*
G37*
%TO.C,C002_CAN_TERMINAL*%
X72280000Y-65930000D02*
X73660000Y-65930000D01*
X72280000Y-67310000D02*
X72280000Y-65930000D01*
X72280000Y-68580000D02*
X72280000Y-73770000D01*
X72280000Y-68580000D02*
X75040000Y-68580000D01*
X72280000Y-73770000D02*
X75040000Y-73770000D01*
X75040000Y-68580000D02*
X75040000Y-73770000D01*
%TO.C,C002_POWER_LED*%
X85070000Y-67035000D02*
X85070000Y-70125000D01*
X85070000Y-67035170D02*
G75*
G02*
X90620000Y-68580000I2560000J-1544830D01*
G01*
X90620000Y-68580000D02*
G75*
G02*
X85070000Y-70124830I-2990000J0D01*
G01*
X90130000Y-68580000D02*
G75*
G02*
X85130000Y-68580000I-2500000J0D01*
G01*
X85130000Y-68580000D02*
G75*
G02*
X90130000Y-68580000I2500000J0D01*
G01*
%TO.C,C002_LM7805*%
X100300000Y-65320000D02*
X110520000Y-65320000D01*
X100300000Y-66700000D02*
X110520000Y-66700000D01*
X100300000Y-69940000D02*
X100300000Y-65320000D01*
X103560000Y-65320000D02*
X103560000Y-66700000D01*
X107260000Y-65320000D02*
X107260000Y-66700000D01*
X110520000Y-65320000D02*
X110520000Y-69940000D01*
X110520000Y-69940000D02*
X100300000Y-69940000D01*
%TO.C,C002_BC547_RELAY_1*%
X120120000Y-70430000D02*
X123720000Y-70430000D01*
X120081522Y-70418478D02*
G75*
G02*
X121920000Y-65979999I1838478J1838478D01*
G01*
X121920000Y-65980000D02*
G75*
G02*
X123758478Y-70418478I0J-2600000D01*
G01*
%TO.C,C002_BC547_RELAY_2*%
X12170000Y-89480000D02*
X15770000Y-89480000D01*
X12131522Y-89468478D02*
G75*
G02*
X13970000Y-85029999I1838478J1838478D01*
G01*
X13970000Y-85030000D02*
G75*
G02*
X15808478Y-89468478I0J-2600000D01*
G01*
%TO.C,C002_IRLZ44N*%
X26140000Y-89480000D02*
X29740000Y-89480000D01*
X26101522Y-89468478D02*
G75*
G02*
X27940000Y-85029999I1838478J1838478D01*
G01*
X27940000Y-85030000D02*
G75*
G02*
X29778478Y-89468478I0J-2600000D01*
G01*
%TO.C,C002_D_1N4007*%
X40710000Y-86360000D02*
X41730000Y-86360000D01*
X42510000Y-84890000D02*
X42510000Y-87830000D01*
X42630000Y-84890000D02*
X42630000Y-87830000D01*
X42750000Y-84890000D02*
X42750000Y-87830000D01*
X48190000Y-86360000D02*
X47170000Y-86360000D01*
X41730000Y-84890000D02*
X47170000Y-84890000D01*
X47170000Y-87830000D01*
X41730000Y-87830000D01*
X41730000Y-84890000D01*
%TO.C,C002_FLYBACK_DIODE*%
X62300000Y-86360000D02*
X63320000Y-86360000D01*
X64100000Y-84890000D02*
X64100000Y-87830000D01*
X64220000Y-84890000D02*
X64220000Y-87830000D01*
X64340000Y-84890000D02*
X64340000Y-87830000D01*
X69780000Y-86360000D02*
X68760000Y-86360000D01*
X63320000Y-84890000D02*
X68760000Y-84890000D01*
X68760000Y-87830000D01*
X63320000Y-87830000D01*
X63320000Y-84890000D01*
%TO.C,C002_RELAY_FLYBACK_DIODE_1*%
X83890000Y-86360000D02*
X84910000Y-86360000D01*
X85690000Y-84890000D02*
X85690000Y-87830000D01*
X85810000Y-84890000D02*
X85810000Y-87830000D01*
X85930000Y-84890000D02*
X85930000Y-87830000D01*
X91370000Y-86360000D02*
X90350000Y-86360000D01*
X84910000Y-84890000D02*
X90350000Y-84890000D01*
X90350000Y-87830000D01*
X84910000Y-87830000D01*
X84910000Y-84890000D01*
%TO.C,C002_RELAY_FLYBACK_DIODE_2*%
X105480000Y-86360000D02*
X106500000Y-86360000D01*
X107280000Y-84890000D02*
X107280000Y-87830000D01*
X107400000Y-84890000D02*
X107400000Y-87830000D01*
X107520000Y-84890000D02*
X107520000Y-87830000D01*
X112960000Y-86360000D02*
X111940000Y-86360000D01*
X106500000Y-84890000D02*
X111940000Y-84890000D01*
X111940000Y-87830000D01*
X106500000Y-87830000D01*
X106500000Y-84890000D01*
%TO.C,C002_CAP_7805_IN*%
X125630000Y-84990000D02*
X130870000Y-84990000D01*
X125630000Y-87730000D02*
X125630000Y-84990000D01*
X130870000Y-84990000D02*
X130870000Y-87730000D01*
X130870000Y-87730000D02*
X125630000Y-87730000D01*
%TO.C,C002_CAP_7805_OUT*%
X11330000Y-98960000D02*
X16570000Y-98960000D01*
X11330000Y-101700000D02*
X11330000Y-98960000D01*
X16570000Y-98960000D02*
X16570000Y-101700000D01*
X16570000Y-101700000D02*
X11330000Y-101700000D01*
%TO.C,C002_DECOUPLING_CAPACITOR_MAIN*%
X25300000Y-98960000D02*
X30540000Y-98960000D01*
X25300000Y-101700000D02*
X25300000Y-98960000D01*
X30540000Y-98960000D02*
X30540000Y-101700000D01*
X30540000Y-101700000D02*
X25300000Y-101700000D01*
%TO.C,C002_DECOUPLING_CAPACITOR_NANO*%
X39270000Y-98960000D02*
X44510000Y-98960000D01*
X39270000Y-101700000D02*
X39270000Y-98960000D01*
X44510000Y-98960000D02*
X44510000Y-101700000D01*
X44510000Y-101700000D02*
X39270000Y-101700000D01*
%TO.C,C002_INPUT_CAPACITOR*%
X53240000Y-98960000D02*
X58480000Y-98960000D01*
X53240000Y-101700000D02*
X53240000Y-98960000D01*
X58480000Y-98960000D02*
X58480000Y-101700000D01*
X58480000Y-101700000D02*
X53240000Y-101700000D01*
%TO.C,C002_RESET_CAPACITOR*%
X67210000Y-98960000D02*
X72450000Y-98960000D01*
X67210000Y-101700000D02*
X67210000Y-98960000D01*
X72450000Y-98960000D02*
X72450000Y-101700000D01*
X72450000Y-101700000D02*
X67210000Y-101700000D01*
%TO.C,C002_R_10K_PULLUP_CAN_RST*%
X81820000Y-98960000D02*
X88360000Y-98960000D01*
X81820000Y-99290000D02*
X81820000Y-98960000D01*
X81820000Y-101370000D02*
X81820000Y-101700000D01*
X81820000Y-101700000D02*
X88360000Y-101700000D01*
X88360000Y-98960000D02*
X88360000Y-99290000D01*
X88360000Y-101700000D02*
X88360000Y-101370000D01*
%TO.C,C002_R_10K_PULLUP_RST*%
X100870000Y-98960000D02*
X107410000Y-98960000D01*
X100870000Y-99290000D02*
X100870000Y-98960000D01*
X100870000Y-101370000D02*
X100870000Y-101700000D01*
X100870000Y-101700000D02*
X107410000Y-101700000D01*
X107410000Y-98960000D02*
X107410000Y-99290000D01*
X107410000Y-101700000D02*
X107410000Y-101370000D01*
%TO.C,C002_R_120_CAN*%
X119920000Y-98960000D02*
X126460000Y-98960000D01*
X119920000Y-99290000D02*
X119920000Y-98960000D01*
X119920000Y-101370000D02*
X119920000Y-101700000D01*
X119920000Y-101700000D02*
X126460000Y-101700000D01*
X126460000Y-98960000D02*
X126460000Y-99290000D01*
X126460000Y-101700000D02*
X126460000Y-101370000D01*
%TO.C,C002_R_220_PWR*%
X11970000Y-110390000D02*
X18510000Y-110390000D01*
X11970000Y-110720000D02*
X11970000Y-110390000D01*
X11970000Y-112800000D02*
X11970000Y-113130000D01*
X11970000Y-113130000D02*
X18510000Y-113130000D01*
X18510000Y-110390000D02*
X18510000Y-110720000D01*
X18510000Y-113130000D02*
X18510000Y-112800000D01*
%TO.C,C002_R_CAN_SLOPE*%
X31020000Y-110390000D02*
X37560000Y-110390000D01*
X31020000Y-110720000D02*
X31020000Y-110390000D01*
X31020000Y-112800000D02*
X31020000Y-113130000D01*
X31020000Y-113130000D02*
X37560000Y-113130000D01*
X37560000Y-110390000D02*
X37560000Y-110720000D01*
X37560000Y-113130000D02*
X37560000Y-112800000D01*
%TO.C,C002_R_GATE_MOTOR*%
X50070000Y-110390000D02*
X56610000Y-110390000D01*
X50070000Y-110720000D02*
X50070000Y-110390000D01*
X50070000Y-112800000D02*
X50070000Y-113130000D01*
X50070000Y-113130000D02*
X56610000Y-113130000D01*
X56610000Y-110390000D02*
X56610000Y-110720000D01*
X56610000Y-113130000D02*
X56610000Y-112800000D01*
%TO.C,C002_R_MOTOR_GATE_PULLDOWN*%
X69120000Y-110390000D02*
X75660000Y-110390000D01*
X69120000Y-110720000D02*
X69120000Y-110390000D01*
X69120000Y-112800000D02*
X69120000Y-113130000D01*
X69120000Y-113130000D02*
X75660000Y-113130000D01*
X75660000Y-110390000D02*
X75660000Y-110720000D01*
X75660000Y-113130000D02*
X75660000Y-112800000D01*
%TO.C,C002_R_RELAY1_BASE*%
X88170000Y-110390000D02*
X94710000Y-110390000D01*
X88170000Y-110720000D02*
X88170000Y-110390000D01*
X88170000Y-112800000D02*
X88170000Y-113130000D01*
X88170000Y-113130000D02*
X94710000Y-113130000D01*
X94710000Y-110390000D02*
X94710000Y-110720000D01*
X94710000Y-113130000D02*
X94710000Y-112800000D01*
%TO.C,C002_R_RELAY2_BASE*%
X107220000Y-110390000D02*
X113760000Y-110390000D01*
X107220000Y-110720000D02*
X107220000Y-110390000D01*
X107220000Y-112800000D02*
X107220000Y-113130000D01*
X107220000Y-113130000D02*
X113760000Y-113130000D01*
X113760000Y-110390000D02*
X113760000Y-110720000D01*
X113760000Y-113130000D02*
X113760000Y-112800000D01*
%TO.C,C002_SCL_PULLUP*%
X11970000Y-121820000D02*
X18510000Y-121820000D01*
X11970000Y-122150000D02*
X11970000Y-121820000D01*
X11970000Y-124230000D02*
X11970000Y-124560000D01*
X11970000Y-124560000D02*
X18510000Y-124560000D01*
X18510000Y-121820000D02*
X18510000Y-122150000D01*
X18510000Y-124560000D02*
X18510000Y-124230000D01*
%TO.C,C002_SDA_PULLUP*%
X31020000Y-121820000D02*
X37560000Y-121820000D01*
X31020000Y-122150000D02*
X31020000Y-121820000D01*
X31020000Y-124230000D02*
X31020000Y-124560000D01*
X31020000Y-124560000D02*
X37560000Y-124560000D01*
X37560000Y-121820000D02*
X37560000Y-122150000D01*
X37560000Y-124560000D02*
X37560000Y-124230000D01*
%TD*%
M02*
