M48
; DRILL file KiCad 10.0.4 date 2026-07-11T23:02:05
; FORMAT={-:-/ absolute / metric / decimal}
; #@! TF.CreationDate,2026-07-11T23:02:05+05:00
; #@! TF.GenerationSoftware,Kicad,Pcbnew,10.0.4
; #@! TF.FileFunction,MixedPlating,1,2
FMAT,2
METRIC
; #@! TA.AperFunction,Plated,PTH,ComponentDrill
T1C0.200
; #@! TA.AperFunction,Plated,PTH,ViaDrill
T2C0.400
; #@! TA.AperFunction,Plated,PTH,ComponentDrill
T3C0.800
; #@! TA.AperFunction,Plated,PTH,ComponentDrill
T4C0.900
; #@! TA.AperFunction,Plated,PTH,ComponentDrill
T5C1.000
%
G90
G05
T1
X61.295Y-69.447
X61.295Y-70.972
X62.057Y-68.685
X62.057Y-70.21
X62.057Y-71.735
X62.82Y-69.447
X62.82Y-70.972
X63.582Y-68.685
X63.582Y-70.21
X63.582Y-71.735
X64.345Y-69.447
X64.345Y-70.972
T2
X13.97Y-66.04
X15.24Y-135.89
X16.51Y-71.12
X21.59Y-130.81
X33.02Y-134.62
X34.29Y-132.08
X43.18Y-121.92
X57.15Y-83.82
X58.42Y-129.54
X69.85Y-62.23
X76.2Y-121.92
X77.47Y-124.46
X106.68Y-80.01
X107.95Y-63.5
X107.95Y-81.28
X107.95Y-119.38
X107.95Y-124.46
X109.22Y-81.28
X110.49Y-69.85
X110.49Y-72.39
X113.03Y-69.85
X113.03Y-119.38
X113.03Y-124.46
X130.81Y-148.59
X132.08Y-125.73
X133.35Y-82.55
T3
X11.43Y-152.4
X19.05Y-152.4
X30.48Y-152.4
X38.1Y-152.4
X44.45Y-123.19
X46.95Y-123.19
X49.53Y-152.4
X57.15Y-152.4
X58.42Y-123.19
X60.92Y-123.19
X68.58Y-152.4
X72.39Y-123.19
X74.89Y-123.19
X76.2Y-152.4
X86.36Y-123.19
X87.63Y-152.4
X88.86Y-123.19
X95.25Y-152.4
X99.06Y-123.19
X106.68Y-123.19
X106.68Y-152.4
X114.3Y-152.4
X118.11Y-123.19
X125.73Y-123.19
X125.73Y-152.4
X133.35Y-152.4
X137.16Y-123.19
X144.78Y-123.19
X144.78Y-152.4
X152.4Y-152.4
X156.21Y-123.19
X163.83Y-123.19
T4
X142.24Y-13.97
X144.78Y-13.97
X157.48Y-13.97
X160.02Y-13.97
T5
X129.54Y-12.7
X129.54Y-15.24
X129.54Y-17.78
X129.54Y-20.32
M30
